<svg width="300" height="303" viewBox="0 0 300 303" fill="none" xmlns="http://www.w3.org/2000/svg">
<path d="M209.02 90.8919L207.525 90.7672L209.02 90.8919ZM10.9393 302.061C11.5251 302.646 12.4749 302.646 13.0607 302.061L22.6066 292.515C23.1924 291.929 23.1924 290.979 22.6066 290.393C22.0208 289.808 21.0711 289.808 20.4853 290.393L12 298.879L3.51472 290.393C2.92893 289.808 1.97918 289.808 1.3934 290.393C0.807612 290.979 0.807612 291.929 1.3934 292.515L10.9393 302.061ZM13.5 301C13.5 298.18 13.8958 295.07 14.6555 291.724L11.73 291.06C10.933 294.57 10.5 297.907 10.5 301L13.5 301ZM21.1226 273.73C23.6888 268.245 26.8136 262.548 30.3597 256.813L27.8081 255.235C24.2109 261.053 21.0282 266.852 18.4053 272.459L21.1226 273.73ZM41.2497 240.836C45.101 235.665 49.1911 230.607 53.4113 225.797L51.1561 223.818C46.8828 228.689 42.7424 233.809 38.8438 239.044L41.2497 240.836ZM66.7775 211.837C71.7277 207.131 76.6903 202.93 81.5067 199.424L79.7411 196.999C74.7999 200.596 69.737 204.884 64.7106 209.662L66.7775 211.837ZM98.0212 190.105C101.297 188.906 104.309 188.287 106.998 188.287V185.287C103.862 185.287 100.495 186.005 96.99 187.288L98.0212 190.105ZM106.998 188.287C109.993 188.287 113.27 188.077 116.755 187.638L116.38 184.661C113.006 185.086 109.855 185.287 106.998 185.287V188.287ZM135.731 183.403C141.603 181.544 147.672 179.116 153.698 176.052L152.338 173.377C146.465 176.364 140.549 178.731 134.825 180.543L135.731 183.403ZM170.207 165.801C175.271 162.005 180.13 157.666 184.619 152.737L182.401 150.717C178.048 155.497 173.331 159.71 168.408 163.401L170.207 165.801ZM196.236 137.109C199.444 131.741 202.239 125.885 204.506 119.513L201.68 118.507C199.479 124.692 196.769 130.369 193.66 135.569L196.236 137.109ZM209.323 100.687C209.838 97.5618 210.238 94.3391 210.515 91.0166L207.525 90.7672C207.254 94.0115 206.864 97.155 206.363 100.2L209.323 100.687ZM210.515 91.0166C210.834 87.1879 211.376 83.5207 212.115 80.0084L209.179 79.3909C208.414 83.026 207.855 86.8162 207.525 90.7672L210.515 91.0166ZM219.497 59.1657C223.005 52.3538 227.321 46.3181 232.117 40.9792L229.885 38.9743C224.935 44.4844 220.467 50.7295 216.83 57.792L219.497 59.1657ZM248.698 26.1882C255.091 21.5646 261.657 17.7923 267.859 14.7449L266.536 12.0524C260.209 15.161 253.493 19.0178 246.939 23.7574L248.698 26.1882ZM288.59 6.39406C291.874 5.34298 294.56 4.61009 296.421 4.14094C297.351 3.9064 298.075 3.73785 298.563 3.62848C298.807 3.5738 298.992 3.53392 299.115 3.50798C299.176 3.49501 299.222 3.48554 299.252 3.47944C299.267 3.47639 299.278 3.47418 299.285 3.47281C299.288 3.47212 299.29 3.47165 299.292 3.47137C299.292 3.47124 299.293 3.47115 299.293 3.47112C299.293 3.47111 299.293 3.4711 299.293 3.47111C299.293 3.47112 299.293 3.47113 299.293 3.47113C299.293 3.47115 299.293 3.47118 299 2C298.707 0.528823 298.707 0.528853 298.707 0.528885C298.707 0.5289 298.707 0.528936 298.707 0.528966C298.706 0.529027 298.706 0.529101 298.706 0.529187C298.705 0.52936 298.704 0.529585 298.702 0.529862C298.699 0.530416 298.696 0.531178 298.691 0.53215C298.681 0.534094 298.667 0.536878 298.65 0.540515C298.614 0.547788 298.563 0.558474 298.495 0.57268C298.361 0.601092 298.163 0.643588 297.907 0.70103C297.394 0.815909 296.645 0.990595 295.687 1.23199C293.773 1.71473 291.026 2.46457 287.676 3.53685L288.59 6.39406Z" fill="url(#paint0_linear_71_2821)"/>
<defs>
<linearGradient id="paint0_linear_71_2821" x1="155.5" y1="2" x2="155.5" y2="301" gradientUnits="userSpaceOnUse">
<stop stop-color="white"/>
<stop offset="0.135417" stop-color="#C5DFFE"/>
<stop offset="0.338542" stop-color="#74ACEE"/>
<stop offset="0.578125" stop-color="#407FC9"/>
<stop offset="0.791667" stop-color="#0C6AD8"/>
<stop offset="1" stop-color="#104686"/>
</linearGradient>
</defs>
</svg>
