<svg width="328" height="310" viewBox="0 0 328 310" fill="none" xmlns="http://www.w3.org/2000/svg">
<path d="M163.209 100.979L163.64 102.415L163.209 100.979ZM317.148 309.235C317.83 309.705 318.764 309.534 319.235 308.852L326.903 297.741C327.373 297.059 327.202 296.125 326.52 295.655C325.838 295.184 324.904 295.355 324.434 296.037L317.617 305.913L307.741 299.097C307.059 298.627 306.125 298.798 305.655 299.48C305.184 300.162 305.355 301.096 306.037 301.566L317.148 309.235ZM1.23341 3.67722C4.43047 3.17359 7.44285 3.75658 10.4071 5.2634L11.7665 2.58909C8.31327 0.833693 4.66506 0.0996468 0.766588 0.71376L1.23341 3.67722ZM24.7305 19.0982C28.447 24.0871 32.221 29.9536 36.251 36.2939L38.7829 34.6846C34.76 28.3556 30.9292 22.3974 27.1363 17.306L24.7305 19.0982ZM47.585 53.7871C51.4244 59.454 55.5427 65.155 60.0425 70.6153L62.3577 68.7074C57.9363 63.3422 53.875 57.7226 50.0687 52.1044L47.585 53.7871ZM74.5648 85.8046C79.8018 90.4244 85.5097 94.565 91.7867 97.9673L93.2162 95.3298C87.1666 92.0508 81.6426 88.0478 76.5494 83.5549L74.5648 85.8046ZM111.527 105.495C118.018 107.012 124.995 107.778 132.518 107.63L132.459 104.631C125.178 104.774 118.451 104.033 112.21 102.573L111.527 105.495ZM153.465 105.06C156.766 104.339 160.157 103.461 163.64 102.415L162.778 99.5418C159.365 100.566 156.048 101.425 152.825 102.129L153.465 105.06ZM163.64 102.415C166.964 101.418 170.222 100.673 173.414 100.164L172.942 97.2016C169.613 97.732 166.225 98.5075 162.778 99.5418L163.64 102.415ZM193.331 100.039C199.946 101.049 206.269 103.103 212.312 106.045L213.625 103.348C207.334 100.285 200.721 98.1325 193.784 97.0734L193.331 100.039ZM229.113 116.969C234.149 121.101 238.955 125.846 243.534 131.082L245.793 129.108C241.121 123.766 236.198 118.901 231.015 114.65L229.113 116.969ZM255.91 147.136C259.674 152.622 263.25 158.409 266.641 164.401L269.252 162.923C265.823 156.866 262.202 151.005 258.383 145.439L255.91 147.136ZM276.051 182.45C279 188.573 281.777 194.799 284.385 201.039L287.153 199.882C284.526 193.598 281.728 187.324 278.754 181.148L276.051 182.45ZM291.824 220.033C294.231 226.586 296.451 233.052 298.49 239.324L301.343 238.396C299.294 232.092 297.061 225.591 294.64 218.999L291.824 220.033ZM304.467 258.843C306.511 265.935 308.283 272.552 309.793 278.494L312.7 277.756C311.184 271.786 309.403 265.138 307.35 258.013L304.467 258.843ZM314.485 298.334C315.173 301.493 315.684 303.981 316.022 305.677C316.191 306.525 316.317 307.175 316.401 307.612C316.442 307.831 316.474 307.996 316.494 308.107C316.504 308.162 316.512 308.203 316.517 308.231C316.52 308.244 316.522 308.255 316.523 308.261C316.523 308.264 316.524 308.267 316.524 308.268C316.524 308.269 316.524 308.27 316.525 308.27C316.525 308.27 316.525 308.27 316.525 308.27C316.525 308.271 316.525 308.271 316.525 308.271C316.525 308.271 316.525 308.27 318 308C319.475 307.73 319.475 307.729 319.475 307.729C319.475 307.729 319.475 307.729 319.475 307.729C319.475 307.729 319.475 307.729 319.475 307.729C319.475 307.728 319.475 307.727 319.475 307.726C319.474 307.724 319.474 307.721 319.473 307.718C319.472 307.71 319.47 307.699 319.467 307.684C319.462 307.655 319.454 307.612 319.443 307.555C319.422 307.441 319.39 307.272 319.347 307.049C319.262 306.604 319.135 305.946 318.964 305.09C318.623 303.378 318.109 300.873 317.416 297.696L314.485 298.334Z" fill="url(#paint0_linear_86_5024)"/>
<defs>
<linearGradient id="paint0_linear_86_5024" x1="158.947" y1="2.08806" x2="158.947" y2="406.306" gradientUnits="userSpaceOnUse">
<stop stop-color="white"/>
<stop offset="0.21875" stop-color="#71AEF7"/>
<stop offset="0.385417" stop-color="#4995EF"/>
<stop offset="0.572917" stop-color="#2D81E4"/>
<stop offset="0.786458" stop-color="#0D53A5"/>
<stop offset="0.927083" stop-color="#0B3C75"/>
</linearGradient>
</defs>
</svg>
