<svg width="12" height="220" viewBox="0 0 12 220" fill="none" xmlns="http://www.w3.org/2000/svg">
<g filter="url(#filter0_b_137_1986)">
<path d="M5.71211 10.623H6.09297C6.36641 10.623 6.56497 10.6784 6.68867 10.7891C6.81237 10.8932 6.87422 11.0625 6.87422 11.2969C6.87422 11.5247 6.81563 11.7005 6.69844 11.8242C6.58125 11.9414 6.41198 12 6.19063 12H1.37617C1.15482 12 0.985547 11.9414 0.86836 11.8242C0.751172 11.7005 0.692578 11.5247 0.692578 11.2969C0.692578 11.056 0.754427 10.8835 0.878125 10.7793C1.00833 10.6751 1.22643 10.623 1.53242 10.623H1.85469H2.46992V1.82422H1.85469C1.3599 1.82422 1.04089 1.77539 0.897656 1.67773C0.760938 1.57357 0.692578 1.38802 0.692578 1.12109C0.692578 0.893229 0.751172 0.720703 0.86836 0.603516C0.985547 0.479818 1.15482 0.417969 1.37617 0.417969H10.0188C10.2401 0.417969 10.4061 0.486328 10.5168 0.623047C10.634 0.753255 10.6926 0.945312 10.6926 1.19922V3.71875C10.6926 3.94661 10.634 4.11914 10.5168 4.23633C10.4061 4.34701 10.2401 4.40234 10.0188 4.40234C9.74531 4.40234 9.55977 4.33073 9.46211 4.1875C9.36445 4.04427 9.31563 3.72201 9.31563 3.2207V1.82422H4.01289V5.11523H6.59102V4.86133C6.59102 4.38607 6.63659 4.06706 6.72773 3.9043C6.81888 3.74154 6.98164 3.66016 7.21602 3.66016C7.42435 3.66016 7.57409 3.72201 7.66523 3.8457C7.76289 3.9694 7.81172 4.16797 7.81172 4.44141V6.92188C7.81172 7.2474 7.76615 7.47201 7.675 7.5957C7.59036 7.7194 7.43737 7.78125 7.21602 7.78125C6.98164 7.78125 6.81888 7.69987 6.72773 7.53711C6.63659 7.37435 6.59102 7.05534 6.59102 6.58008V6.29688H4.01289V10.623H5.71211ZM8.75898 33.623C9.26029 33.623 9.5793 33.6719 9.71602 33.7695C9.85924 33.8607 9.93086 34.0365 9.93086 34.2969C9.93086 34.5638 9.85924 34.7493 9.71602 34.8535C9.5793 34.9512 9.26029 35 8.75898 35H2.83125H2.37227C2.13789 35 1.95885 34.9414 1.83516 34.8242C1.71146 34.707 1.64961 34.5312 1.64961 34.2969C1.64961 34.0365 1.72122 33.8607 1.86445 33.7695C2.00768 33.6719 2.32995 33.623 2.83125 33.623H5.03828V24.8242H2.83125C2.34297 24.8242 2.02396 24.7754 1.87422 24.6777C1.72448 24.5736 1.64961 24.388 1.64961 24.1211C1.64961 23.8802 1.71146 23.7044 1.83516 23.5938C1.95885 23.4766 2.1444 23.418 2.3918 23.418H2.83125H8.75898H9.21797C9.45234 23.418 9.62813 23.4766 9.74531 23.5938C9.86901 23.7109 9.93086 23.8867 9.93086 24.1211C9.93086 24.388 9.85599 24.5736 9.70625 24.6777C9.56302 24.7754 9.24727 24.8242 8.75898 24.8242H6.55195V33.623H8.75898ZM3.13398 56.623H3.63203H4.35469C4.70625 56.623 4.9569 56.6751 5.10664 56.7793C5.25638 56.8835 5.33125 57.056 5.33125 57.2969C5.33125 57.5638 5.25964 57.7493 5.11641 57.8535C4.97969 57.9512 4.6737 58 4.19844 58H1.75703H1.29805C1.06367 58 0.887891 57.9414 0.770703 57.8242C0.653516 57.707 0.594922 57.5312 0.594922 57.2969C0.594922 57.0365 0.660026 56.8607 0.790235 56.7695C0.926953 56.6719 1.18737 56.623 1.57148 56.623H1.75703V47.8242H1.51289C0.966016 47.8242 0.594922 47.7721 0.39961 47.668C0.210807 47.5638 0.116406 47.3815 0.116406 47.1211C0.116406 46.8802 0.197787 46.7077 0.360547 46.6035C0.529818 46.4928 0.8 46.4375 1.17109 46.4375C1.17109 46.4375 1.2362 46.4342 1.36641 46.4277C1.49661 46.4212 1.62682 46.418 1.75703 46.418H2.675C2.97448 46.418 3.18281 46.4538 3.3 46.5254C3.4237 46.5905 3.56693 46.763 3.72969 47.043L8.65156 55.5391V47.8242H8.2707H7.57734C7.22578 47.8242 6.96862 47.7689 6.80586 47.6582C6.64961 47.541 6.57148 47.362 6.57148 47.1211C6.57148 46.8542 6.63984 46.6719 6.77656 46.5742C6.91328 46.4701 7.19974 46.418 7.63594 46.418H9.96992H10.4387C10.673 46.418 10.8456 46.4766 10.9563 46.5938C11.0734 46.7109 11.132 46.8867 11.132 47.1211C11.132 47.3815 11.0604 47.5638 10.9172 47.668C10.7805 47.7721 10.5266 47.8242 10.1555 47.8242H10.0383V57.6582C10.0383 57.847 9.99271 57.9772 9.90156 58.0488C9.81693 58.1204 9.6151 58.1562 9.29609 58.1562C8.97708 58.1562 8.77852 58.1367 8.70039 58.0977C8.62878 58.0651 8.50508 57.8991 8.3293 57.5996L3.13398 48.6445V56.623ZM3.45625 79.623C3.66458 79.6426 3.86966 79.6589 4.07148 79.6719C4.27982 79.6784 4.48164 79.6816 4.67695 79.6816C6.27852 79.6816 7.45039 79.3236 8.19258 78.6074C8.94128 77.8913 9.31563 76.7617 9.31563 75.2188C9.31563 73.6693 8.94128 72.543 8.19258 71.8398C7.44388 71.1302 6.24596 70.7754 4.59883 70.7754C4.29284 70.7754 4.05846 70.7786 3.8957 70.7852C3.73945 70.7917 3.59297 70.8047 3.45625 70.8242V79.623ZM3.45625 81H1.91328H1.47383C1.23294 81 1.05065 80.9414 0.926953 80.8242C0.809766 80.707 0.751172 80.5312 0.751172 80.2969C0.751172 80.043 0.819531 79.8672 0.95625 79.7695C1.09948 79.6719 1.36641 79.623 1.75703 79.623H1.93281V70.8242H1.77656C1.38594 70.8242 1.11576 70.7721 0.966016 70.668C0.822787 70.5638 0.751172 70.3815 0.751172 70.1211C0.751172 69.8802 0.809766 69.7044 0.926953 69.5938C1.05065 69.4766 1.23945 69.418 1.49336 69.418H1.91328H3.45625H5.61445C7.23555 69.418 8.52786 69.9421 9.49141 70.9902C10.4549 72.0319 10.9367 73.4414 10.9367 75.2188C10.9367 76.0846 10.7967 76.8887 10.5168 77.6309C10.2434 78.373 9.84297 79.0241 9.31563 79.584C8.82734 80.0918 8.23164 80.4629 7.52852 80.6973C6.8319 80.9251 5.93346 81.0391 4.8332 81.0391C4.70299 81.0391 4.48164 81.0326 4.16914 81.0195C3.86315 81.0065 3.62552 81 3.45625 81ZM1.57148 116.824H1.41523C1.02461 116.824 0.754427 116.772 0.604688 116.668C0.461459 116.564 0.389844 116.382 0.389844 116.121C0.389844 115.88 0.451693 115.704 0.575391 115.594C0.699089 115.477 0.884636 115.418 1.13203 115.418H1.57148H3.57344C4.10078 115.418 4.43607 115.47 4.5793 115.574C4.72253 115.672 4.79414 115.854 4.79414 116.121C4.79414 116.382 4.70951 116.564 4.54023 116.668C4.37096 116.772 4.0487 116.824 3.57344 116.824H3.15352V122.176C3.15352 122.898 3.18607 123.426 3.25117 123.758C3.32279 124.083 3.43672 124.383 3.59297 124.656C3.82083 125.053 4.13659 125.363 4.54023 125.584C4.95039 125.805 5.40286 125.916 5.89766 125.916C6.82865 125.916 7.50573 125.636 7.92891 125.076C8.35859 124.516 8.57344 123.611 8.57344 122.361V116.824H8.05586C7.54805 116.824 7.20625 116.775 7.03047 116.678C6.8612 116.574 6.77656 116.388 6.77656 116.121C6.77656 115.854 6.84492 115.672 6.98164 115.574C7.11836 115.47 7.40156 115.418 7.83125 115.418H9.98945H10.4582C10.6926 115.418 10.8684 115.477 10.9855 115.594C11.1092 115.711 11.1711 115.887 11.1711 116.121C11.1711 116.382 11.0995 116.564 10.9563 116.668C10.813 116.772 10.5526 116.824 10.175 116.824H10.0383V122.576C10.0383 124.158 9.68346 125.346 8.97383 126.141C8.2707 126.928 7.20951 127.322 5.79023 127.322C4.50768 127.322 3.48229 126.928 2.71406 126.141C1.95234 125.346 1.57148 124.279 1.57148 122.938V116.824ZM2.93867 149.658C2.90612 149.951 2.83125 150.153 2.71406 150.264C2.59688 150.381 2.41133 150.439 2.15742 150.439C1.88398 150.439 1.67891 150.358 1.54219 150.195C1.41198 150.039 1.33711 149.782 1.31758 149.424L1.19063 147.158V146.982C1.19063 146.67 1.24922 146.449 1.36641 146.318C1.4901 146.188 1.69193 146.123 1.97188 146.123C2.3625 146.123 2.64245 146.403 2.81172 146.963C2.88984 147.243 2.96471 147.454 3.03633 147.598C3.26419 148.053 3.62227 148.405 4.11055 148.652C4.60534 148.9 5.19453 149.023 5.87813 149.023C6.71797 149.023 7.39831 148.825 7.91914 148.428C8.44648 148.031 8.71016 147.523 8.71016 146.904C8.71016 146.39 8.5474 145.977 8.22188 145.664C7.90286 145.352 7.43411 145.15 6.81563 145.059L5.37031 144.863C4.02266 144.674 3.03958 144.32 2.42109 143.799C1.8026 143.278 1.49336 142.546 1.49336 141.602C1.49336 140.605 1.90352 139.769 2.72383 139.092C3.55065 138.415 4.5793 138.076 5.80977 138.076C6.16784 138.076 6.54544 138.125 6.94258 138.223C7.33971 138.314 7.78893 138.46 8.29023 138.662C8.30326 138.473 8.35534 138.343 8.44648 138.271C8.53763 138.2 8.69388 138.164 8.91523 138.164C9.20169 138.164 9.40026 138.206 9.51094 138.291C9.62161 138.376 9.68997 138.577 9.71602 138.896L9.85273 140.938V141.035C9.85273 141.263 9.78763 141.442 9.65742 141.572C9.52721 141.696 9.34492 141.758 9.11055 141.758C8.76549 141.758 8.49857 141.517 8.30977 141.035C8.21862 140.762 8.12747 140.557 8.03633 140.42C7.82148 140.094 7.51224 139.844 7.10859 139.668C6.70495 139.492 6.24596 139.404 5.73164 139.404C4.94388 139.404 4.3026 139.6 3.80781 139.99C3.31953 140.381 3.07539 140.892 3.07539 141.523C3.07539 142.018 3.25768 142.409 3.62227 142.695C3.99336 142.982 4.55651 143.177 5.31172 143.281L6.87422 143.477C8.00703 143.626 8.8599 143.975 9.43281 144.521C10.0057 145.062 10.2922 145.794 10.2922 146.719C10.2922 147.812 9.88529 148.691 9.07148 149.355C8.25768 150.013 7.17044 150.342 5.80977 150.342C5.34102 150.342 4.87552 150.286 4.41328 150.176C3.95104 150.065 3.45951 149.893 2.93867 149.658ZM11.0734 190.199C11.0734 191.983 10.5786 193.448 9.58906 194.594C8.59948 195.733 7.3332 196.303 5.79023 196.303C4.26029 196.303 2.99727 195.73 2.00117 194.584C1.01159 193.438 0.516797 191.977 0.516797 190.199C0.516797 188.402 1.00833 186.938 1.99141 185.805C2.97448 184.665 4.24076 184.096 5.79023 184.096C7.3332 184.096 8.59948 184.669 9.58906 185.814C10.5786 186.96 11.0734 188.422 11.0734 190.199ZM5.79023 194.916C6.88398 194.916 7.74336 194.499 8.36836 193.666C8.99987 192.826 9.31563 191.671 9.31563 190.199C9.31563 188.728 8.99987 187.576 8.36836 186.742C7.74336 185.902 6.88398 185.482 5.79023 185.482C4.68997 185.482 3.82734 185.899 3.20234 186.732C2.58385 187.559 2.27461 188.715 2.27461 190.199C2.27461 191.671 2.58711 192.826 3.21211 193.666C3.84362 194.499 4.70299 194.916 5.79023 194.916ZM3.13398 217.623H3.63203H4.35469C4.70625 217.623 4.9569 217.675 5.10664 217.779C5.25638 217.883 5.33125 218.056 5.33125 218.297C5.33125 218.564 5.25964 218.749 5.11641 218.854C4.97969 218.951 4.6737 219 4.19844 219H1.75703H1.29805C1.06367 219 0.887891 218.941 0.770703 218.824C0.653516 218.707 0.594922 218.531 0.594922 218.297C0.594922 218.036 0.660026 217.861 0.790235 217.77C0.926953 217.672 1.18737 217.623 1.57148 217.623H1.75703V208.824H1.51289C0.966016 208.824 0.594922 208.772 0.39961 208.668C0.210807 208.564 0.116406 208.382 0.116406 208.121C0.116406 207.88 0.197787 207.708 0.360547 207.604C0.529818 207.493 0.8 207.438 1.17109 207.438C1.17109 207.438 1.2362 207.434 1.36641 207.428C1.49661 207.421 1.62682 207.418 1.75703 207.418H2.675C2.97448 207.418 3.18281 207.454 3.3 207.525C3.4237 207.59 3.56693 207.763 3.72969 208.043L8.65156 216.539V208.824H8.2707H7.57734C7.22578 208.824 6.96862 208.769 6.80586 208.658C6.64961 208.541 6.57148 208.362 6.57148 208.121C6.57148 207.854 6.63984 207.672 6.77656 207.574C6.91328 207.47 7.19974 207.418 7.63594 207.418H9.96992H10.4387C10.673 207.418 10.8456 207.477 10.9563 207.594C11.0734 207.711 11.132 207.887 11.132 208.121C11.132 208.382 11.0604 208.564 10.9172 208.668C10.7805 208.772 10.5266 208.824 10.1555 208.824H10.0383V218.658C10.0383 218.847 9.99271 218.977 9.90156 219.049C9.81693 219.12 9.6151 219.156 9.29609 219.156C8.97708 219.156 8.77852 219.137 8.70039 219.098C8.62878 219.065 8.50508 218.899 8.3293 218.6L3.13398 209.645V217.623Z" fill="white"/>
</g>
<defs>
<filter id="filter0_b_137_1986" x="-3.88361" y="-3.58203" width="19.0547" height="226.738" filterUnits="userSpaceOnUse" color-interpolation-filters="sRGB">
<feFlood flood-opacity="0" result="BackgroundImageFix"/>
<feGaussianBlur in="BackgroundImage" stdDeviation="2"/>
<feComposite in2="SourceAlpha" operator="in" result="effect1_backgroundBlur_137_1986"/>
<feBlend mode="normal" in="SourceGraphic" in2="effect1_backgroundBlur_137_1986" result="shape"/>
</filter>
</defs>
</svg>
