<svg width="542" height="111" viewBox="0 0 542 111" fill="none" xmlns="http://www.w3.org/2000/svg">
<g filter="url(#filter0_d_137_1982)">
<path d="M15.1239 34.29C15.1239 35.31 14.9139 36.17 14.4939 36.87C14.0739 37.57 13.5039 38.1 12.7839 38.46C12.1439 38.78 11.4939 39.01 10.8339 39.15C10.1939 39.29 9.50387 39.36 8.76387 39.36C8.02387 39.36 7.00387 39.29 5.70387 39.15L4.05387 39V18H7.35387V24C8.23387 23.8 9.03387 23.7 9.75387 23.7C10.7739 23.7 11.7139 23.9 12.5739 24.3C14.2739 25.08 15.1239 26.52 15.1239 28.62V34.29ZM11.8539 29.55C11.8539 28.65 11.6039 28.01 11.1039 27.63C10.6039 27.23 9.99387 27.03 9.27387 27.03C8.87387 27.03 8.49387 27.08 8.13387 27.18C7.77387 27.28 7.51387 27.4 7.35387 27.54V36.12C7.69387 36.22 8.10387 36.27 8.58387 36.27C9.42387 36.27 10.1739 36.12 10.8339 35.82C11.5139 35.5 11.8539 35.01 11.8539 34.35V29.55ZM35.6837 34.53C35.6837 35.09 35.8337 35.53 36.1337 35.85C36.4537 36.15 36.9137 36.3 37.5137 36.3C38.4337 36.3 39.6637 35.9 41.2037 35.1L42.4037 37.95C41.6837 38.41 40.8637 38.76 39.9437 39C39.0237 39.24 38.1037 39.36 37.1837 39.36C35.7037 39.36 34.5237 39 33.6437 38.28C32.7837 37.54 32.3537 36.44 32.3537 34.98V28.83C32.3537 27.21 32.8537 25.95 33.8537 25.05C34.8737 24.15 36.2137 23.7 37.8737 23.7C39.5337 23.7 40.8237 24.15 41.7437 25.05C42.6837 25.93 43.1537 27.16 43.1537 28.74V33.3L35.6837 33.69V34.53ZM39.8237 28.8C39.8237 28.2 39.6337 27.74 39.2537 27.42C38.8737 27.1 38.4037 26.94 37.8437 26.94C37.0837 26.94 36.5337 27.14 36.1937 27.54C35.8537 27.94 35.6837 28.38 35.6837 28.86V30.66L39.8237 30.39V28.8ZM85.0011 23.97H88.1211L88.3011 24.18C88.5211 24.08 88.8511 23.98 89.2911 23.88C89.7511 23.78 90.1911 23.73 90.6111 23.73C92.4711 23.73 93.8811 24.27 94.8411 25.35C95.8211 26.43 96.3111 27.83 96.3111 29.55V33.72C96.3111 35.54 95.8011 36.94 94.7811 37.92C93.7611 38.88 92.4111 39.36 90.7311 39.36C90.1911 39.36 89.7811 39.33 89.5011 39.27C89.2211 39.23 88.9811 39.17 88.7811 39.09C88.5811 39.03 88.4211 38.98 88.3011 38.94V44.64L85.0011 45.3V23.97ZM93.0111 29.43C93.0111 28.63 92.8311 28.02 92.4711 27.6C92.1311 27.18 91.5511 26.97 90.7311 26.97C89.9111 26.97 89.3011 27.18 88.9011 27.6C88.5011 28 88.3011 28.56 88.3011 29.28V33.36C88.3011 34.16 88.4711 34.81 88.8111 35.31C89.1711 35.81 89.8111 36.06 90.7311 36.06C91.6511 36.06 92.2611 35.82 92.5611 35.34C92.8611 34.86 93.0111 34.06 93.0111 32.94V29.43ZM125.145 39C122.985 39.22 121.425 39.33 120.465 39.33C118.365 39.33 116.695 38.94 115.455 38.16C114.215 37.38 113.595 35.97 113.595 33.93V31.44C113.595 29.46 114.285 28.13 115.665 27.45C116.325 27.13 117.075 26.97 117.915 26.97C118.655 26.97 119.385 27.07 120.105 27.27C120.825 27.47 121.405 27.69 121.845 27.93C121.845 27.19 121.545 26.69 120.945 26.43C120.345 26.15 119.575 26.01 118.635 26.01L118.905 23.73C120.825 23.73 122.235 24.04 123.135 24.66C124.055 25.26 124.615 25.98 124.815 26.82C125.035 27.66 125.145 28.74 125.145 30.06V39ZM121.845 31.44C121.485 31.18 120.975 30.94 120.315 30.72C119.675 30.48 119.085 30.36 118.545 30.36C118.065 30.36 117.675 30.48 117.375 30.72C117.075 30.96 116.925 31.34 116.925 31.86V33.51C116.925 35.33 117.995 36.24 120.135 36.24C120.755 36.24 121.325 36.19 121.845 36.09V31.44ZM143.056 23.97H146.116L146.356 24.09C147.176 23.81 147.946 23.67 148.666 23.67C149.166 23.67 149.896 23.77 150.856 23.97L151.456 24.09L150.676 27.3C150.116 27.02 149.566 26.88 149.026 26.88C148.286 26.88 147.656 27.11 147.136 27.57C146.616 28.01 146.356 28.6 146.356 29.34V39H143.056V23.97ZM172.594 39.39C169.554 39.33 168.034 37.88 168.034 35.04V18H171.394V23.97H174.244L173.524 27.06H171.394V35.04C171.394 35.72 171.584 36.18 171.964 36.42C172.344 36.64 172.884 36.75 173.584 36.75L172.594 39.39ZM226.826 33.48C226.826 35.16 226.366 36.55 225.446 37.65C224.526 38.75 223.136 39.3 221.276 39.3C219.416 39.3 218.006 38.75 217.046 37.65C216.106 36.53 215.636 35.14 215.636 33.48V29.52C215.636 27.62 216.116 26.17 217.076 25.17C218.056 24.15 219.456 23.64 221.276 23.64C223.016 23.64 224.376 24.17 225.356 25.23C226.336 26.27 226.826 27.7 226.826 29.52V33.48ZM223.556 29.52C223.556 28.46 223.336 27.77 222.896 27.45C222.456 27.13 221.916 26.97 221.276 26.97C219.716 26.97 218.936 27.82 218.936 29.52V33.78C218.936 34.58 219.156 35.16 219.596 35.52C220.036 35.88 220.596 36.06 221.276 36.06C221.936 36.06 222.476 35.87 222.896 35.49C223.336 35.11 223.556 34.54 223.556 33.78V29.52ZM245.343 22.53C245.343 20.77 245.803 19.52 246.723 18.78C247.643 18.02 248.773 17.64 250.113 17.64C250.593 17.64 251.083 17.69 251.583 17.79L251.043 20.79C250.803 20.69 250.553 20.64 250.293 20.64C249.853 20.64 249.473 20.78 249.153 21.06C248.853 21.34 248.703 21.83 248.703 22.53V23.97H251.313L250.593 27.06H248.703V39H245.343V22.53ZM296.988 39.39C293.948 39.33 292.428 37.88 292.428 35.04V18H295.788V23.97H298.638L297.918 27.06H295.788V35.04C295.788 35.72 295.978 36.18 296.358 36.42C296.738 36.64 297.278 36.75 297.978 36.75L296.988 39.39ZM324.031 29.79C324.031 28.71 323.791 27.94 323.311 27.48C322.851 27.02 322.261 26.79 321.541 26.79C321.161 26.79 320.791 26.85 320.431 26.97C320.071 27.07 319.781 27.19 319.561 27.33V39H316.261V18H319.561V24.09C320.261 23.83 321.071 23.7 321.991 23.7C323.031 23.7 323.961 23.89 324.781 24.27C325.581 24.63 326.201 25.17 326.641 25.89C327.101 26.61 327.331 27.52 327.331 28.62V39H324.031V29.79ZM348.516 34.53C348.516 35.09 348.666 35.53 348.966 35.85C349.286 36.15 349.746 36.3 350.346 36.3C351.266 36.3 352.496 35.9 354.036 35.1L355.236 37.95C354.516 38.41 353.696 38.76 352.776 39C351.856 39.24 350.936 39.36 350.016 39.36C348.536 39.36 347.356 39 346.476 38.28C345.616 37.54 345.186 36.44 345.186 34.98V28.83C345.186 27.21 345.686 25.95 346.686 25.05C347.706 24.15 349.046 23.7 350.706 23.7C352.366 23.7 353.656 24.15 354.576 25.05C355.516 25.93 355.986 27.16 355.986 28.74V33.3L348.516 33.69V34.53ZM352.656 28.8C352.656 28.2 352.466 27.74 352.086 27.42C351.706 27.1 351.236 26.94 350.676 26.94C349.916 26.94 349.366 27.14 349.026 27.54C348.686 27.94 348.516 28.38 348.516 28.86V30.66L352.656 30.39V28.8ZM397.833 22.53C397.833 20.77 398.293 19.52 399.213 18.78C400.133 18.02 401.263 17.64 402.603 17.64C403.083 17.64 403.573 17.69 404.073 17.79L403.533 20.79C403.293 20.69 403.043 20.64 402.783 20.64C402.343 20.64 401.963 20.78 401.643 21.06C401.343 21.34 401.193 21.83 401.193 22.53V23.97H403.803L403.083 27.06H401.193V39H397.833V22.53ZM429.219 38.82C429.159 38.84 428.929 38.93 428.529 39.09C428.129 39.25 427.609 39.33 426.969 39.33C423.209 39.33 421.329 37.5 421.329 33.84V23.97H424.629V33.36C424.629 34.28 424.789 34.96 425.109 35.4C425.449 35.84 426.069 36.06 426.969 36.06C427.869 36.06 428.469 35.82 428.769 35.34C429.069 34.84 429.219 34.14 429.219 33.24V23.97H432.519V39H429.429L429.219 38.82ZM454.547 39.39C451.507 39.33 449.987 37.88 449.987 35.04V18H453.347V23.97H456.197L455.477 27.06H453.347V35.04C453.347 35.72 453.537 36.18 453.917 36.42C454.297 36.64 454.837 36.75 455.537 36.75L454.547 39.39ZM480.869 38.82C480.809 38.84 480.579 38.93 480.179 39.09C479.779 39.25 479.259 39.33 478.619 39.33C474.859 39.33 472.979 37.5 472.979 33.84V23.97H476.279V33.36C476.279 34.28 476.439 34.96 476.759 35.4C477.099 35.84 477.719 36.06 478.619 36.06C479.519 36.06 480.119 35.82 480.419 35.34C480.719 34.84 480.869 34.14 480.869 33.24V23.97H484.169V39H481.079L480.869 38.82ZM502.147 23.97H505.207L505.447 24.09C506.267 23.81 507.037 23.67 507.757 23.67C508.257 23.67 508.987 23.77 509.947 23.97L510.547 24.09L509.767 27.3C509.207 27.02 508.657 26.88 508.117 26.88C507.377 26.88 506.747 27.11 506.227 27.57C505.707 28.01 505.447 28.6 505.447 29.34V39H502.147V23.97ZM529.658 34.53C529.658 35.09 529.808 35.53 530.108 35.85C530.428 36.15 530.888 36.3 531.488 36.3C532.408 36.3 533.638 35.9 535.178 35.1L536.378 37.95C535.658 38.41 534.838 38.76 533.918 39C532.998 39.24 532.078 39.36 531.158 39.36C529.678 39.36 528.498 39 527.618 38.28C526.758 37.54 526.328 36.44 526.328 34.98V28.83C526.328 27.21 526.828 25.95 527.828 25.05C528.848 24.15 530.188 23.7 531.848 23.7C533.508 23.7 534.798 24.15 535.718 25.05C536.658 25.93 537.128 27.16 537.128 28.74V33.3L529.658 33.69V34.53ZM533.798 28.8C533.798 28.2 533.608 27.74 533.228 27.42C532.848 27.1 532.378 26.94 531.818 26.94C531.058 26.94 530.508 27.14 530.168 27.54C529.828 27.94 529.658 28.38 529.658 28.86V30.66L533.798 30.39V28.8ZM203.556 78.72C204.236 78.72 204.766 78.52 205.146 78.12C205.546 77.74 205.746 77.16 205.746 76.38V74.76C205.586 74.88 205.296 75.01 204.876 75.15C204.476 75.29 203.956 75.36 203.316 75.36C201.556 75.36 200.186 74.88 199.206 73.92C198.226 72.96 197.736 71.56 197.736 69.72V65.25C197.736 63.49 198.246 62.13 199.266 61.17C200.306 60.19 201.696 59.7 203.436 59.7C203.996 59.7 204.496 59.77 204.936 59.91C205.376 60.03 205.656 60.16 205.776 60.3L206.406 59.97H209.046V76.92C209.046 79.84 207.476 81.3 204.336 81.3L203.556 78.72ZM205.746 65.55C205.746 64.75 205.566 64.12 205.206 63.66C204.846 63.2 204.216 62.97 203.316 62.97C202.496 62.97 201.906 63.21 201.546 63.69C201.206 64.15 201.036 64.72 201.036 65.4V69.27C201.036 71.21 201.796 72.18 203.316 72.18C204.296 72.18 204.946 71.86 205.266 71.22C205.586 70.58 205.746 69.53 205.746 68.07V65.55ZM238.319 75C236.159 75.22 234.599 75.33 233.639 75.33C231.539 75.33 229.869 74.94 228.629 74.16C227.389 73.38 226.769 71.97 226.769 69.93V67.44C226.769 65.46 227.459 64.13 228.839 63.45C229.499 63.13 230.249 62.97 231.089 62.97C231.829 62.97 232.559 63.07 233.279 63.27C233.999 63.47 234.579 63.69 235.019 63.93C235.019 63.19 234.719 62.69 234.119 62.43C233.519 62.15 232.749 62.01 231.809 62.01L232.079 59.73C233.999 59.73 235.409 60.04 236.309 60.66C237.229 61.26 237.789 61.98 237.989 62.82C238.209 63.66 238.319 64.74 238.319 66.06V75ZM235.019 67.44C234.659 67.18 234.149 66.94 233.489 66.72C232.849 66.48 232.259 66.36 231.719 66.36C231.239 66.36 230.849 66.48 230.549 66.72C230.249 66.96 230.099 67.34 230.099 67.86V69.51C230.099 71.33 231.169 72.24 233.309 72.24C233.929 72.24 234.499 72.19 235.019 72.09V67.44ZM272.159 65.88C272.159 64.8 272.009 64.02 271.709 63.54C271.429 63.06 270.969 62.82 270.329 62.82C269.869 62.82 269.249 62.96 268.469 63.24L267.959 63.45C267.999 63.57 268.029 63.71 268.049 63.87C268.069 64.03 268.079 64.18 268.079 64.32V75H264.779V65.97C264.779 64.97 264.549 64.2 264.089 63.66C263.629 63.12 263.009 62.85 262.229 62.85C261.529 62.85 260.799 63.07 260.039 63.51V75H256.739V59.97H259.649L260.039 60.18C260.699 59.88 261.449 59.73 262.289 59.73C262.969 59.73 263.629 59.85 264.269 60.09C264.909 60.31 265.469 60.67 265.949 61.17C266.229 61.01 266.649 60.79 267.209 60.51C268.389 59.97 269.529 59.7 270.629 59.7C272.049 59.7 273.209 60.14 274.109 61.02C275.009 61.88 275.459 63.08 275.459 64.62V75H272.159V65.88ZM295.776 57.24C295.296 57.24 294.876 57.06 294.516 56.7C294.156 56.34 293.976 55.92 293.976 55.44C293.976 54.98 294.156 54.58 294.516 54.24C294.876 53.88 295.296 53.7 295.776 53.7C296.236 53.7 296.636 53.88 296.976 54.24C297.336 54.58 297.516 54.98 297.516 55.44C297.516 55.92 297.336 56.34 296.976 56.7C296.636 57.06 296.236 57.24 295.776 57.24ZM294.036 59.97H297.336V75H294.036V59.97ZM324.617 65.55C324.617 64.75 324.387 64.11 323.927 63.63C323.487 63.13 322.887 62.88 322.127 62.88C321.507 62.88 320.837 63.06 320.117 63.42V75H316.847V59.97H319.757L320.147 60.15C320.987 59.87 321.857 59.73 322.757 59.73C323.757 59.73 324.627 59.91 325.367 60.27C326.167 60.63 326.787 61.17 327.227 61.89C327.687 62.61 327.917 63.52 327.917 64.62V75H324.617V65.55ZM351.857 78.72C352.537 78.72 353.067 78.52 353.447 78.12C353.847 77.74 354.047 77.16 354.047 76.38V74.76C353.887 74.88 353.597 75.01 353.177 75.15C352.777 75.29 352.257 75.36 351.617 75.36C349.857 75.36 348.487 74.88 347.507 73.92C346.527 72.96 346.037 71.56 346.037 69.72V65.25C346.037 63.49 346.547 62.13 347.567 61.17C348.607 60.19 349.997 59.7 351.737 59.7C352.297 59.7 352.797 59.77 353.237 59.91C353.677 60.03 353.957 60.16 354.077 60.3L354.707 59.97H357.347V76.92C357.347 79.84 355.777 81.3 352.637 81.3L351.857 78.72ZM354.047 65.55C354.047 64.75 353.867 64.12 353.507 63.66C353.147 63.2 352.517 62.97 351.617 62.97C350.797 62.97 350.207 63.21 349.847 63.69C349.507 64.15 349.337 64.72 349.337 65.4V69.27C349.337 71.21 350.097 72.18 351.617 72.18C352.597 72.18 353.247 71.86 353.567 71.22C353.887 70.58 354.047 69.53 354.047 68.07V65.55Z" fill="white"/>
<path d="M14.4939 36.87L15.3514 37.3845L15.3514 37.3845L14.4939 36.87ZM12.7839 38.46L12.3367 37.5656L12.3367 37.5656L12.7839 38.46ZM10.8339 39.15L10.6264 38.1717L10.6202 38.1731L10.8339 39.15ZM5.70387 39.15L5.81094 38.1557L5.80268 38.1549L5.7944 38.1541L5.70387 39.15ZM4.05387 39H3.05387V39.9132L3.96333 39.9959L4.05387 39ZM4.05387 18V17H3.05387V18H4.05387ZM7.35387 18H8.35387V17H7.35387V18ZM7.35387 24H6.35387V25.2528L7.57549 24.9751L7.35387 24ZM12.5739 24.3L12.1521 25.2067L12.1568 25.2089L12.5739 24.3ZM11.1039 27.63L10.4792 28.4109L10.4889 28.4186L10.4988 28.4262L11.1039 27.63ZM8.13387 27.18L8.40151 28.1435L8.40151 28.1435L8.13387 27.18ZM7.35387 27.54L6.69536 26.7874L6.35387 27.0862V27.54H7.35387ZM7.35387 36.12H6.35387V36.8682L7.0717 37.0794L7.35387 36.12ZM10.8339 35.82L11.2477 36.7304L11.2597 36.7248L10.8339 35.82ZM14.1239 34.29C14.1239 35.1736 13.9425 35.8453 13.6364 36.3555L15.3514 37.3845C15.8853 36.4947 16.1239 35.4464 16.1239 34.29H14.1239ZM13.6364 36.3555C13.3128 36.8949 12.884 37.2919 12.3367 37.5656L13.2311 39.3544C14.1237 38.9081 14.835 38.2451 15.3514 37.3845L13.6364 36.3555ZM12.3367 37.5656C11.7681 37.8499 11.1983 38.0504 10.6264 38.1718L11.0414 40.1282C11.7894 39.9696 12.5197 39.7101 13.2311 39.3544L12.3367 37.5656ZM10.6202 38.1731C10.0587 38.2959 9.4411 38.36 8.76387 38.36V40.36C9.56664 40.36 10.329 40.2841 11.0476 40.1269L10.6202 38.1731ZM8.76387 38.36C8.07675 38.36 7.09787 38.2943 5.81094 38.1557L5.59679 40.1443C6.90986 40.2857 7.97098 40.36 8.76387 40.36V38.36ZM5.7944 38.1541L4.1444 38.0041L3.96333 39.9959L5.61333 40.1459L5.7944 38.1541ZM5.05387 39V18H3.05387V39H5.05387ZM4.05387 19H7.35387V17H4.05387V19ZM6.35387 18V24H8.35387V18H6.35387ZM7.57549 24.9751C8.40021 24.7877 9.12441 24.7 9.75387 24.7V22.7C8.94332 22.7 8.06753 22.8123 7.13225 23.0249L7.57549 24.9751ZM9.75387 24.7C10.6393 24.7 11.434 24.8727 12.1521 25.2067L12.9956 23.3933C11.9937 22.9273 10.9084 22.7 9.75387 22.7V24.7ZM12.1568 25.2089C12.8443 25.5243 13.316 25.9495 13.6252 26.4733C13.9388 27.0046 14.1239 27.7036 14.1239 28.62H16.1239C16.1239 27.4364 15.8839 26.3654 15.3475 25.4567C14.8067 24.5405 14.0034 23.8557 12.9909 23.3911L12.1568 25.2089ZM14.1239 28.62V34.29H16.1239V28.62H14.1239ZM12.8539 29.55C12.8539 28.48 12.5527 27.4751 11.709 26.8338L10.4988 28.4262C10.655 28.5449 10.8539 28.82 10.8539 29.55H12.8539ZM11.7286 26.8491C11.0292 26.2897 10.1911 26.03 9.27387 26.03V28.03C9.79668 28.03 10.1785 28.1703 10.4792 28.4109L11.7286 26.8491ZM9.27387 26.03C8.78977 26.03 8.3193 26.0906 7.86622 26.2165L8.40151 28.1435C8.66844 28.0694 8.95796 28.03 9.27387 28.03V26.03ZM7.86622 26.2165C7.45533 26.3306 7.02363 26.5002 6.69536 26.7874L8.01237 28.2926C8.00039 28.3031 8.01677 28.2858 8.08793 28.253C8.1569 28.2211 8.2587 28.1832 8.40151 28.1435L7.86622 26.2165ZM6.35387 27.54V36.12H8.35387V27.54H6.35387ZM7.0717 37.0794C7.52923 37.2139 8.03975 37.27 8.58387 37.27V35.27C8.16799 35.27 7.8585 35.2261 7.63603 35.1606L7.0717 37.0794ZM8.58387 37.27C9.54411 37.27 10.4387 37.0981 11.2477 36.7304L10.4201 34.9096C9.90906 35.1419 9.30363 35.27 8.58387 35.27V37.27ZM11.2597 36.7248C11.7179 36.5092 12.1273 36.205 12.4205 35.7826C12.7189 35.3524 12.8539 34.8611 12.8539 34.35H10.8539C10.8539 34.4989 10.8188 34.5826 10.7773 34.6424C10.7304 34.71 10.6298 34.8108 10.4081 34.9152L11.2597 36.7248ZM12.8539 34.35V29.55H10.8539V34.35H12.8539ZM36.1337 35.85L35.4042 36.5339L35.4262 36.5575L35.4498 36.5795L36.1337 35.85ZM41.2037 35.1L42.1253 34.7119L41.7047 33.7129L40.7427 34.2126L41.2037 35.1ZM42.4037 37.95L42.9421 38.7927L43.6525 38.3389L43.3253 37.5619L42.4037 37.95ZM39.9437 39L39.6913 38.0324L39.9437 39ZM33.6437 38.28L32.9915 39.038L33.0009 39.0461L33.0105 39.054L33.6437 38.28ZM33.8537 25.05L33.1921 24.3001L33.1847 24.3067L33.8537 25.05ZM41.7437 25.05L41.0444 25.7648L41.0523 25.7725L41.0603 25.78L41.7437 25.05ZM43.1537 33.3L43.2058 34.2986L44.1537 34.2492V33.3H43.1537ZM35.6837 33.69L35.6316 32.6914L34.6837 32.7408V33.69H35.6837ZM39.2537 27.42L39.8978 26.6551L39.8978 26.6551L39.2537 27.42ZM36.1937 27.54L35.4318 26.8924L35.4318 26.8924L36.1937 27.54ZM35.6837 30.66H34.6837V31.7273L35.7488 31.6579L35.6837 30.66ZM39.8237 30.39L39.8888 31.3879L40.8237 31.3269V30.39H39.8237ZM34.6837 34.53C34.6837 35.2711 34.8862 35.9814 35.4042 36.5339L36.8632 35.1661C36.7812 35.0786 36.6837 34.9089 36.6837 34.53H34.6837ZM35.4498 36.5795C36.0143 37.1088 36.7544 37.3 37.5137 37.3V35.3C37.073 35.3 36.8931 35.1912 36.8177 35.1205L35.4498 36.5795ZM37.5137 37.3C38.6811 37.3 40.0874 36.8068 41.6647 35.9874L40.7427 34.2126C39.2401 34.9932 38.1863 35.3 37.5137 35.3V37.3ZM40.2821 35.4881L41.4821 38.3381L43.3253 37.5619L42.1253 34.7119L40.2821 35.4881ZM41.8653 37.1073C41.2429 37.505 40.5213 37.8159 39.6913 38.0324L40.1961 39.9676C41.2061 39.7041 42.1246 39.315 42.9421 38.7927L41.8653 37.1073ZM39.6913 38.0324C38.8509 38.2516 38.0157 38.36 37.1837 38.36V40.36C38.1917 40.36 39.1965 40.2284 40.1961 39.9676L39.6913 38.0324ZM37.1837 38.36C35.8641 38.36 34.9304 38.0407 34.2769 37.506L33.0105 39.054C34.117 39.9593 35.5434 40.36 37.1837 40.36V38.36ZM34.296 37.522C33.7166 37.0235 33.3537 36.2383 33.3537 34.98H31.3537C31.3537 36.6417 31.8508 38.0565 32.9915 39.038L34.296 37.522ZM33.3537 34.98V28.83H31.3537V34.98H33.3537ZM33.3537 28.83C33.3537 27.4305 33.776 26.4653 34.5227 25.7933L33.1847 24.3067C31.9314 25.4347 31.3537 26.9895 31.3537 28.83H33.3537ZM34.5153 25.7998C35.3145 25.0946 36.4013 24.7 37.8737 24.7V22.7C36.0262 22.7 34.4329 23.2053 33.1921 24.3002L34.5153 25.7998ZM37.8737 24.7C39.3512 24.7 40.361 25.0963 41.0444 25.7648L42.443 24.3352C41.2864 23.2037 39.7162 22.7 37.8737 22.7V24.7ZM41.0603 25.78C41.7538 26.4293 42.1537 27.3692 42.1537 28.74H44.1537C44.1537 26.9508 43.6136 25.4307 42.4271 24.32L41.0603 25.78ZM42.1537 28.74V33.3H44.1537V28.74H42.1537ZM43.1016 32.3014L35.6316 32.6914L35.7358 34.6886L43.2058 34.2986L43.1016 32.3014ZM34.6837 33.69V34.53H36.6837V33.69H34.6837ZM40.8237 28.8C40.8237 27.9724 40.5504 27.2046 39.8978 26.6551L38.6096 28.1849C38.7171 28.2754 38.8237 28.4276 38.8237 28.8H40.8237ZM39.8978 26.6551C39.3146 26.1639 38.6075 25.94 37.8437 25.94V27.94C38.1999 27.94 38.4329 28.0361 38.6096 28.1849L39.8978 26.6551ZM37.8437 25.94C36.9255 25.94 36.0346 26.1831 35.4318 26.8924L36.9556 28.1876C37.0328 28.0969 37.242 27.94 37.8437 27.94V25.94ZM35.4318 26.8924C34.9536 27.455 34.6837 28.1199 34.6837 28.86H36.6837C36.6837 28.6401 36.7539 28.425 36.9557 28.1876L35.4318 26.8924ZM34.6837 28.86V30.66H36.6837V28.86H34.6837ZM35.7488 31.6579L39.8888 31.3879L39.7586 29.3921L35.6186 29.6621L35.7488 31.6579ZM40.8237 30.39V28.8H38.8237V30.39H40.8237ZM85.0011 23.97V22.97H84.0011V23.97H85.0011ZM88.1211 23.97L88.8804 23.3192L88.5811 22.97H88.1211V23.97ZM88.3011 24.18L87.5419 24.8308L88.0309 25.4013L88.7149 25.0904L88.3011 24.18ZM89.2911 23.88L89.0787 22.9028L89.0695 22.9049L89.2911 23.88ZM94.8411 25.35L94.0937 26.0144L94.1006 26.022L94.8411 25.35ZM94.7811 37.92L95.4665 38.6482L95.474 38.6411L94.7811 37.92ZM89.5011 39.27L89.7107 38.2922L89.6768 38.2849L89.6426 38.2801L89.5011 39.27ZM88.7811 39.09L89.1525 38.1615L89.1112 38.145L89.0685 38.1322L88.7811 39.09ZM88.3011 38.94L88.6174 37.9913L87.3011 37.5526V38.94H88.3011ZM88.3011 44.64L88.4972 45.6206L89.3011 45.4598V44.64H88.3011ZM85.0011 45.3H84.0011V46.5198L85.1972 46.2806L85.0011 45.3ZM92.4711 27.6L91.6939 28.2292L91.7027 28.2401L91.7119 28.2508L92.4711 27.6ZM88.9011 27.6L89.6082 28.3071L89.6169 28.2985L89.6253 28.2897L88.9011 27.6ZM88.8111 35.31L87.9842 35.8723L87.9918 35.8834L87.9996 35.8943L88.8111 35.31ZM92.5611 35.34L91.7131 34.81L91.7131 34.81L92.5611 35.34ZM85.0011 24.97H88.1211V22.97H85.0011V24.97ZM87.3619 24.6208L87.5419 24.8308L89.0604 23.5292L88.8804 23.3192L87.3619 24.6208ZM88.7149 25.0904C88.8413 25.0329 89.0925 24.9506 89.5128 24.8551L89.0695 22.9049C88.6098 23.0094 88.2009 23.1271 87.8873 23.2696L88.7149 25.0904ZM89.5036 24.8572C89.902 24.7706 90.2705 24.73 90.6111 24.73V22.73C90.1117 22.73 89.6002 22.7894 89.0787 22.9028L89.5036 24.8572ZM90.6111 24.73C92.2729 24.73 93.3747 25.2055 94.0937 26.0144L95.5885 24.6856C94.3875 23.3345 92.6693 22.73 90.6111 22.73V24.73ZM94.1006 26.022C94.8844 26.8858 95.3111 28.0312 95.3111 29.55H97.3111C97.3111 27.6288 96.7579 25.9742 95.5817 24.678L94.1006 26.022ZM95.3111 29.55V33.72H97.3111V29.55H95.3111ZM95.3111 33.72C95.3111 35.35 94.8598 36.4576 94.0883 37.1989L95.474 38.6411C96.7425 37.4224 97.3111 35.73 97.3111 33.72H95.3111ZM94.0958 37.1918C93.2971 37.9435 92.2103 38.36 90.7311 38.36V40.36C92.612 40.36 94.2252 39.8165 95.4665 38.6482L94.0958 37.1918ZM90.7311 38.36C90.2113 38.36 89.8857 38.3297 89.7107 38.2922L89.2916 40.2478C89.6765 40.3303 90.171 40.36 90.7311 40.36V38.36ZM89.6426 38.2801C89.4184 38.248 89.2597 38.2044 89.1525 38.1615L88.4097 40.0185C88.7025 40.1356 89.0239 40.212 89.3597 40.2599L89.6426 38.2801ZM89.0685 38.1322C88.8728 38.0735 88.7237 38.0267 88.6174 37.9913L87.9849 39.8887C88.1186 39.9333 88.2894 39.9865 88.4938 40.0478L89.0685 38.1322ZM87.3011 38.94V44.64H89.3011V38.94H87.3011ZM88.105 43.6594L84.805 44.3194L85.1972 46.2806L88.4972 45.6206L88.105 43.6594ZM86.0011 45.3V23.97H84.0011V45.3H86.0011ZM94.0111 29.43C94.0111 28.4957 93.8024 27.6165 93.2304 26.9492L91.7119 28.2508C91.8599 28.4235 92.0111 28.7643 92.0111 29.43H94.0111ZM93.2484 26.9708C92.6371 26.2157 91.6939 25.97 90.7311 25.97V27.97C91.4083 27.97 91.6252 28.1443 91.6939 28.2292L93.2484 26.9708ZM90.7311 25.97C89.7528 25.97 88.8328 26.2218 88.177 26.9103L89.6253 28.2897C89.7695 28.1382 90.0694 27.97 90.7311 27.97V25.97ZM88.194 26.8929C87.5589 27.5281 87.3011 28.3707 87.3011 29.28H89.3011C89.3011 28.7493 89.4434 28.4719 89.6082 28.3071L88.194 26.8929ZM87.3011 29.28V33.36H89.3011V29.28H87.3011ZM87.3011 33.36C87.3011 34.2967 87.5002 35.1606 87.9842 35.8723L89.6381 34.7477C89.442 34.4594 89.3011 34.0233 89.3011 33.36H87.3011ZM87.9996 35.8943C88.6271 36.7658 89.6554 37.06 90.7311 37.06V35.06C89.9668 35.06 89.7152 34.8542 89.6227 34.7257L87.9996 35.8943ZM90.7311 37.06C91.7727 37.06 92.8332 36.7915 93.4091 35.87L91.7131 34.81C91.6891 34.8485 91.5295 35.06 90.7311 35.06V37.06ZM93.4091 35.87C93.8661 35.1388 94.0111 34.096 94.0111 32.94H92.0111C92.0111 34.024 91.8561 34.5812 91.7131 34.81L93.4091 35.87ZM94.0111 32.94V29.43H92.0111V32.94H94.0111ZM125.145 39L125.247 39.9949L126.145 39.9033V39H125.145ZM115.455 38.16L115.988 37.3135L115.455 38.16ZM115.665 27.45L115.229 26.5502L115.223 26.553L115.665 27.45ZM120.105 27.27L120.373 26.3065L120.373 26.3065L120.105 27.27ZM121.845 27.93L121.366 28.8079L122.845 29.6145V27.93H121.845ZM120.945 26.43L120.522 27.3362L120.535 27.342L120.548 27.3476L120.945 26.43ZM118.635 26.01L117.642 25.8924L117.51 27.01H118.635V26.01ZM118.905 23.73V22.73H118.017L117.912 23.6124L118.905 23.73ZM123.135 24.66L122.568 25.4835L122.578 25.4907L122.589 25.4976L123.135 24.66ZM124.815 26.82L123.843 27.0516L123.845 27.0625L123.848 27.0734L124.815 26.82ZM121.845 31.44H122.845V30.9287L122.431 30.6293L121.845 31.44ZM120.315 30.72L119.964 31.6563L119.982 31.6628L119.999 31.6687L120.315 30.72ZM117.375 30.72L116.751 29.9391L116.751 29.9391L117.375 30.72ZM121.845 36.09L122.034 37.072L122.845 36.916V36.09H121.845ZM125.044 38.0051C122.887 38.2249 121.37 38.33 120.465 38.33V40.33C121.48 40.33 123.084 40.2151 125.247 39.9949L125.044 38.0051ZM120.465 38.33C118.476 38.33 117.013 37.9587 115.988 37.3135L114.923 39.0065C116.377 39.9213 118.254 40.33 120.465 40.33V38.33ZM115.988 37.3135C115.146 36.7838 114.595 35.775 114.595 33.93H112.595C112.595 36.165 113.285 37.9762 114.923 39.0065L115.988 37.3135ZM114.595 33.93V31.44H112.595V33.93H114.595ZM114.595 31.44C114.595 29.711 115.172 28.808 116.107 28.347L115.223 26.553C113.399 27.452 112.595 29.209 112.595 31.44H114.595ZM116.102 28.3498C116.607 28.1047 117.204 27.97 117.915 27.97V25.97C116.946 25.97 116.044 26.1553 115.229 26.5502L116.102 28.3498ZM117.915 27.97C118.564 27.97 119.204 28.0575 119.838 28.2335L120.373 26.3065C119.567 26.0825 118.747 25.97 117.915 25.97V27.97ZM119.838 28.2335C120.516 28.422 121.017 28.6175 121.366 28.8079L122.324 27.0521C121.793 26.7625 121.134 26.518 120.373 26.3065L119.838 28.2335ZM122.845 27.93C122.845 27.4269 122.743 26.9276 122.478 26.4855C122.208 26.035 121.81 25.715 121.343 25.5124L120.548 27.3476C120.68 27.405 120.733 27.465 120.763 27.5145C120.798 27.5724 120.845 27.6931 120.845 27.93H122.845ZM121.368 25.5238C120.592 25.1617 119.664 25.01 118.635 25.01V27.01C119.486 27.01 120.098 27.1383 120.522 27.3362L121.368 25.5238ZM119.628 26.1276L119.898 23.8476L117.912 23.6124L117.642 25.8924L119.628 26.1276ZM118.905 24.73C120.758 24.73 121.919 25.0366 122.568 25.4835L123.703 23.8365C122.551 23.0434 120.893 22.73 118.905 22.73V24.73ZM122.589 25.4976C123.355 25.9973 123.717 26.5234 123.843 27.0516L125.788 26.5884C125.514 25.4366 124.755 24.5227 123.682 23.8224L122.589 25.4976ZM123.848 27.0734C124.038 27.7997 124.145 28.7861 124.145 30.06H126.145C126.145 28.6939 126.033 27.5203 125.783 26.5666L123.848 27.0734ZM124.145 30.06V39H126.145V30.06H124.145ZM122.431 30.6293C121.956 30.2862 121.34 30.0074 120.632 29.7713L119.999 31.6687C120.611 31.8726 121.015 32.0738 121.26 32.2507L122.431 30.6293ZM120.666 29.7837C119.943 29.5123 119.232 29.36 118.545 29.36V31.36C118.938 31.36 119.408 31.4477 119.964 31.6563L120.666 29.7837ZM118.545 29.36C117.896 29.36 117.268 29.5249 116.751 29.9391L118 31.5009C118.082 31.4351 118.234 31.36 118.545 31.36V29.36ZM116.751 29.9391C116.137 30.4305 115.925 31.1507 115.925 31.86H117.925C117.925 31.6928 117.95 31.5982 117.968 31.5522C117.983 31.5137 117.995 31.505 118 31.5009L116.751 29.9391ZM115.925 31.86V33.51H117.925V31.86H115.925ZM115.925 33.51C115.925 34.6203 116.259 35.6213 117.08 36.3193C117.87 36.9908 118.947 37.24 120.135 37.24V35.24C119.183 35.24 118.656 35.0342 118.376 34.7957C118.126 34.5837 117.925 34.2197 117.925 33.51H115.925ZM120.135 37.24C120.808 37.24 121.442 37.1858 122.034 37.072L121.657 35.108C121.208 35.1942 120.702 35.24 120.135 35.24V37.24ZM122.845 36.09V31.44H120.845V36.09H122.845ZM143.056 23.97V22.97H142.056V23.97H143.056ZM146.116 23.97L146.563 23.0756L146.352 22.97H146.116V23.97ZM146.356 24.09L145.908 24.9844L146.283 25.1716L146.679 25.0363L146.356 24.09ZM150.856 23.97L150.652 24.949L150.659 24.9506L150.856 23.97ZM151.456 24.09L152.427 24.3261L152.673 23.3137L151.652 23.1094L151.456 24.09ZM150.676 27.3L150.228 28.1944L151.351 28.7557L151.647 27.5361L150.676 27.3ZM147.136 27.57L147.782 28.3334L147.79 28.3263L147.798 28.319L147.136 27.57ZM146.356 39V40H147.356V39H146.356ZM143.056 39H142.056V40H143.056V39ZM143.056 24.97H146.116V22.97H143.056V24.97ZM145.668 24.8644L145.908 24.9844L146.803 23.1956L146.563 23.0756L145.668 24.8644ZM146.679 25.0363C147.415 24.7849 148.075 24.67 148.666 24.67V22.67C147.816 22.67 146.936 22.8351 146.032 23.1437L146.679 25.0363ZM148.666 24.67C149.06 24.67 149.708 24.7523 150.652 24.949L151.06 22.991C150.083 22.7877 149.272 22.67 148.666 22.67V24.67ZM150.659 24.9506L151.259 25.0706L151.652 23.1094L151.052 22.9894L150.659 24.9506ZM150.484 23.8539L149.704 27.0639L151.647 27.5361L152.427 24.3261L150.484 23.8539ZM151.123 26.4056C150.446 26.0672 149.744 25.88 149.026 25.88V27.88C149.387 27.88 149.785 27.9728 150.228 28.1944L151.123 26.4056ZM149.026 25.88C148.059 25.88 147.189 26.188 146.473 26.821L147.798 28.319C148.123 28.032 148.512 27.88 149.026 27.88V25.88ZM146.49 26.8066C145.724 27.4545 145.356 28.3346 145.356 29.34H147.356C147.356 28.8654 147.507 28.5655 147.782 28.3334L146.49 26.8066ZM145.356 29.34V39H147.356V29.34H145.356ZM146.356 38H143.056V40H146.356V38ZM144.056 39V23.97H142.056V39H144.056ZM172.594 39.39L172.574 40.3898L173.282 40.4038L173.53 39.7411L172.594 39.39ZM168.034 18V17H167.034V18H168.034ZM171.394 18H172.394V17H171.394V18ZM171.394 23.97H170.394V24.97H171.394V23.97ZM174.244 23.97L175.218 24.1969L175.504 22.97H174.244V23.97ZM173.524 27.06V28.06H174.318L174.498 27.2869L173.524 27.06ZM171.394 27.06V26.06H170.394V27.06H171.394ZM171.964 36.42L171.43 37.2655L171.446 37.2758L171.463 37.2854L171.964 36.42ZM173.584 36.75L174.52 37.1011L175.027 35.75H173.584V36.75ZM172.614 38.3902C171.233 38.3629 170.376 38.0225 169.864 37.5339C169.364 37.0569 169.034 36.2863 169.034 35.04H167.034C167.034 36.6337 167.464 38.0081 168.484 38.9811C169.491 39.9425 170.915 40.3571 172.574 40.3898L172.614 38.3902ZM169.034 35.04V18H167.034V35.04H169.034ZM168.034 19H171.394V17H168.034V19ZM170.394 18V23.97H172.394V18H170.394ZM171.394 24.97H174.244V22.97H171.394V24.97ZM173.27 23.7431L172.55 26.8331L174.498 27.2869L175.218 24.1969L173.27 23.7431ZM173.524 26.06H171.394V28.06H173.524V26.06ZM170.394 27.06V35.04H172.394V27.06H170.394ZM170.394 35.04C170.394 35.8756 170.631 36.7606 171.43 37.2655L172.498 35.5745C172.495 35.5726 172.493 35.5712 172.49 35.5673C172.486 35.5627 172.475 35.5474 172.461 35.5132C172.43 35.4399 172.394 35.294 172.394 35.04H170.394ZM171.463 37.2854C172.06 37.6312 172.802 37.75 173.584 37.75V35.75C172.965 35.75 172.628 35.6488 172.465 35.5546L171.463 37.2854ZM172.648 36.3989L171.658 39.0389L173.53 39.7411L174.52 37.1011L172.648 36.3989ZM225.446 37.65L224.679 37.0084L224.679 37.0084L225.446 37.65ZM217.046 37.65L216.28 38.2929L216.286 38.3003L216.292 38.3075L217.046 37.65ZM217.076 25.17L216.355 24.4772L216.355 24.4775L217.076 25.17ZM225.356 25.23L224.622 25.9089L224.628 25.9158L225.356 25.23ZM222.896 27.45L223.484 26.6413L223.484 26.6413L222.896 27.45ZM219.596 35.52L218.963 36.294L219.596 35.52ZM222.896 35.49L222.242 34.7332L222.234 34.7407L222.225 34.7485L222.896 35.49ZM225.826 33.48C225.826 34.9677 225.423 36.1183 224.679 37.0084L226.213 38.2916C227.309 36.9817 227.826 35.3523 227.826 33.48H225.826ZM224.679 37.0084C224.002 37.8176 222.934 38.3 221.276 38.3V40.3C223.338 40.3 225.05 39.6824 226.213 38.2916L224.679 37.0084ZM221.276 38.3C219.62 38.3 218.52 37.8182 217.799 36.9925L216.292 38.3075C217.492 39.6818 219.212 40.3 221.276 40.3V38.3ZM217.812 37.0071C217.043 36.0915 216.636 34.9386 216.636 33.48H214.636C214.636 35.3414 215.168 36.9685 216.28 38.2929L217.812 37.0071ZM216.636 33.48V29.52H214.636V33.48H216.636ZM216.636 29.52C216.636 27.7809 217.074 26.6163 217.797 25.8625L216.355 24.4775C215.158 25.7237 214.636 27.4591 214.636 29.52H216.636ZM217.797 25.8628C218.538 25.0913 219.646 24.64 221.276 24.64V22.64C219.266 22.64 217.574 23.2087 216.355 24.4772L217.797 25.8628ZM221.276 24.64C222.799 24.64 223.869 25.095 224.622 25.9089L226.09 24.5511C224.883 23.245 223.233 22.64 221.276 22.64V24.64ZM224.628 25.9158C225.389 26.7234 225.826 27.8824 225.826 29.52H227.826C227.826 27.5176 227.283 25.8166 226.084 24.5442L224.628 25.9158ZM225.826 29.52V33.48H227.826V29.52H225.826ZM224.556 29.52C224.556 28.4206 224.347 27.269 223.484 26.6413L222.308 28.2587C222.325 28.271 222.556 28.4994 222.556 29.52H224.556ZM223.484 26.6413C222.844 26.1761 222.089 25.97 221.276 25.97V27.97C221.743 27.97 222.067 28.0839 222.308 28.2587L223.484 26.6413ZM221.276 25.97C220.319 25.97 219.423 26.2348 218.784 26.9314C218.16 27.6117 217.936 28.5361 217.936 29.52H219.936C219.936 28.8039 220.102 28.4533 220.258 28.2836C220.398 28.1302 220.673 27.97 221.276 27.97V25.97ZM217.936 29.52V33.78H219.936V29.52H217.936ZM217.936 33.78C217.936 34.7521 218.207 35.6757 218.963 36.294L220.229 34.746C220.105 34.6443 219.936 34.4079 219.936 33.78H217.936ZM218.963 36.294C219.615 36.8274 220.412 37.06 221.276 37.06V35.06C220.78 35.06 220.457 34.9326 220.229 34.746L218.963 36.294ZM221.276 37.06C222.14 37.06 222.933 36.805 223.567 36.2315L222.225 34.7485C222.019 34.935 221.732 35.06 221.276 35.06V37.06ZM223.55 36.2468C224.272 35.6224 224.556 34.7355 224.556 33.78H222.556C222.556 34.3445 222.399 34.5976 222.242 34.7332L223.55 36.2468ZM224.556 33.78V29.52H222.556V33.78H224.556ZM246.723 18.78L247.35 19.5593L247.36 19.551L246.723 18.78ZM251.583 17.79L252.567 17.9672L252.741 17.0018L251.779 16.8094L251.583 17.79ZM251.043 20.79L250.658 21.7131L251.807 22.1916L252.027 20.9672L251.043 20.79ZM249.153 21.06L248.494 20.3074L248.482 20.318L248.471 20.3289L249.153 21.06ZM248.703 23.97H247.703V24.97H248.703V23.97ZM251.313 23.97L252.287 24.1969L252.573 22.97H251.313V23.97ZM250.593 27.06V28.06H251.387L251.567 27.2869L250.593 27.06ZM248.703 27.06V26.06H247.703V27.06H248.703ZM248.703 39V40H249.703V39H248.703ZM245.343 39H244.343V40H245.343V39ZM246.343 22.53C246.343 20.9203 246.763 20.0309 247.35 19.5592L246.096 18.0008C244.843 19.0091 244.343 20.6197 244.343 22.53H246.343ZM247.36 19.551C248.079 18.9573 248.975 18.64 250.113 18.64V16.64C248.571 16.64 247.207 17.0827 246.086 18.009L247.36 19.551ZM250.113 18.64C250.523 18.64 250.947 18.6827 251.387 18.7706L251.779 16.8094C251.218 16.6973 250.663 16.64 250.113 16.64V18.64ZM250.599 17.6128L250.059 20.6128L252.027 20.9672L252.567 17.9672L250.599 17.6128ZM251.428 19.8669C251.066 19.7161 250.685 19.64 250.293 19.64V21.64C250.421 21.64 250.54 21.6639 250.658 21.7131L251.428 19.8669ZM250.293 19.64C249.62 19.64 249.004 19.8619 248.494 20.3074L249.811 21.8126C249.942 21.6981 250.086 21.64 250.293 21.64V19.64ZM248.471 20.3289C247.864 20.8953 247.703 21.7378 247.703 22.53H249.703C249.703 22.2456 249.734 22.0528 249.772 21.9302C249.808 21.8116 249.842 21.7851 249.835 21.7911L248.471 20.3289ZM247.703 22.53V23.97H249.703V22.53H247.703ZM248.703 24.97H251.313V22.97H248.703V24.97ZM250.339 23.7431L249.619 26.8331L251.567 27.2869L252.287 24.1969L250.339 23.7431ZM250.593 26.06H248.703V28.06H250.593V26.06ZM247.703 27.06V39H249.703V27.06H247.703ZM248.703 38H245.343V40H248.703V38ZM246.343 39V22.53H244.343V39H246.343ZM296.988 39.39L296.969 40.3898L297.676 40.4038L297.925 39.7411L296.988 39.39ZM292.428 18V17H291.428V18H292.428ZM295.788 18H296.788V17H295.788V18ZM295.788 23.97H294.788V24.97H295.788V23.97ZM298.638 23.97L299.612 24.1969L299.898 22.97H298.638V23.97ZM297.918 27.06V28.06H298.712L298.892 27.2869L297.918 27.06ZM295.788 27.06V26.06H294.788V27.06H295.788ZM296.358 36.42L295.824 37.2655L295.841 37.2758L295.857 37.2854L296.358 36.42ZM297.978 36.75L298.915 37.1011L299.421 35.75H297.978V36.75ZM297.008 38.3902C295.628 38.3629 294.771 38.0225 294.259 37.5339C293.759 37.0569 293.428 36.2863 293.428 35.04H291.428C291.428 36.6337 291.858 38.0081 292.878 38.9811C293.886 39.9425 295.309 40.3571 296.969 40.3898L297.008 38.3902ZM293.428 35.04V18H291.428V35.04H293.428ZM292.428 19H295.788V17H292.428V19ZM294.788 18V23.97H296.788V18H294.788ZM295.788 24.97H298.638V22.97H295.788V24.97ZM297.664 23.7431L296.944 26.8331L298.892 27.2869L299.612 24.1969L297.664 23.7431ZM297.918 26.06H295.788V28.06H297.918V26.06ZM294.788 27.06V35.04H296.788V27.06H294.788ZM294.788 35.04C294.788 35.8756 295.025 36.7606 295.824 37.2655L296.892 35.5745C296.889 35.5726 296.888 35.5712 296.884 35.5673C296.881 35.5627 296.869 35.5474 296.855 35.5132C296.825 35.4399 296.788 35.294 296.788 35.04H294.788ZM295.857 37.2854C296.455 37.6312 297.197 37.75 297.978 37.75V35.75C297.36 35.75 297.022 35.6488 296.859 35.5546L295.857 37.2854ZM297.042 36.3989L296.052 39.0389L297.925 39.7411L298.915 37.1011L297.042 36.3989ZM323.311 27.48L322.604 28.1871L322.611 28.1946L322.619 28.202L323.311 27.48ZM320.431 26.97L320.698 27.9335L320.723 27.9267L320.747 27.9187L320.431 26.97ZM319.561 27.33L319.024 26.4863L318.561 26.7811V27.33H319.561ZM319.561 39V40H320.561V39H319.561ZM316.261 39H315.261V40H316.261V39ZM316.261 18V17H315.261V18H316.261ZM319.561 18H320.561V17H319.561V18ZM319.561 24.09H318.561V25.5282L319.909 25.0274L319.561 24.09ZM324.781 24.27L324.36 25.1774L324.37 25.1819L324.781 24.27ZM326.641 25.89L325.788 26.4114L325.793 26.42L325.798 26.4284L326.641 25.89ZM327.331 39V40H328.331V39H327.331ZM324.031 39H323.031V40H324.031V39ZM325.031 29.79C325.031 28.6012 324.773 27.4959 324.003 26.758L322.619 28.202C322.809 28.3841 323.031 28.8188 323.031 29.79H325.031ZM324.018 26.7729C323.35 26.1045 322.495 25.79 321.541 25.79V27.79C322.027 27.79 322.352 27.9355 322.604 28.1871L324.018 26.7729ZM321.541 25.79C321.053 25.79 320.577 25.8673 320.115 26.0213L320.747 27.9187C321.005 27.8327 321.268 27.79 321.541 27.79V25.79ZM320.163 26.0065C319.745 26.1225 319.355 26.2758 319.024 26.4863L320.098 28.1737C320.207 28.1042 320.396 28.0175 320.698 27.9335L320.163 26.0065ZM318.561 27.33V39H320.561V27.33H318.561ZM319.561 38H316.261V40H319.561V38ZM317.261 39V18H315.261V39H317.261ZM316.261 19H319.561V17H316.261V19ZM318.561 18V24.09H320.561V18H318.561ZM319.909 25.0274C320.475 24.8172 321.163 24.7 321.991 24.7V22.7C320.979 22.7 320.047 22.8428 319.213 23.1526L319.909 25.0274ZM321.991 24.7C322.907 24.7 323.691 24.8669 324.36 25.1773L325.201 23.3627C324.231 22.9131 323.154 22.7 321.991 22.7V24.7ZM324.37 25.1819C324.995 25.4628 325.457 25.8703 325.788 26.4114L327.494 25.3685C326.945 24.4697 326.167 23.7972 325.191 23.3581L324.37 25.1819ZM325.798 26.4284C326.13 26.9474 326.331 27.6566 326.331 28.62H328.331C328.331 27.3834 328.072 26.2726 327.484 25.3516L325.798 26.4284ZM326.331 28.62V39H328.331V28.62H326.331ZM327.331 38H324.031V40H327.331V38ZM325.031 39V29.79H323.031V39H325.031ZM348.966 35.85L348.236 36.5339L348.258 36.5575L348.282 36.5795L348.966 35.85ZM354.036 35.1L354.957 34.7119L354.537 33.7129L353.575 34.2126L354.036 35.1ZM355.236 37.95L355.774 38.7927L356.484 38.3389L356.157 37.5619L355.236 37.95ZM352.776 39L352.523 38.0324L352.776 39ZM346.476 38.28L345.824 39.038L345.833 39.0461L345.843 39.054L346.476 38.28ZM346.686 25.05L346.024 24.3001L346.017 24.3067L346.686 25.05ZM354.576 25.05L353.876 25.7648L353.884 25.7725L353.892 25.78L354.576 25.05ZM355.986 33.3L356.038 34.2986L356.986 34.2492V33.3H355.986ZM348.516 33.69L348.464 32.6914L347.516 32.7408V33.69H348.516ZM352.086 27.42L352.73 26.6551L352.73 26.6551L352.086 27.42ZM349.026 27.54L348.264 26.8924L348.264 26.8924L349.026 27.54ZM348.516 30.66H347.516V31.7273L348.581 31.6579L348.516 30.66ZM352.656 30.39L352.721 31.3879L353.656 31.3269V30.39H352.656ZM347.516 34.53C347.516 35.2711 347.718 35.9814 348.236 36.5339L349.695 35.1661C349.613 35.0786 349.516 34.9089 349.516 34.53H347.516ZM348.282 36.5795C348.846 37.1088 349.586 37.3 350.346 37.3V35.3C349.905 35.3 349.725 35.1912 349.65 35.1205L348.282 36.5795ZM350.346 37.3C351.513 37.3 352.919 36.8068 354.497 35.9874L353.575 34.2126C352.072 34.9932 351.018 35.3 350.346 35.3V37.3ZM353.114 35.4881L354.314 38.3381L356.157 37.5619L354.957 34.7119L353.114 35.4881ZM354.697 37.1073C354.075 37.505 353.353 37.8159 352.523 38.0324L353.028 39.9676C354.038 39.7041 354.957 39.315 355.774 38.7927L354.697 37.1073ZM352.523 38.0324C351.683 38.2516 350.848 38.36 350.016 38.36V40.36C351.024 40.36 352.029 40.2284 353.028 39.9676L352.523 38.0324ZM350.016 38.36C348.696 38.36 347.762 38.0407 347.109 37.506L345.843 39.054C346.949 39.9593 348.375 40.36 350.016 40.36V38.36ZM347.128 37.522C346.549 37.0235 346.186 36.2383 346.186 34.98H344.186C344.186 36.6417 344.683 38.0565 345.824 39.038L347.128 37.522ZM346.186 34.98V28.83H344.186V34.98H346.186ZM346.186 28.83C346.186 27.4305 346.608 26.4653 347.355 25.7933L346.017 24.3067C344.763 25.4347 344.186 26.9895 344.186 28.83H346.186ZM347.347 25.7998C348.147 25.0946 349.233 24.7 350.706 24.7V22.7C348.858 22.7 347.265 23.2053 346.024 24.3002L347.347 25.7998ZM350.706 24.7C352.183 24.7 353.193 25.0963 353.876 25.7648L355.275 24.3352C354.118 23.2037 352.548 22.7 350.706 22.7V24.7ZM353.892 25.78C354.586 26.4293 354.986 27.3692 354.986 28.74H356.986C356.986 26.9508 356.446 25.4307 355.259 24.32L353.892 25.78ZM354.986 28.74V33.3H356.986V28.74H354.986ZM355.934 32.3014L348.464 32.6914L348.568 34.6886L356.038 34.2986L355.934 32.3014ZM347.516 33.69V34.53H349.516V33.69H347.516ZM353.656 28.8C353.656 27.9724 353.382 27.2046 352.73 26.6551L351.442 28.1849C351.549 28.2754 351.656 28.4276 351.656 28.8H353.656ZM352.73 26.6551C352.147 26.1639 351.44 25.94 350.676 25.94V27.94C351.032 27.94 351.265 28.0361 351.442 28.1849L352.73 26.6551ZM350.676 25.94C349.757 25.94 348.867 26.1831 348.264 26.8924L349.788 28.1876C349.865 28.0969 350.074 27.94 350.676 27.94V25.94ZM348.264 26.8924C347.786 27.455 347.516 28.1199 347.516 28.86H349.516C349.516 28.6401 349.586 28.425 349.788 28.1876L348.264 26.8924ZM347.516 28.86V30.66H349.516V28.86H347.516ZM348.581 31.6579L352.721 31.3879L352.591 29.3921L348.451 29.6621L348.581 31.6579ZM353.656 30.39V28.8H351.656V30.39H353.656ZM399.213 18.78L399.84 19.5593L399.85 19.551L399.213 18.78ZM404.073 17.79L405.057 17.9672L405.231 17.0018L404.269 16.8094L404.073 17.79ZM403.533 20.79L403.149 21.7131L404.297 22.1916L404.517 20.9672L403.533 20.79ZM401.643 21.06L400.985 20.3074L400.973 20.318L400.961 20.3289L401.643 21.06ZM401.193 23.97H400.193V24.97H401.193V23.97ZM403.803 23.97L404.777 24.1969L405.063 22.97H403.803V23.97ZM403.083 27.06V28.06H403.877L404.057 27.2869L403.083 27.06ZM401.193 27.06V26.06H400.193V27.06H401.193ZM401.193 39V40H402.193V39H401.193ZM397.833 39H396.833V40H397.833V39ZM398.833 22.53C398.833 20.9203 399.254 20.0309 399.84 19.5592L398.586 18.0008C397.333 19.0091 396.833 20.6197 396.833 22.53H398.833ZM399.85 19.551C400.569 18.9573 401.465 18.64 402.603 18.64V16.64C401.061 16.64 399.698 17.0827 398.576 18.009L399.85 19.551ZM402.603 18.64C403.013 18.64 403.438 18.6827 403.877 18.7706L404.269 16.8094C403.709 16.6973 403.153 16.64 402.603 16.64V18.64ZM403.089 17.6128L402.549 20.6128L404.517 20.9672L405.057 17.9672L403.089 17.6128ZM403.918 19.8669C403.556 19.7161 403.175 19.64 402.783 19.64V21.64C402.911 21.64 403.03 21.6639 403.149 21.7131L403.918 19.8669ZM402.783 19.64C402.11 19.64 401.494 19.8619 400.985 20.3074L402.302 21.8126C402.433 21.6981 402.576 21.64 402.783 21.64V19.64ZM400.961 20.3289C400.354 20.8953 400.193 21.7378 400.193 22.53H402.193C402.193 22.2456 402.224 22.0528 402.262 21.9302C402.298 21.8116 402.332 21.7851 402.325 21.7911L400.961 20.3289ZM400.193 22.53V23.97H402.193V22.53H400.193ZM401.193 24.97H403.803V22.97H401.193V24.97ZM402.829 23.7431L402.109 26.8331L404.057 27.2869L404.777 24.1969L402.829 23.7431ZM403.083 26.06H401.193V28.06H403.083V26.06ZM400.193 27.06V39H402.193V27.06H400.193ZM401.193 38H397.833V40H401.193V38ZM398.833 39V22.53H396.833V39H398.833ZM429.219 38.82L429.87 38.0607L429.44 37.6923L428.903 37.8713L429.219 38.82ZM428.529 39.09L428.9 40.0185L428.9 40.0185L428.529 39.09ZM421.329 23.97V22.97H420.329V23.97H421.329ZM424.629 23.97H425.629V22.97H424.629V23.97ZM425.109 35.4L424.3 35.9882L424.309 35.9999L424.318 36.0114L425.109 35.4ZM428.769 35.34L429.617 35.87L429.622 35.8623L429.627 35.8545L428.769 35.34ZM429.219 23.97V22.97H428.219V23.97H429.219ZM432.519 23.97H433.519V22.97H432.519V23.97ZM432.519 39V40H433.519V39H432.519ZM429.429 39L428.778 39.7593L429.059 40H429.429V39ZM428.903 37.8713C428.807 37.9033 428.539 38.0091 428.158 38.1615L428.9 40.0185C429.1 39.9388 429.254 39.8774 429.366 39.8337C429.422 39.8119 429.465 39.7951 429.497 39.7831C429.533 39.7693 429.542 39.7665 429.535 39.7687L428.903 37.8713ZM428.158 38.1615C427.919 38.2572 427.538 38.33 426.969 38.33V40.33C427.68 40.33 428.34 40.2428 428.9 40.0185L428.158 38.1615ZM426.969 38.33C425.237 38.33 424.122 37.9082 423.437 37.2409C422.756 36.5785 422.329 35.5089 422.329 33.84H420.329C420.329 35.8311 420.842 37.5065 422.042 38.6741C423.236 39.8368 424.942 40.33 426.969 40.33V38.33ZM422.329 33.84V23.97H420.329V33.84H422.329ZM421.329 24.97H424.629V22.97H421.329V24.97ZM423.629 23.97V33.36H425.629V23.97H423.629ZM423.629 33.36C423.629 34.3597 423.796 35.295 424.3 35.9882L425.918 34.8118C425.782 34.625 425.629 34.2003 425.629 33.36H423.629ZM424.318 36.0114C424.939 36.816 425.951 37.06 426.969 37.06V35.06C426.187 35.06 425.959 34.864 425.9 34.7886L424.318 36.0114ZM426.969 37.06C428.001 37.06 429.045 36.7859 429.617 35.87L427.921 34.81C427.893 34.8541 427.737 35.06 426.969 35.06V37.06ZM429.627 35.8545C430.057 35.1365 430.219 34.2308 430.219 33.24H428.219C428.219 34.0492 428.081 34.5435 427.912 34.8255L429.627 35.8545ZM430.219 33.24V23.97H428.219V33.24H430.219ZM429.219 24.97H432.519V22.97H429.219V24.97ZM431.519 23.97V39H433.519V23.97H431.519ZM432.519 38H429.429V40H432.519V38ZM430.08 38.2407L429.87 38.0607L428.568 39.5793L428.778 39.7593L430.08 38.2407ZM454.547 39.39L454.527 40.3898L455.235 40.4038L455.483 39.7411L454.547 39.39ZM449.987 18V17H448.987V18H449.987ZM453.347 18H454.347V17H453.347V18ZM453.347 23.97H452.347V24.97H453.347V23.97ZM456.197 23.97L457.171 24.1969L457.457 22.97H456.197V23.97ZM455.477 27.06V28.06H456.271L456.451 27.2869L455.477 27.06ZM453.347 27.06V26.06H452.347V27.06H453.347ZM453.917 36.42L453.383 37.2655L453.399 37.2758L453.416 37.2854L453.917 36.42ZM455.537 36.75L456.473 37.1011L456.98 35.75H455.537V36.75ZM454.567 38.3902C453.186 38.3629 452.329 38.0225 451.817 37.5339C451.317 37.0569 450.987 36.2863 450.987 35.04H448.987C448.987 36.6337 449.417 38.0081 450.437 38.9811C451.445 39.9425 452.868 40.3571 454.527 40.3898L454.567 38.3902ZM450.987 35.04V18H448.987V35.04H450.987ZM449.987 19H453.347V17H449.987V19ZM452.347 18V23.97H454.347V18H452.347ZM453.347 24.97H456.197V22.97H453.347V24.97ZM455.223 23.7431L454.503 26.8331L456.451 27.2869L457.171 24.1969L455.223 23.7431ZM455.477 26.06H453.347V28.06H455.477V26.06ZM452.347 27.06V35.04H454.347V27.06H452.347ZM452.347 35.04C452.347 35.8756 452.584 36.7606 453.383 37.2655L454.451 35.5745C454.448 35.5726 454.446 35.5712 454.443 35.5673C454.439 35.5627 454.428 35.5474 454.414 35.5132C454.383 35.4399 454.347 35.294 454.347 35.04H452.347ZM453.416 37.2854C454.013 37.6312 454.756 37.75 455.537 37.75V35.75C454.918 35.75 454.581 35.6488 454.418 35.5546L453.416 37.2854ZM454.601 36.3989L453.611 39.0389L455.483 39.7411L456.473 37.1011L454.601 36.3989ZM480.869 38.82L481.52 38.0607L481.09 37.6923L480.553 37.8713L480.869 38.82ZM480.179 39.09L480.551 40.0185L480.551 40.0185L480.179 39.09ZM472.979 23.97V22.97H471.979V23.97H472.979ZM476.279 23.97H477.279V22.97H476.279V23.97ZM476.759 35.4L475.951 35.9882L475.959 35.9999L475.968 36.0114L476.759 35.4ZM480.419 35.34L481.267 35.87L481.272 35.8623L481.277 35.8545L480.419 35.34ZM480.869 23.97V22.97H479.869V23.97H480.869ZM484.169 23.97H485.169V22.97H484.169V23.97ZM484.169 39V40H485.169V39H484.169ZM481.079 39L480.429 39.7593L480.709 40H481.079V39ZM480.553 37.8713C480.457 37.9033 480.189 38.0091 479.808 38.1615L480.551 40.0185C480.75 39.9388 480.905 39.8774 481.016 39.8337C481.072 39.8119 481.116 39.7951 481.147 39.7831C481.184 39.7693 481.192 39.7665 481.186 39.7687L480.553 37.8713ZM479.808 38.1615C479.569 38.2572 479.188 38.33 478.619 38.33V40.33C479.331 40.33 479.99 40.2428 480.551 40.0185L479.808 38.1615ZM478.619 38.33C476.887 38.33 475.772 37.9082 475.087 37.2409C474.406 36.5785 473.979 35.5089 473.979 33.84H471.979C471.979 35.8311 472.492 37.5065 473.692 38.6741C474.886 39.8368 476.592 40.33 478.619 40.33V38.33ZM473.979 33.84V23.97H471.979V33.84H473.979ZM472.979 24.97H476.279V22.97H472.979V24.97ZM475.279 23.97V33.36H477.279V23.97H475.279ZM475.279 33.36C475.279 34.3597 475.447 35.295 475.951 35.9882L477.568 34.8118C477.432 34.625 477.279 34.2003 477.279 33.36H475.279ZM475.968 36.0114C476.59 36.816 477.601 37.06 478.619 37.06V35.06C477.838 35.06 477.609 34.864 477.551 34.7886L475.968 36.0114ZM478.619 37.06C479.652 37.06 480.695 36.7859 481.267 35.87L479.571 34.81C479.544 34.8541 479.387 35.06 478.619 35.06V37.06ZM481.277 35.8545C481.708 35.1365 481.869 34.2308 481.869 33.24H479.869C479.869 34.0492 479.731 34.5435 479.562 34.8255L481.277 35.8545ZM481.869 33.24V23.97H479.869V33.24H481.869ZM480.869 24.97H484.169V22.97H480.869V24.97ZM483.169 23.97V39H485.169V23.97H483.169ZM484.169 38H481.079V40H484.169V38ZM481.73 38.2407L481.52 38.0607L480.219 39.5793L480.429 39.7593L481.73 38.2407ZM502.147 23.97V22.97H501.147V23.97H502.147ZM505.207 23.97L505.655 23.0756L505.443 22.97H505.207V23.97ZM505.447 24.09L505 24.9844L505.374 25.1716L505.771 25.0363L505.447 24.09ZM509.947 23.97L509.743 24.949L509.751 24.9506L509.947 23.97ZM510.547 24.09L511.519 24.3261L511.765 23.3137L510.744 23.1094L510.547 24.09ZM509.767 27.3L509.32 28.1944L510.443 28.7557L510.739 27.5361L509.767 27.3ZM506.227 27.57L506.873 28.3334L506.882 28.3263L506.89 28.319L506.227 27.57ZM505.447 39V40H506.447V39H505.447ZM502.147 39H501.147V40H502.147V39ZM502.147 24.97H505.207V22.97H502.147V24.97ZM504.76 24.8644L505 24.9844L505.895 23.1956L505.655 23.0756L504.76 24.8644ZM505.771 25.0363C506.507 24.7849 507.167 24.67 507.757 24.67V22.67C506.908 22.67 506.028 22.8351 505.124 23.1437L505.771 25.0363ZM507.757 24.67C508.151 24.67 508.8 24.7523 509.743 24.949L510.151 22.991C509.175 22.7877 508.363 22.67 507.757 22.67V24.67ZM509.751 24.9506L510.351 25.0706L510.744 23.1094L510.144 22.9894L509.751 24.9506ZM509.576 23.8539L508.796 27.0639L510.739 27.5361L511.519 24.3261L509.576 23.8539ZM510.215 26.4056C509.538 26.0672 508.836 25.88 508.117 25.88V27.88C508.479 27.88 508.877 27.9728 509.32 28.1944L510.215 26.4056ZM508.117 25.88C507.151 25.88 506.28 26.188 505.565 26.821L506.89 28.319C507.214 28.032 507.604 27.88 508.117 27.88V25.88ZM505.581 26.8066C504.816 27.4545 504.447 28.3346 504.447 29.34H506.447C506.447 28.8654 506.599 28.5655 506.873 28.3334L505.581 26.8066ZM504.447 29.34V39H506.447V29.34H504.447ZM505.447 38H502.147V40H505.447V38ZM503.147 39V23.97H501.147V39H503.147ZM530.108 35.85L529.379 36.5339L529.401 36.5575L529.424 36.5795L530.108 35.85ZM535.178 35.1L536.1 34.7119L535.679 33.7129L534.717 34.2126L535.178 35.1ZM536.378 37.95L536.917 38.7927L537.627 38.3389L537.3 37.5619L536.378 37.95ZM533.918 39L533.666 38.0324L533.918 39ZM527.618 38.28L526.966 39.038L526.975 39.0461L526.985 39.054L527.618 38.28ZM527.828 25.05L527.167 24.3001L527.159 24.3067L527.828 25.05ZM535.718 25.05L535.019 25.7648L535.027 25.7725L535.035 25.78L535.718 25.05ZM537.128 33.3L537.18 34.2986L538.128 34.2492V33.3H537.128ZM529.658 33.69L529.606 32.6914L528.658 32.7408V33.69H529.658ZM533.228 27.42L533.872 26.6551L533.872 26.6551L533.228 27.42ZM530.168 27.54L529.406 26.8924L529.406 26.8924L530.168 27.54ZM529.658 30.66H528.658V31.7273L529.723 31.6579L529.658 30.66ZM533.798 30.39L533.863 31.3879L534.798 31.3269V30.39H533.798ZM528.658 34.53C528.658 35.2711 528.861 35.9814 529.379 36.5339L530.838 35.1661C530.756 35.0786 530.658 34.9089 530.658 34.53H528.658ZM529.424 36.5795C529.989 37.1088 530.729 37.3 531.488 37.3V35.3C531.048 35.3 530.868 35.1912 530.792 35.1205L529.424 36.5795ZM531.488 37.3C532.656 37.3 534.062 36.8068 535.639 35.9874L534.717 34.2126C533.215 34.9932 532.161 35.3 531.488 35.3V37.3ZM534.257 35.4881L535.457 38.3381L537.3 37.5619L536.1 34.7119L534.257 35.4881ZM535.84 37.1073C535.217 37.505 534.496 37.8159 533.666 38.0324L534.171 39.9676C535.181 39.7041 536.099 39.315 536.917 38.7927L535.84 37.1073ZM533.666 38.0324C532.826 38.2516 531.99 38.36 531.158 38.36V40.36C532.166 40.36 533.171 40.2284 534.171 39.9676L533.666 38.0324ZM531.158 38.36C529.839 38.36 528.905 38.0407 528.252 37.506L526.985 39.054C528.092 39.9593 529.518 40.36 531.158 40.36V38.36ZM528.271 37.522C527.691 37.0235 527.328 36.2383 527.328 34.98H525.328C525.328 36.6417 525.825 38.0565 526.966 39.038L528.271 37.522ZM527.328 34.98V28.83H525.328V34.98H527.328ZM527.328 28.83C527.328 27.4305 527.751 26.4653 528.497 25.7933L527.159 24.3067C525.906 25.4347 525.328 26.9895 525.328 28.83H527.328ZM528.49 25.7998C529.289 25.0946 530.376 24.7 531.848 24.7V22.7C530.001 22.7 528.407 23.2053 527.167 24.3002L528.49 25.7998ZM531.848 24.7C533.326 24.7 534.336 25.0963 535.019 25.7648L536.418 24.3352C535.261 23.2037 533.691 22.7 531.848 22.7V24.7ZM535.035 25.78C535.728 26.4293 536.128 27.3692 536.128 28.74H538.128C538.128 26.9508 537.588 25.4307 536.402 24.32L535.035 25.78ZM536.128 28.74V33.3H538.128V28.74H536.128ZM537.076 32.3014L529.606 32.6914L529.71 34.6886L537.18 34.2986L537.076 32.3014ZM528.658 33.69V34.53H530.658V33.69H528.658ZM534.798 28.8C534.798 27.9724 534.525 27.2046 533.872 26.6551L532.584 28.1849C532.692 28.2754 532.798 28.4276 532.798 28.8H534.798ZM533.872 26.6551C533.289 26.1639 532.582 25.94 531.818 25.94V27.94C532.175 27.94 532.407 28.0361 532.584 28.1849L533.872 26.6551ZM531.818 25.94C530.9 25.94 530.009 26.1831 529.406 26.8924L530.93 28.1876C531.007 28.0969 531.217 27.94 531.818 27.94V25.94ZM529.406 26.8924C528.928 27.455 528.658 28.1199 528.658 28.86H530.658C530.658 28.6401 530.728 28.425 530.93 28.1876L529.406 26.8924ZM528.658 28.86V30.66H530.658V28.86H528.658ZM529.723 31.6579L533.863 31.3879L533.733 29.3921L529.593 29.6621L529.723 31.6579ZM534.798 30.39V28.8H532.798V30.39H534.798ZM203.556 78.72V77.72H202.209L202.599 79.0094L203.556 78.72ZM205.146 78.12L204.457 77.395L204.439 77.4127L204.421 77.4313L205.146 78.12ZM205.746 74.76H206.746V72.76L205.146 73.96L205.746 74.76ZM204.876 75.15L204.56 74.2013L204.553 74.2037L204.546 74.2061L204.876 75.15ZM199.206 73.92L198.506 74.6344L199.206 73.92ZM199.266 61.17L199.951 61.8982L199.952 61.8978L199.266 61.17ZM204.936 59.91L204.633 60.8629L204.653 60.8693L204.673 60.8748L204.936 59.91ZM205.776 60.3L205.017 60.9508L205.535 61.5552L206.24 61.1858L205.776 60.3ZM206.406 59.97V58.97H206.16L205.942 59.0842L206.406 59.97ZM209.046 59.97H210.046V58.97H209.046V59.97ZM204.336 81.3L203.379 81.5894L203.594 82.3H204.336V81.3ZM201.546 63.69L200.746 63.09L200.742 63.0956L201.546 63.69ZM205.266 71.22L206.16 71.6672L206.16 71.6672L205.266 71.22ZM203.556 79.72C204.442 79.72 205.26 79.452 205.871 78.8087L204.421 77.4313C204.272 77.588 204.03 77.72 203.556 77.72V79.72ZM205.835 78.845C206.504 78.2091 206.746 77.3185 206.746 76.38H204.746C204.746 77.0015 204.588 77.2709 204.457 77.395L205.835 78.845ZM206.746 76.38V74.76H204.746V76.38H206.746ZM205.146 73.96C205.149 73.9574 205.111 73.9848 204.999 74.035C204.894 74.0823 204.749 74.1381 204.56 74.2013L205.192 76.0987C205.621 75.9558 206.046 75.7847 206.346 75.56L205.146 73.96ZM204.546 74.2061C204.291 74.2951 203.895 74.36 203.316 74.36V76.36C204.017 76.36 204.661 76.2849 205.206 76.0939L204.546 74.2061ZM203.316 74.36C201.74 74.36 200.65 73.9348 199.906 73.2056L198.506 74.6344C199.722 75.8252 201.372 76.36 203.316 76.36V74.36ZM199.906 73.2056C199.176 72.4911 198.736 71.3861 198.736 69.72H196.736C196.736 71.7339 197.276 73.4289 198.506 74.6344L199.906 73.2056ZM198.736 69.72V65.25H196.736V69.72H198.736ZM198.736 65.25C198.736 63.6904 199.181 62.6232 199.951 61.8982L198.581 60.4418C197.311 61.6368 196.736 63.2896 196.736 65.25H198.736ZM199.952 61.8978C200.768 61.129 201.892 60.7 203.436 60.7V58.7C201.5 58.7 199.844 59.251 198.58 60.4422L199.952 61.8978ZM203.436 60.7C203.914 60.7 204.309 60.7599 204.633 60.8629L205.239 58.9571C204.683 58.7801 204.078 58.7 203.436 58.7V60.7ZM204.673 60.8748C204.862 60.9263 204.984 60.9714 205.055 61.0045C205.089 61.0205 205.101 61.0285 205.097 61.0257C205.094 61.0238 205.06 61.001 205.017 60.9508L206.535 59.6492C206.34 59.4211 206.091 59.2804 205.897 59.1905C205.688 59.0936 205.45 59.0137 205.199 58.9452L204.673 60.8748ZM206.24 61.1858L206.87 60.8558L205.942 59.0842L205.312 59.4142L206.24 61.1858ZM206.406 60.97H209.046V58.97H206.406V60.97ZM208.046 59.97V76.92H210.046V59.97H208.046ZM208.046 76.92C208.046 78.2065 207.704 78.9928 207.187 79.4727C206.658 79.9653 205.769 80.3 204.336 80.3V82.3C206.043 82.3 207.509 81.9047 208.549 80.9373C209.603 79.9572 210.046 78.5535 210.046 76.92H208.046ZM205.293 81.0106L204.513 78.4306L202.599 79.0094L203.379 81.5894L205.293 81.0106ZM206.746 65.55C206.746 64.6082 206.534 63.7346 205.993 63.0437L204.418 64.2763C204.598 64.5054 204.746 64.8918 204.746 65.55H206.746ZM205.993 63.0437C205.36 62.2338 204.354 61.97 203.316 61.97V63.97C204.078 63.97 204.332 64.1662 204.418 64.2763L205.993 63.0437ZM203.316 61.97C202.305 61.97 201.359 62.2732 200.746 63.09L202.346 64.29C202.453 64.1468 202.687 63.97 203.316 63.97V61.97ZM200.742 63.0956C200.252 63.7584 200.036 64.5476 200.036 65.4H202.036C202.036 64.8924 202.16 64.5416 202.35 64.2844L200.742 63.0956ZM200.036 65.4V69.27H202.036V65.4H200.036ZM200.036 69.27C200.036 70.3433 200.242 71.3325 200.819 72.0692C201.432 72.8524 202.328 73.18 203.316 73.18V71.18C202.784 71.18 202.54 71.0226 202.393 70.8358C202.21 70.6025 202.036 70.1367 202.036 69.27H200.036ZM203.316 73.18C204.513 73.18 205.609 72.7701 206.16 71.6672L204.372 70.7728C204.283 70.9499 204.079 71.18 203.316 71.18V73.18ZM206.16 71.6672C206.591 70.8065 206.746 69.5561 206.746 68.07H204.746C204.746 69.5039 204.581 70.3535 204.372 70.7728L206.16 71.6672ZM206.746 68.07V65.55H204.746V68.07H206.746ZM238.319 75L238.421 75.9949L239.319 75.9033V75H238.319ZM228.629 74.16L229.162 73.3135L228.629 74.16ZM228.839 63.45L228.403 62.5502L228.397 62.553L228.839 63.45ZM233.279 63.27L233.547 62.3065L233.547 62.3065L233.279 63.27ZM235.019 63.93L234.54 64.8079L236.019 65.6145V63.93H235.019ZM234.119 62.43L233.696 63.3362L233.709 63.342L233.722 63.3476L234.119 62.43ZM231.809 62.01L230.816 61.8924L230.684 63.01H231.809V62.01ZM232.079 59.73V58.73H231.191L231.086 59.6124L232.079 59.73ZM236.309 60.66L235.742 61.4835L235.752 61.4907L235.763 61.4976L236.309 60.66ZM237.989 62.82L237.016 63.0516L237.019 63.0625L237.022 63.0734L237.989 62.82ZM235.019 67.44H236.019V66.9287L235.605 66.6293L235.019 67.44ZM233.489 66.72L233.138 67.6563L233.155 67.6628L233.173 67.6687L233.489 66.72ZM230.549 66.72L229.924 65.9391L229.924 65.9391L230.549 66.72ZM235.019 72.09L235.208 73.072L236.019 72.916V72.09H235.019ZM238.218 74.0051C236.06 74.2249 234.544 74.33 233.639 74.33V76.33C234.654 76.33 236.258 76.2151 238.421 75.9949L238.218 74.0051ZM233.639 74.33C231.65 74.33 230.187 73.9587 229.162 73.3135L228.097 75.0065C229.551 75.9213 231.428 76.33 233.639 76.33V74.33ZM229.162 73.3135C228.319 72.7838 227.769 71.775 227.769 69.93H225.769C225.769 72.165 226.459 73.9762 228.097 75.0065L229.162 73.3135ZM227.769 69.93V67.44H225.769V69.93H227.769ZM227.769 67.44C227.769 65.711 228.346 64.808 229.281 64.347L228.397 62.553C226.573 63.452 225.769 65.209 225.769 67.44H227.769ZM229.275 64.3498C229.781 64.1047 230.378 63.97 231.089 63.97V61.97C230.12 61.97 229.217 62.1553 228.403 62.5502L229.275 64.3498ZM231.089 63.97C231.738 63.97 232.378 64.0575 233.012 64.2335L233.547 62.3065C232.741 62.0825 231.921 61.97 231.089 61.97V63.97ZM233.012 64.2335C233.69 64.422 234.191 64.6175 234.54 64.8079L235.498 63.0521C234.967 62.7625 234.308 62.518 233.547 62.3065L233.012 64.2335ZM236.019 63.93C236.019 63.4269 235.917 62.9276 235.652 62.4855C235.381 62.035 234.984 61.715 234.517 61.5124L233.722 63.3476C233.854 63.405 233.907 63.465 233.937 63.5145C233.971 63.5724 234.019 63.6931 234.019 63.93H236.019ZM234.542 61.5238C233.766 61.1617 232.838 61.01 231.809 61.01V63.01C232.66 63.01 233.272 63.1383 233.696 63.3362L234.542 61.5238ZM232.802 62.1276L233.072 59.8476L231.086 59.6124L230.816 61.8924L232.802 62.1276ZM232.079 60.73C233.932 60.73 235.093 61.0366 235.742 61.4835L236.876 59.8365C235.725 59.0434 234.067 58.73 232.079 58.73V60.73ZM235.763 61.4976C236.529 61.9973 236.891 62.5234 237.016 63.0516L238.962 62.5884C238.688 61.4366 237.929 60.5227 236.855 59.8224L235.763 61.4976ZM237.022 63.0734C237.212 63.7997 237.319 64.7861 237.319 66.06H239.319C239.319 64.6939 239.206 63.5203 238.957 62.5666L237.022 63.0734ZM237.319 66.06V75H239.319V66.06H237.319ZM235.605 66.6293C235.13 66.2862 234.514 66.0074 233.805 65.7713L233.173 67.6687C233.785 67.8726 234.189 68.0738 234.434 68.2507L235.605 66.6293ZM233.84 65.7837C233.117 65.5123 232.406 65.36 231.719 65.36V67.36C232.112 67.36 232.582 67.4477 233.138 67.6563L233.84 65.7837ZM231.719 65.36C231.07 65.36 230.442 65.5249 229.924 65.9391L231.174 67.5009C231.256 67.4351 231.408 67.36 231.719 67.36V65.36ZM229.924 65.9391C229.31 66.4305 229.099 67.1507 229.099 67.86H231.099C231.099 67.6928 231.124 67.5982 231.142 67.5522C231.157 67.5137 231.169 67.505 231.174 67.5009L229.924 65.9391ZM229.099 67.86V69.51H231.099V67.86H229.099ZM229.099 69.51C229.099 70.6203 229.433 71.6213 230.254 72.3193C231.043 72.9908 232.121 73.24 233.309 73.24V71.24C232.357 71.24 231.83 71.0342 231.55 70.7957C231.3 70.5837 231.099 70.2197 231.099 69.51H229.099ZM233.309 73.24C233.982 73.24 234.616 73.1858 235.208 73.072L234.83 71.108C234.382 71.1942 233.876 71.24 233.309 71.24V73.24ZM236.019 72.09V67.44H234.019V72.09H236.019ZM271.709 63.54L270.846 64.0439L270.853 64.0571L270.861 64.07L271.709 63.54ZM268.469 63.24L268.132 62.2988L268.11 62.3066L268.089 62.3153L268.469 63.24ZM267.959 63.45L267.579 62.5253L266.716 62.8807L267.011 63.7662L267.959 63.45ZM268.049 63.87L267.057 63.994L267.057 63.994L268.049 63.87ZM268.079 75V76H269.079V75H268.079ZM264.779 75H263.779V76H264.779V75ZM260.039 63.51L259.538 62.6446L259.039 62.9334V63.51H260.039ZM260.039 75V76H261.039V75H260.039ZM256.739 75H255.739V76H256.739V75ZM256.739 59.97V58.97H255.739V59.97H256.739ZM259.649 59.97L260.124 59.0895L259.902 58.97H259.649V59.97ZM260.039 60.18L259.565 61.0605L260.002 61.2955L260.453 61.0904L260.039 60.18ZM264.269 60.09L263.918 61.0263L263.931 61.0312L263.944 61.0357L264.269 60.09ZM265.949 61.17L265.228 61.8625L265.768 62.4253L266.446 62.0382L265.949 61.17ZM267.209 60.51L266.793 59.6007L266.778 59.6079L266.762 59.6156L267.209 60.51ZM274.109 61.02L273.41 61.7351L273.419 61.743L274.109 61.02ZM275.459 75V76H276.459V75H275.459ZM272.159 75H271.159V76H272.159V75ZM273.159 65.88C273.159 64.7556 273.012 63.7375 272.557 63.01L270.861 64.07C271.007 64.3025 271.159 64.8444 271.159 65.88H273.159ZM272.573 63.0361C272.084 62.1971 271.261 61.82 270.329 61.82V63.82C270.678 63.82 270.775 63.9229 270.846 64.0439L272.573 63.0361ZM270.329 61.82C269.697 61.82 268.948 62.0059 268.132 62.2988L268.807 64.1812C269.551 63.9141 270.042 63.82 270.329 63.82V61.82ZM268.089 62.3153L267.579 62.5253L268.34 64.3747L268.85 64.1647L268.089 62.3153ZM267.011 63.7662C267.025 63.8095 267.043 63.8825 267.057 63.994L269.042 63.746C269.016 63.5375 268.974 63.3305 268.908 63.1338L267.011 63.7662ZM267.057 63.994C267.073 64.1189 267.079 64.2271 267.079 64.32H269.079C269.079 64.1329 269.066 63.9411 269.042 63.746L267.057 63.994ZM267.079 64.32V75H269.079V64.32H267.079ZM268.079 74H264.779V76H268.079V74ZM265.779 75V65.97H263.779V75H265.779ZM265.779 65.97C265.779 64.8287 265.517 63.7943 264.851 63.0115L263.328 64.3085C263.581 64.6057 263.779 65.1113 263.779 65.97H265.779ZM264.851 63.0115C264.18 62.2246 263.269 61.85 262.229 61.85V63.85C262.749 63.85 263.079 64.0154 263.328 64.3085L264.851 63.0115ZM262.229 61.85C261.314 61.85 260.412 62.1386 259.538 62.6446L260.54 64.3754C261.186 64.0014 261.745 63.85 262.229 63.85V61.85ZM259.039 63.51V75H261.039V63.51H259.039ZM260.039 74H256.739V76H260.039V74ZM257.739 75V59.97H255.739V75H257.739ZM256.739 60.97H259.649V58.97H256.739V60.97ZM259.175 60.8505L259.565 61.0605L260.514 59.2995L260.124 59.0895L259.175 60.8505ZM260.453 61.0904C260.964 60.8581 261.57 60.73 262.289 60.73V58.73C261.329 58.73 260.435 58.9019 259.626 59.2696L260.453 61.0904ZM262.289 60.73C262.849 60.73 263.39 60.8282 263.918 61.0263L264.621 59.1537C263.869 58.8718 263.09 58.73 262.289 58.73V60.73ZM263.944 61.0357C264.43 61.2027 264.855 61.4743 265.228 61.8625L266.671 60.4775C266.083 59.8657 265.389 59.4173 264.594 59.1443L263.944 61.0357ZM266.446 62.0382C266.701 61.8924 267.101 61.6823 267.657 61.4044L266.762 59.6156C266.198 59.8977 265.758 60.1276 265.453 60.3018L266.446 62.0382ZM267.626 61.4193C268.698 60.9284 269.697 60.7 270.629 60.7V58.7C269.362 58.7 268.081 59.0116 266.793 59.6007L267.626 61.4193ZM270.629 60.7C271.824 60.7 272.722 61.0617 273.41 61.735L274.809 60.305C273.697 59.2183 272.274 58.7 270.629 58.7V60.7ZM273.419 61.743C274.076 62.3714 274.459 63.284 274.459 64.62H276.459C276.459 62.876 275.943 61.3886 274.8 60.297L273.419 61.743ZM274.459 64.62V75H276.459V64.62H274.459ZM275.459 74H272.159V76H275.459V74ZM273.159 75V65.88H271.159V75H273.159ZM294.516 56.7L293.809 57.4071L293.809 57.4071L294.516 56.7ZM294.516 54.24L295.202 54.967L295.213 54.9572L295.223 54.9471L294.516 54.24ZM296.976 54.24L296.249 54.9266L296.268 54.9474L296.289 54.967L296.976 54.24ZM296.976 56.7L296.269 55.9929L296.259 56.003L296.249 56.0134L296.976 56.7ZM294.036 59.97V58.97H293.036V59.97H294.036ZM297.336 59.97H298.336V58.97H297.336V59.97ZM297.336 75V76H298.336V75H297.336ZM294.036 75H293.036V76H294.036V75ZM295.776 56.24C295.578 56.24 295.408 56.178 295.223 55.9929L293.809 57.4071C294.344 57.942 295.013 58.24 295.776 58.24V56.24ZM295.223 55.9929C295.038 55.8078 294.976 55.6374 294.976 55.44H292.976C292.976 56.2026 293.274 56.8722 293.809 57.4071L295.223 55.9929ZM294.976 55.44C294.976 55.2777 295.025 55.1342 295.202 54.967L293.829 53.513C293.286 54.0258 292.976 54.6822 292.976 55.44H294.976ZM295.223 54.9471C295.408 54.762 295.578 54.7 295.776 54.7V52.7C295.013 52.7 294.344 52.998 293.809 53.5329L295.223 54.9471ZM295.776 54.7C295.938 54.7 296.082 54.7496 296.249 54.9266L297.703 53.5534C297.19 53.0104 296.533 52.7 295.776 52.7V54.7ZM296.289 54.967C296.466 55.1342 296.516 55.2777 296.516 55.44H298.516C298.516 54.6822 298.205 54.0258 297.662 53.513L296.289 54.967ZM296.516 55.44C296.516 55.6374 296.454 55.8078 296.269 55.9929L297.683 57.4071C298.218 56.8722 298.516 56.2026 298.516 55.44H296.516ZM296.249 56.0134C296.082 56.1904 295.938 56.24 295.776 56.24V58.24C296.533 58.24 297.19 57.9296 297.703 57.3866L296.249 56.0134ZM294.036 60.97H297.336V58.97H294.036V60.97ZM296.336 59.97V75H298.336V59.97H296.336ZM297.336 74H294.036V76H297.336V74ZM295.036 75V59.97H293.036V75H295.036ZM323.927 63.63L323.176 64.2906L323.19 64.3066L323.205 64.3219L323.927 63.63ZM320.117 63.42L319.67 62.5256L319.117 62.802V63.42H320.117ZM320.117 75V76H321.117V75H320.117ZM316.847 75H315.847V76H316.847V75ZM316.847 59.97V58.97H315.847V59.97H316.847ZM319.757 59.97L320.176 59.062L319.976 58.97H319.757V59.97ZM320.147 60.15L319.728 61.058L320.087 61.2239L320.463 61.0987L320.147 60.15ZM325.367 60.27L324.929 61.1692L324.943 61.1758L324.956 61.1819L325.367 60.27ZM327.227 61.89L326.373 62.4114L326.379 62.42L326.384 62.4284L327.227 61.89ZM327.917 75V76H328.917V75H327.917ZM324.617 75H323.617V76H324.617V75ZM325.617 65.55C325.617 64.5478 325.322 63.6409 324.649 62.9381L323.205 64.3219C323.451 64.5791 323.617 64.9522 323.617 65.55H325.617ZM324.677 62.9694C324.02 62.222 323.129 61.88 322.127 61.88V63.88C322.644 63.88 322.954 64.038 323.176 64.2906L324.677 62.9694ZM322.127 61.88C321.312 61.88 320.488 62.1161 319.67 62.5256L320.564 64.3144C321.185 64.0039 321.701 63.88 322.127 63.88V61.88ZM319.117 63.42V75H321.117V63.42H319.117ZM320.117 74H316.847V76H320.117V74ZM317.847 75V59.97H315.847V75H317.847ZM316.847 60.97H319.757V58.97H316.847V60.97ZM319.338 60.878L319.728 61.058L320.566 59.242L320.176 59.062L319.338 60.878ZM320.463 61.0987C321.199 60.8532 321.962 60.73 322.757 60.73V58.73C321.751 58.73 320.774 58.8868 319.831 59.2013L320.463 61.0987ZM322.757 60.73C323.637 60.73 324.352 60.8883 324.929 61.1692L325.804 59.3708C324.902 58.9317 323.876 58.73 322.757 58.73V60.73ZM324.956 61.1819C325.581 61.4628 326.043 61.8703 326.373 62.4114L328.08 61.3685C327.531 60.4697 326.753 59.7972 325.777 59.3581L324.956 61.1819ZM326.384 62.4284C326.716 62.9474 326.917 63.6566 326.917 64.62H328.917C328.917 63.3834 328.658 62.2726 328.069 61.3516L326.384 62.4284ZM326.917 64.62V75H328.917V64.62H326.917ZM327.917 74H324.617V76H327.917V74ZM325.617 75V65.55H323.617V75H325.617ZM351.857 78.72V77.72H350.51L350.9 79.0094L351.857 78.72ZM353.447 78.12L352.758 77.395L352.739 77.4127L352.722 77.4313L353.447 78.12ZM354.047 74.76H355.047V72.76L353.447 73.96L354.047 74.76ZM353.177 75.15L352.861 74.2013L352.853 74.2037L352.846 74.2061L353.177 75.15ZM347.507 73.92L346.807 74.6344L347.507 73.92ZM347.567 61.17L348.252 61.8982L348.253 61.8978L347.567 61.17ZM353.237 59.91L352.934 60.8629L352.953 60.8693L352.974 60.8748L353.237 59.91ZM354.077 60.3L353.318 60.9508L353.836 61.5552L354.541 61.1858L354.077 60.3ZM354.707 59.97V58.97H354.461L354.243 59.0842L354.707 59.97ZM357.347 59.97H358.347V58.97H357.347V59.97ZM352.637 81.3L351.68 81.5894L351.894 82.3H352.637V81.3ZM349.847 63.69L349.047 63.09L349.043 63.0956L349.847 63.69ZM353.567 71.22L354.461 71.6672L354.461 71.6672L353.567 71.22ZM351.857 79.72C352.743 79.72 353.561 79.452 354.172 78.8087L352.722 77.4313C352.573 77.588 352.331 77.72 351.857 77.72V79.72ZM354.136 78.845C354.805 78.2091 355.047 77.3185 355.047 76.38H353.047C353.047 77.0015 352.889 77.2709 352.758 77.395L354.136 78.845ZM355.047 76.38V74.76H353.047V76.38H355.047ZM353.447 73.96C353.45 73.9574 353.412 73.9848 353.3 74.035C353.195 74.0823 353.05 74.1381 352.861 74.2013L353.493 76.0987C353.922 75.9558 354.347 75.7847 354.647 75.56L353.447 73.96ZM352.846 74.2061C352.592 74.2951 352.196 74.36 351.617 74.36V76.36C352.318 76.36 352.961 76.2849 353.507 76.0939L352.846 74.2061ZM351.617 74.36C350.041 74.36 348.951 73.9348 348.207 73.2056L346.807 74.6344C348.023 75.8252 349.672 76.36 351.617 76.36V74.36ZM348.207 73.2056C347.477 72.4911 347.037 71.3861 347.037 69.72H345.037C345.037 71.7339 345.576 73.4289 346.807 74.6344L348.207 73.2056ZM347.037 69.72V65.25H345.037V69.72H347.037ZM347.037 65.25C347.037 63.6904 347.482 62.6232 348.252 61.8982L346.881 60.4418C345.612 61.6368 345.037 63.2896 345.037 65.25H347.037ZM348.253 61.8978C349.068 61.129 350.193 60.7 351.737 60.7V58.7C349.8 58.7 348.145 59.251 346.881 60.4422L348.253 61.8978ZM351.737 60.7C352.215 60.7 352.61 60.7599 352.934 60.8629L353.54 58.9571C352.984 58.7801 352.379 58.7 351.737 58.7V60.7ZM352.974 60.8748C353.162 60.9263 353.284 60.9714 353.356 61.0045C353.39 61.0205 353.401 61.0285 353.397 61.0257C353.394 61.0238 353.361 61.001 353.318 60.9508L354.836 59.6492C354.641 59.4211 354.391 59.2804 354.198 59.1905C353.989 59.0936 353.751 59.0137 353.5 58.9452L352.974 60.8748ZM354.541 61.1858L355.171 60.8558L354.243 59.0842L353.613 59.4142L354.541 61.1858ZM354.707 60.97H357.347V58.97H354.707V60.97ZM356.347 59.97V76.92H358.347V59.97H356.347ZM356.347 76.92C356.347 78.2065 356.004 78.9928 355.488 79.4727C354.959 79.9653 354.07 80.3 352.637 80.3V82.3C354.344 82.3 355.81 81.9047 356.85 80.9373C357.904 79.9572 358.347 78.5535 358.347 76.92H356.347ZM353.594 81.0106L352.814 78.4306L350.9 79.0094L351.68 81.5894L353.594 81.0106ZM355.047 65.55C355.047 64.6082 354.835 63.7346 354.294 63.0437L352.719 64.2763C352.899 64.5054 353.047 64.8918 353.047 65.55H355.047ZM354.294 63.0437C353.66 62.2338 352.655 61.97 351.617 61.97V63.97C352.378 63.97 352.633 64.1662 352.719 64.2763L354.294 63.0437ZM351.617 61.97C350.606 61.97 349.659 62.2732 349.047 63.09L350.647 64.29C350.754 64.1468 350.987 63.97 351.617 63.97V61.97ZM349.043 63.0956C348.553 63.7584 348.337 64.5476 348.337 65.4H350.337C350.337 64.8924 350.461 64.5416 350.651 64.2844L349.043 63.0956ZM348.337 65.4V69.27H350.337V65.4H348.337ZM348.337 69.27C348.337 70.3433 348.542 71.3325 349.12 72.0692C349.733 72.8524 350.629 73.18 351.617 73.18V71.18C351.085 71.18 350.84 71.0226 350.694 70.8358C350.511 70.6025 350.337 70.1367 350.337 69.27H348.337ZM351.617 73.18C352.813 73.18 353.91 72.7701 354.461 71.6672L352.672 70.7728C352.584 70.9499 352.38 71.18 351.617 71.18V73.18ZM354.461 71.6672C354.892 70.8065 355.047 69.5561 355.047 68.07H353.047C353.047 69.5039 352.882 70.3535 352.672 70.7728L354.461 71.6672ZM355.047 68.07V65.55H353.047V68.07H355.047Z" fill="black"/>
</g>
<defs>
<filter id="filter0_d_137_1982" x="0.0538635" y="0" width="541.074" height="119" filterUnits="userSpaceOnUse" color-interpolation-filters="sRGB">
<feFlood flood-opacity="0" result="BackgroundImageFix"/>
<feColorMatrix in="SourceAlpha" type="matrix" values="0 0 0 0 0 0 0 0 0 0 0 0 0 0 0 0 0 0 127 0" result="hardAlpha"/>
<feOffset dy="4"/>
<feGaussianBlur stdDeviation="2"/>
<feComposite in2="hardAlpha" operator="out"/>
<feColorMatrix type="matrix" values="0 0 0 0 0 0 0 0 0 0 0 0 0 0 0 0 0 0 0.25 0"/>
<feBlend mode="normal" in2="BackgroundImageFix" result="effect1_dropShadow_137_1982"/>
<feBlend mode="normal" in="SourceGraphic" in2="effect1_dropShadow_137_1982" result="shape"/>
</filter>
</defs>
</svg>
