<svg width="650" height="349" viewBox="0 0 650 349" fill="none" xmlns="http://www.w3.org/2000/svg">
<path d="M582.478 96.1975C618.339 96.1975 647.411 74.8769 647.411 48.5765C647.411 22.2762 618.339 0.955566 582.478 0.955566C546.617 0.955566 517.545 22.2762 517.545 48.5765C517.545 74.8769 546.617 96.1975 582.478 96.1975Z" fill="url(#paint0_radial_71_2521)"/>
<path d="M585.067 348.74C620.928 348.74 650 327.419 650 301.119C650 274.818 620.928 253.498 585.067 253.498C549.206 253.498 520.134 274.818 520.134 301.119C520.134 327.419 549.206 348.74 585.067 348.74Z" fill="url(#paint1_radial_71_2521)"/>
<path d="M64.9328 348.74C100.794 348.74 129.866 327.419 129.866 301.119C129.866 274.818 100.794 253.498 64.9328 253.498C29.0714 253.498 0 274.818 0 301.119C0 327.419 29.0714 348.74 64.9328 348.74Z" fill="url(#paint2_radial_71_2521)"/>
<path d="M64.9328 96.1975C100.794 96.1975 129.866 74.8769 129.866 48.5765C129.866 22.2762 100.794 0.955566 64.9328 0.955566C29.0714 0.955566 0 22.2762 0 48.5765C0 74.8769 29.0714 96.1975 64.9328 96.1975Z" fill="url(#paint3_radial_71_2521)"/>
<defs>
<radialGradient id="paint0_radial_71_2521" cx="0" cy="0" r="1" gradientUnits="userSpaceOnUse" gradientTransform="translate(582.491 48.6106) scale(64.9148 47.6078)">
<stop stop-color="white"/>
<stop offset="0.2009" stop-color="#91B2F2"/>
<stop offset="0.3983" stop-color="#4281BB"/>
<stop offset="0.582" stop-color="#124961"/>
<stop offset="0.7491" stop-color="#020F18"/>
<stop offset="0.8939" stop-color="#010206"/>
<stop offset="1"/>
</radialGradient>
<radialGradient id="paint1_radial_71_2521" cx="0" cy="0" r="1" gradientUnits="userSpaceOnUse" gradientTransform="translate(585.08 301.153) scale(64.9148 47.6077)">
<stop stop-color="white"/>
<stop offset="0.2009" stop-color="#91B2F2"/>
<stop offset="0.3983" stop-color="#4281BB"/>
<stop offset="0.582" stop-color="#124961"/>
<stop offset="0.7491" stop-color="#020F18"/>
<stop offset="0.8939" stop-color="#010206"/>
<stop offset="1"/>
</radialGradient>
<radialGradient id="paint2_radial_71_2521" cx="0" cy="0" r="1" gradientUnits="userSpaceOnUse" gradientTransform="translate(64.9461 301.153) scale(64.9148 47.6077)">
<stop stop-color="white"/>
<stop offset="0.2009" stop-color="#91B2F2"/>
<stop offset="0.3983" stop-color="#4281BB"/>
<stop offset="0.582" stop-color="#124961"/>
<stop offset="0.7491" stop-color="#020F18"/>
<stop offset="0.8939" stop-color="#010206"/>
<stop offset="1"/>
</radialGradient>
<radialGradient id="paint3_radial_71_2521" cx="0" cy="0" r="1" gradientUnits="userSpaceOnUse" gradientTransform="translate(64.9461 48.6106) scale(64.9148 47.6078)">
<stop stop-color="white"/>
<stop offset="0.2009" stop-color="#91B2F2"/>
<stop offset="0.3983" stop-color="#4281BB"/>
<stop offset="0.582" stop-color="#124961"/>
<stop offset="0.7491" stop-color="#020F18"/>
<stop offset="0.8939" stop-color="#010206"/>
<stop offset="1"/>
</radialGradient>
</defs>
</svg>
