<svg width="592" height="77" viewBox="0 0 592 77" fill="none" xmlns="http://www.w3.org/2000/svg">
<path fill-rule="evenodd" clip-rule="evenodd" d="M582.07 12.2273V64.591L591.449 56.3357V20.7226L582.07 12.2273Z" fill="url(#paint0_linear_71_2974)"/>
<path fill-rule="evenodd" clip-rule="evenodd" d="M9.64222 12.1313V64.447L0.263535 56.1917V20.6266L9.64222 12.1313Z" fill="url(#paint1_linear_71_2974)"/>
<path fill-rule="evenodd" clip-rule="evenodd" d="M8.00095 3.06009L10.627 4.212L11.7524 3.06009L10.627 0.372314L8.00095 3.06009Z" fill="url(#paint2_linear_71_2974)"/>
<path fill-rule="evenodd" clip-rule="evenodd" d="M11.7524 3.06006L10.627 4.21196L13.253 5.74784L11.7524 3.06006Z" fill="url(#paint3_linear_71_2974)"/>
<path fill-rule="evenodd" clip-rule="evenodd" d="M11.7524 73.7583H580.992L579.444 71.0706H13.253L11.7524 73.7583Z" fill="url(#paint4_linear_71_2974)"/>
<path fill-rule="evenodd" clip-rule="evenodd" d="M579.444 5.74779V71.0704L582.07 72.6063V4.21191L579.444 5.74779Z" fill="url(#paint5_linear_71_2974)"/>
<path fill-rule="evenodd" clip-rule="evenodd" d="M13.253 5.74779V71.0704L10.627 72.6063V4.21191L13.253 5.74779Z" fill="url(#paint6_linear_71_2974)"/>
<path fill-rule="evenodd" clip-rule="evenodd" d="M11.7524 3.06006H580.992L579.444 5.74784H13.253L11.7524 3.06006Z" fill="url(#paint7_linear_71_2974)"/>
<path fill-rule="evenodd" clip-rule="evenodd" d="M584.696 73.7584L582.07 72.6064L580.992 73.7584L582.07 76.4461L584.696 73.7584Z" fill="url(#paint8_linear_71_2974)"/>
<path fill-rule="evenodd" clip-rule="evenodd" d="M580.992 73.7583L582.07 72.6064L579.444 71.0706L580.992 73.7583Z" fill="url(#paint9_linear_71_2974)"/>
<path fill-rule="evenodd" clip-rule="evenodd" d="M8.00095 73.7584L10.627 72.6064L11.7524 73.7584L10.627 76.4461L8.00095 73.7584Z" fill="url(#paint10_linear_71_2974)"/>
<path fill-rule="evenodd" clip-rule="evenodd" d="M11.7524 73.7583L10.627 72.6064L13.253 71.0706L11.7524 73.7583Z" fill="url(#paint11_linear_71_2974)"/>
<path fill-rule="evenodd" clip-rule="evenodd" d="M584.696 3.06009L582.07 4.212L580.992 3.06009L582.07 0.372314L584.696 3.06009Z" fill="url(#paint12_linear_71_2974)"/>
<path fill-rule="evenodd" clip-rule="evenodd" d="M580.992 3.06006L582.07 4.21196L579.444 5.74784L580.992 3.06006Z" fill="url(#paint13_linear_71_2974)"/>
<path fill-rule="evenodd" clip-rule="evenodd" d="M8.00095 3.06006V16.019L0.263535 20.6266V56.1917L8.00095 60.7993V73.7582L10.627 72.6063V62.3832V14.4351V4.21196L8.00095 3.06006Z" fill="url(#paint14_linear_71_2974)"/>
<path fill-rule="evenodd" clip-rule="evenodd" d="M8.00094 19.0908L2.88956 22.1626V54.6559L8.00094 57.6796V19.0908Z" fill="url(#paint15_linear_71_2974)"/>
<path fill-rule="evenodd" clip-rule="evenodd" d="M6.68793 21.4426L4.20258 22.9305V53.8879L6.68793 55.3758V21.4426Z" fill="url(#paint16_radial_71_2974)"/>
<path fill-rule="evenodd" clip-rule="evenodd" d="M591.449 20.7226L584.696 16.6909V3.06006L582.07 4.21196V15.1071V61.9032V72.6063L584.696 73.7582V60.3193L591.449 56.3357V20.7226Z" fill="url(#paint17_linear_71_2974)"/>
<path fill-rule="evenodd" clip-rule="evenodd" d="M114.918 74.8142H141.038V76.1581H114.918V74.8142Z" fill="white"/>
<path fill-rule="evenodd" clip-rule="evenodd" d="M451.659 74.8142H477.779V76.1581H451.659V74.8142Z" fill="white"/>
<path fill-rule="evenodd" clip-rule="evenodd" d="M580.992 73.7583H11.7524L10.627 76.4461H114.918L116.278 75.1022H139.725L141.038 76.4461H451.659L452.973 75.1022H476.466L477.779 76.4461H582.07L580.992 73.7583Z" fill="url(#paint18_linear_71_2974)"/>
<path fill-rule="evenodd" clip-rule="evenodd" d="M114.918 2.00429H141.038V0.6604H114.918V2.00429Z" fill="white"/>
<path fill-rule="evenodd" clip-rule="evenodd" d="M451.659 2.00429H477.779V0.6604H451.659V2.00429Z" fill="white"/>
<path fill-rule="evenodd" clip-rule="evenodd" d="M580.992 3.06009H11.7524L10.627 0.372314H114.918L116.278 1.7162H139.725L141.038 0.372314H451.659L452.973 1.7162H476.466L477.779 0.372314H582.07L580.992 3.06009Z" fill="url(#paint19_linear_71_2974)"/>
<path fill-rule="evenodd" clip-rule="evenodd" d="M2.88956 22.1626L4.20257 22.9305L6.68792 21.4426L8.00094 19.0908L2.88956 22.1626Z" fill="url(#paint20_linear_71_2974)"/>
<path fill-rule="evenodd" clip-rule="evenodd" d="M2.88956 54.6559L4.20257 53.8879L6.68792 55.3758L8.00094 57.6796L2.88956 54.6559Z" fill="url(#paint21_linear_71_2974)"/>
<path fill-rule="evenodd" clip-rule="evenodd" d="M2.88956 54.6559L4.20257 53.888V22.9305L2.88956 22.1626V54.6559Z" fill="url(#paint22_linear_71_2974)"/>
<path fill-rule="evenodd" clip-rule="evenodd" d="M6.68793 21.4426V55.3758L8.00094 57.6796V19.0908L6.68793 21.4426Z" fill="url(#paint23_linear_71_2974)"/>
<path fill-rule="evenodd" clip-rule="evenodd" d="M583.711 19.2349L588.823 22.2586V54.7519L583.711 57.8237V19.2349Z" fill="url(#paint24_linear_71_2974)"/>
<path fill-rule="evenodd" clip-rule="evenodd" d="M585.024 21.5386L587.51 23.0265V53.9839L585.024 55.4718V21.5386Z" fill="url(#paint25_radial_71_2974)"/>
<path fill-rule="evenodd" clip-rule="evenodd" d="M588.823 22.2586L587.51 23.0266L585.024 21.5387L583.711 19.2349L588.823 22.2586Z" fill="url(#paint26_linear_71_2974)"/>
<path fill-rule="evenodd" clip-rule="evenodd" d="M588.823 54.7518L587.51 53.9839L585.024 55.4718L583.711 57.8236L588.823 54.7518Z" fill="url(#paint27_linear_71_2974)"/>
<path fill-rule="evenodd" clip-rule="evenodd" d="M588.823 54.7519L587.51 53.9839V23.0265L588.823 22.2585V54.7519Z" fill="url(#paint28_linear_71_2974)"/>
<path fill-rule="evenodd" clip-rule="evenodd" d="M585.024 21.5387V38.5053V55.4719L583.711 57.8237V19.2349L585.024 21.5387Z" fill="url(#paint29_linear_71_2974)"/>
<path fill-rule="evenodd" clip-rule="evenodd" d="M22.0221 11.3635H570.628L573.911 14.7233V21.8747L569.831 24.7064V52.0162L573.911 54.848V61.9994L570.628 65.3591H22.0221L18.7395 61.9994V54.848L22.8193 52.0162V24.7544L18.7395 21.9227V14.7233L22.0221 11.3635ZM22.5848 12.7074L20.0525 15.2992V21.2027L24.1323 24.0345V52.7841L20.0525 55.6159V61.5194L22.5848 64.1112H570.112L572.645 61.5194V55.6159L568.565 52.7841V24.0345L572.645 21.2027V15.2992L570.112 12.7074H22.5848Z" fill="url(#paint30_radial_71_2974)"/>
<defs>
<linearGradient id="paint0_linear_71_2974" x1="582.067" y1="38.4072" x2="591.453" y2="38.4072" gradientUnits="userSpaceOnUse">
<stop stop-color="#1B3840"/>
<stop offset="1" stop-color="#204954"/>
</linearGradient>
<linearGradient id="paint1_linear_71_2974" x1="0.275727" y1="38.2983" x2="9.66191" y2="38.2983" gradientUnits="userSpaceOnUse">
<stop stop-color="#204954"/>
<stop offset="1" stop-color="#1B3840"/>
</linearGradient>
<linearGradient id="paint2_linear_71_2974" x1="9.87199" y1="4.1904" x2="9.87199" y2="0.382874" gradientUnits="userSpaceOnUse">
<stop stop-color="#6287C9"/>
<stop offset="1" stop-color="#3B597D"/>
</linearGradient>
<linearGradient id="paint3_linear_71_2974" x1="11.9578" y1="5.76704" x2="11.9578" y2="3.07494" gradientUnits="userSpaceOnUse">
<stop stop-color="#6287C9"/>
<stop offset="1" stop-color="#3B597D"/>
</linearGradient>
<linearGradient id="paint4_linear_71_2974" x1="296.355" y1="73.7391" x2="296.355" y2="71.047" gradientUnits="userSpaceOnUse">
<stop stop-color="#87B5F5"/>
<stop offset="1" stop-color="#4E76A6"/>
</linearGradient>
<linearGradient id="paint5_linear_71_2974" x1="579.436" y1="38.4072" x2="582.067" y2="38.4072" gradientUnits="userSpaceOnUse">
<stop stop-color="#4E76A6"/>
<stop offset="1" stop-color="#87B5F5"/>
</linearGradient>
<linearGradient id="paint6_linear_71_2974" x1="10.6425" y1="38.4072" x2="13.2732" y2="38.4072" gradientUnits="userSpaceOnUse">
<stop stop-color="#335D94"/>
<stop offset="1" stop-color="#204270"/>
</linearGradient>
<linearGradient id="paint7_linear_71_2974" x1="296.355" y1="5.76704" x2="296.355" y2="3.07494" gradientUnits="userSpaceOnUse">
<stop stop-color="#204270"/>
<stop offset="1" stop-color="#335D94"/>
</linearGradient>
<linearGradient id="paint8_linear_71_2974" x1="582.837" y1="76.4313" x2="582.837" y2="72.6237" gradientUnits="userSpaceOnUse">
<stop stop-color="#6287C9"/>
<stop offset="1" stop-color="#3B597D"/>
</linearGradient>
<linearGradient id="paint9_linear_71_2974" x1="580.752" y1="73.7391" x2="580.752" y2="71.047" gradientUnits="userSpaceOnUse">
<stop stop-color="#6287C9"/>
<stop offset="1" stop-color="#3B597D"/>
</linearGradient>
<linearGradient id="paint10_linear_71_2974" x1="9.87199" y1="76.4313" x2="9.87199" y2="72.6237" gradientUnits="userSpaceOnUse">
<stop stop-color="#6287C9"/>
<stop offset="1" stop-color="#3B597D"/>
</linearGradient>
<linearGradient id="paint11_linear_71_2974" x1="11.9578" y1="73.7391" x2="11.9578" y2="71.047" gradientUnits="userSpaceOnUse">
<stop stop-color="#6287C9"/>
<stop offset="1" stop-color="#3B597D"/>
</linearGradient>
<linearGradient id="paint12_linear_71_2974" x1="582.837" y1="4.1904" x2="582.837" y2="0.382874" gradientUnits="userSpaceOnUse">
<stop stop-color="#6287C9"/>
<stop offset="1" stop-color="#3B597D"/>
</linearGradient>
<linearGradient id="paint13_linear_71_2974" x1="580.752" y1="5.76704" x2="580.752" y2="3.07494" gradientUnits="userSpaceOnUse">
<stop stop-color="#6287C9"/>
<stop offset="1" stop-color="#3B597D"/>
</linearGradient>
<linearGradient id="paint14_linear_71_2974" x1="0.275727" y1="38.4068" x2="10.6425" y2="38.4068" gradientUnits="userSpaceOnUse">
<stop stop-color="#4E76A6"/>
<stop offset="1" stop-color="#87B5F5"/>
</linearGradient>
<linearGradient id="paint15_linear_71_2974" x1="5.45932" y1="57.7022" x2="5.45932" y2="19.1119" gradientUnits="userSpaceOnUse">
<stop stop-color="#6287C9"/>
<stop offset="1" stop-color="#3B597D"/>
</linearGradient>
<radialGradient id="paint16_radial_71_2974" cx="0" cy="0" r="1" gradientUnits="userSpaceOnUse" gradientTransform="translate(5.45885 38.4073) scale(11.7454 12.0216)">
<stop stop-color="white"/>
<stop offset="1" stop-color="#87B5F5"/>
</radialGradient>
<linearGradient id="paint17_linear_71_2974" x1="582.067" y1="38.4067" x2="591.453" y2="38.4067" gradientUnits="userSpaceOnUse">
<stop stop-color="#335D94"/>
<stop offset="1" stop-color="#204270"/>
</linearGradient>
<linearGradient id="paint18_linear_71_2974" x1="296.355" y1="76.4312" x2="296.355" y2="73.7391" gradientUnits="userSpaceOnUse">
<stop stop-color="#204270"/>
<stop offset="1" stop-color="#335D94"/>
</linearGradient>
<linearGradient id="paint19_linear_71_2974" x1="296.355" y1="3.07497" x2="296.355" y2="0.382873" gradientUnits="userSpaceOnUse">
<stop stop-color="#4E76A6"/>
<stop offset="1" stop-color="#87B5F5"/>
</linearGradient>
<linearGradient id="paint20_linear_71_2974" x1="5.45932" y1="22.9291" x2="5.45932" y2="19.1119" gradientUnits="userSpaceOnUse">
<stop stop-color="#87B5F5"/>
<stop offset="1" stop-color="#2C507A"/>
</linearGradient>
<linearGradient id="paint21_linear_71_2974" x1="5.45932" y1="57.7022" x2="5.45932" y2="53.8851" gradientUnits="userSpaceOnUse">
<stop stop-color="#99B2BF"/>
<stop offset="1" stop-color="white"/>
</linearGradient>
<linearGradient id="paint22_linear_71_2974" x1="3.56342" y1="54.6588" x2="3.56342" y2="22.1549" gradientUnits="userSpaceOnUse">
<stop stop-color="#739CB0"/>
<stop offset="1" stop-color="#476B96"/>
</linearGradient>
<linearGradient id="paint23_linear_71_2974" x1="7.35475" y1="57.7022" x2="7.35475" y2="19.1119" gradientUnits="userSpaceOnUse">
<stop stop-color="#739CB0"/>
<stop offset="1" stop-color="#476B96"/>
</linearGradient>
<linearGradient id="paint24_linear_71_2974" x1="586.27" y1="57.8107" x2="586.27" y2="19.2205" gradientUnits="userSpaceOnUse">
<stop stop-color="#6287C9"/>
<stop offset="1" stop-color="#3B597D"/>
</linearGradient>
<radialGradient id="paint25_radial_71_2974" cx="0" cy="0" r="1" gradientUnits="userSpaceOnUse" gradientTransform="translate(586.271 38.5157) scale(11.7454 12.0216)">
<stop stop-color="white"/>
<stop offset="1" stop-color="#87B5F5"/>
</radialGradient>
<linearGradient id="paint26_linear_71_2974" x1="586.27" y1="23.0381" x2="586.27" y2="19.2205" gradientUnits="userSpaceOnUse">
<stop stop-color="#87B5F5"/>
<stop offset="1" stop-color="#2C507A"/>
</linearGradient>
<linearGradient id="paint27_linear_71_2974" x1="586.27" y1="57.8106" x2="586.27" y2="53.9935" gradientUnits="userSpaceOnUse">
<stop stop-color="#99B2BF"/>
<stop offset="1" stop-color="white"/>
</linearGradient>
<linearGradient id="paint28_linear_71_2974" x1="588.166" y1="54.7672" x2="588.166" y2="22.2638" gradientUnits="userSpaceOnUse">
<stop stop-color="#739CB0"/>
<stop offset="1" stop-color="#476B96"/>
</linearGradient>
<linearGradient id="paint29_linear_71_2974" x1="584.374" y1="57.8107" x2="584.374" y2="19.2205" gradientUnits="userSpaceOnUse">
<stop stop-color="#739CB0"/>
<stop offset="1" stop-color="#476B96"/>
</linearGradient>
<radialGradient id="paint30_radial_71_2974" cx="0" cy="0" r="1" gradientUnits="userSpaceOnUse" gradientTransform="translate(296.355 38.4074) scale(280.583 287.18)">
<stop stop-color="#67DBFF"/>
<stop offset="1" stop-color="#0068DE"/>
</radialGradient>
</defs>
</svg>
