<svg width="592" height="77" viewBox="0 0 592 77" fill="none" xmlns="http://www.w3.org/2000/svg">
<path fill-rule="evenodd" clip-rule="evenodd" d="M582.07 12.2274V64.5911L591.449 56.3358V20.7227L582.07 12.2274Z" fill="url(#paint0_linear_71_2354)"/>
<path fill-rule="evenodd" clip-rule="evenodd" d="M9.64223 12.1314V64.4471L0.26355 56.1918V20.6267L9.64223 12.1314Z" fill="url(#paint1_linear_71_2354)"/>
<path fill-rule="evenodd" clip-rule="evenodd" d="M11.1897 3.63614H581.507V73.1824H11.1897V3.63614Z" fill="url(#paint2_linear_71_2354)"/>
<path fill-rule="evenodd" clip-rule="evenodd" d="M11.1897 3.63614H581.507V73.1824H11.1897V3.63614Z" fill="url(#paint3_radial_71_2354)"/>
<path fill-rule="evenodd" clip-rule="evenodd" d="M8.00096 3.06018L10.627 4.21209L11.7524 3.06018L10.627 0.372406L8.00096 3.06018Z" fill="url(#paint4_linear_71_2354)"/>
<path fill-rule="evenodd" clip-rule="evenodd" d="M11.7524 3.06018L10.627 4.21209L13.253 5.74796L11.7524 3.06018Z" fill="url(#paint5_linear_71_2354)"/>
<path fill-rule="evenodd" clip-rule="evenodd" d="M11.7524 73.7583H580.992L579.444 71.0706H13.253L11.7524 73.7583Z" fill="url(#paint6_linear_71_2354)"/>
<path fill-rule="evenodd" clip-rule="evenodd" d="M579.444 5.74797V71.0706L582.07 72.6064V4.2121L579.444 5.74797Z" fill="url(#paint7_linear_71_2354)"/>
<path fill-rule="evenodd" clip-rule="evenodd" d="M13.253 5.74797V71.0706L10.627 72.6064V4.2121L13.253 5.74797Z" fill="url(#paint8_linear_71_2354)"/>
<path fill-rule="evenodd" clip-rule="evenodd" d="M11.7524 3.06018H580.992L579.444 5.74796H13.253L11.7524 3.06018Z" fill="url(#paint9_linear_71_2354)"/>
<path fill-rule="evenodd" clip-rule="evenodd" d="M584.696 73.7584L582.07 72.6064L580.992 73.7584L582.07 76.4461L584.696 73.7584Z" fill="url(#paint10_linear_71_2354)"/>
<path fill-rule="evenodd" clip-rule="evenodd" d="M580.992 73.7583L582.07 72.6064L579.444 71.0706L580.992 73.7583Z" fill="url(#paint11_linear_71_2354)"/>
<path fill-rule="evenodd" clip-rule="evenodd" d="M8.00096 73.7584L10.627 72.6064L11.7524 73.7584L10.627 76.4461L8.00096 73.7584Z" fill="url(#paint12_linear_71_2354)"/>
<path fill-rule="evenodd" clip-rule="evenodd" d="M11.7524 73.7583L10.627 72.6064L13.253 71.0706L11.7524 73.7583Z" fill="url(#paint13_linear_71_2354)"/>
<path fill-rule="evenodd" clip-rule="evenodd" d="M584.696 3.06018L582.07 4.21209L580.992 3.06018L582.07 0.372406L584.696 3.06018Z" fill="url(#paint14_linear_71_2354)"/>
<path fill-rule="evenodd" clip-rule="evenodd" d="M580.992 3.06018L582.07 4.21209L579.444 5.74796L580.992 3.06018Z" fill="url(#paint15_linear_71_2354)"/>
<path fill-rule="evenodd" clip-rule="evenodd" d="M8.00096 3.06018V16.0191L0.26355 20.6267V56.1918L8.00096 60.7994V73.7584L10.627 72.6065V62.3833V14.4352V4.21209L8.00096 3.06018Z" fill="url(#paint16_linear_71_2354)"/>
<path fill-rule="evenodd" clip-rule="evenodd" d="M8.00097 19.0909L2.88959 22.1626V54.6559L8.00097 57.6797V19.0909Z" fill="url(#paint17_linear_71_2354)"/>
<path fill-rule="evenodd" clip-rule="evenodd" d="M6.68794 21.4427L4.20259 22.9306V53.888L6.68794 55.3759V21.4427Z" fill="url(#paint18_radial_71_2354)"/>
<path fill-rule="evenodd" clip-rule="evenodd" d="M591.449 20.7227L584.696 16.6911V3.06018L582.07 4.21209V15.1072V61.9033V72.6065L584.696 73.7584V60.3195L591.449 56.3358V20.7227Z" fill="url(#paint19_linear_71_2354)"/>
<path fill-rule="evenodd" clip-rule="evenodd" d="M114.918 74.8143H141.038V76.1582H114.918V74.8143Z" fill="white"/>
<path fill-rule="evenodd" clip-rule="evenodd" d="M451.659 74.8143H477.779V76.1582H451.659V74.8143Z" fill="white"/>
<path fill-rule="evenodd" clip-rule="evenodd" d="M580.992 73.7584H11.7524L10.627 76.4461H114.918L116.278 75.1023H139.725L141.038 76.4461H451.66L452.973 75.1023H476.466L477.779 76.4461H582.07L580.992 73.7584Z" fill="url(#paint20_linear_71_2354)"/>
<path fill-rule="evenodd" clip-rule="evenodd" d="M114.918 2.00426H141.038V0.66037H114.918V2.00426Z" fill="white"/>
<path fill-rule="evenodd" clip-rule="evenodd" d="M451.659 2.00426H477.779V0.66037H451.659V2.00426Z" fill="white"/>
<path fill-rule="evenodd" clip-rule="evenodd" d="M580.992 3.06018H11.7524L10.627 0.372406H114.918L116.278 1.7163H139.725L141.038 0.372406H451.66L452.973 1.7163H476.466L477.779 0.372406H582.07L580.992 3.06018Z" fill="url(#paint21_linear_71_2354)"/>
<path fill-rule="evenodd" clip-rule="evenodd" d="M2.88959 22.1626L4.2026 22.9305L6.68795 21.4427L8.00097 19.0909L2.88959 22.1626Z" fill="url(#paint22_linear_71_2354)"/>
<path fill-rule="evenodd" clip-rule="evenodd" d="M2.88959 54.6559L4.2026 53.888L6.68795 55.3759L8.00097 57.6797L2.88959 54.6559Z" fill="url(#paint23_linear_71_2354)"/>
<path fill-rule="evenodd" clip-rule="evenodd" d="M2.88959 54.6559L4.2026 53.888V22.9305L2.88959 22.1626V54.6559Z" fill="url(#paint24_linear_71_2354)"/>
<path fill-rule="evenodd" clip-rule="evenodd" d="M6.68794 21.4427V55.3759L8.00096 57.6797V19.0909L6.68794 21.4427Z" fill="url(#paint25_linear_71_2354)"/>
<path fill-rule="evenodd" clip-rule="evenodd" d="M583.711 19.2349L588.823 22.2586V54.7519L583.711 57.8237V19.2349Z" fill="url(#paint26_linear_71_2354)"/>
<path fill-rule="evenodd" clip-rule="evenodd" d="M585.024 21.5387L587.51 23.0265V53.984L585.024 55.4719V21.5387Z" fill="url(#paint27_radial_71_2354)"/>
<path fill-rule="evenodd" clip-rule="evenodd" d="M588.823 22.2586L587.51 23.0266L585.024 21.5387L583.711 19.2349L588.823 22.2586Z" fill="url(#paint28_linear_71_2354)"/>
<path fill-rule="evenodd" clip-rule="evenodd" d="M588.823 54.7519L587.51 53.984L585.024 55.4719L583.711 57.8237L588.823 54.7519Z" fill="url(#paint29_linear_71_2354)"/>
<path fill-rule="evenodd" clip-rule="evenodd" d="M588.823 54.7519L587.51 53.984V23.0265L588.823 22.2586V54.7519Z" fill="url(#paint30_linear_71_2354)"/>
<path fill-rule="evenodd" clip-rule="evenodd" d="M585.024 21.5387V38.5053V55.4719L583.711 57.8237V19.2349L585.024 21.5387Z" fill="url(#paint31_linear_71_2354)"/>
<path fill-rule="evenodd" clip-rule="evenodd" d="M22.0221 11.3635H570.628L573.911 14.7232V21.8746L569.831 24.7064V52.0162L573.911 54.8479V61.9993L570.628 65.3591H22.0221L18.7395 61.9993V54.8479L22.8193 52.0162V24.7544L18.7395 21.9226V14.7232L22.0221 11.3635ZM22.5848 12.7074L20.0526 15.2992V21.2027L24.1323 24.0345V52.7841L20.0526 55.6159V61.5194L22.5848 64.1112H570.112L572.645 61.5194V55.6159L568.565 52.7841V24.0345L572.645 21.2027V15.2992L570.112 12.7074H22.5848Z" fill="url(#paint32_radial_71_2354)"/>
<defs>
<linearGradient id="paint0_linear_71_2354" x1="582.067" y1="38.4073" x2="591.453" y2="38.4073" gradientUnits="userSpaceOnUse">
<stop stop-color="#1B3840"/>
<stop offset="1" stop-color="#204954"/>
</linearGradient>
<linearGradient id="paint1_linear_71_2354" x1="0.275742" y1="38.2984" x2="9.66193" y2="38.2984" gradientUnits="userSpaceOnUse">
<stop stop-color="#204954"/>
<stop offset="1" stop-color="#1B3840"/>
</linearGradient>
<linearGradient id="paint2_linear_71_2354" x1="296.355" y1="73.1815" x2="296.355" y2="3.63278" gradientUnits="userSpaceOnUse">
<stop stop-color="#0A1C4A"/>
<stop offset="0.1649" stop-color="#091D50"/>
<stop offset="0.3805" stop-color="#072060"/>
<stop offset="0.487" stop-color="#05226B"/>
<stop offset="0.5832" stop-color="#052671"/>
<stop offset="0.7143" stop-color="#043183"/>
<stop offset="0.8648" stop-color="#02429F"/>
<stop offset="1" stop-color="#0056BF"/>
</linearGradient>
<radialGradient id="paint3_radial_71_2354" cx="0" cy="0" r="1" gradientUnits="userSpaceOnUse" gradientTransform="translate(296.355 38.4074) scale(337.663 345.602)">
<stop offset="0.5911"/>
<stop offset="0.6789" stop-color="#000103"/>
<stop offset="0.7354" stop-color="#01050B"/>
<stop offset="0.7829" stop-color="#020B1A"/>
<stop offset="0.8256" stop-color="#03142F"/>
<stop offset="0.8651" stop-color="#041F4A"/>
<stop offset="0.9021" stop-color="#062D6C"/>
<stop offset="0.9372" stop-color="#093E93"/>
<stop offset="0.97" stop-color="#0B51C0"/>
<stop offset="1" stop-color="#0E65F0"/>
</radialGradient>
<linearGradient id="paint4_linear_71_2354" x1="9.87201" y1="4.19049" x2="9.87201" y2="0.382965" gradientUnits="userSpaceOnUse">
<stop stop-color="#6287C9"/>
<stop offset="1" stop-color="#3B597D"/>
</linearGradient>
<linearGradient id="paint5_linear_71_2354" x1="11.9578" y1="5.76716" x2="11.9578" y2="3.07506" gradientUnits="userSpaceOnUse">
<stop stop-color="#6287C9"/>
<stop offset="1" stop-color="#3B597D"/>
</linearGradient>
<linearGradient id="paint6_linear_71_2354" x1="296.355" y1="73.7391" x2="296.355" y2="71.047" gradientUnits="userSpaceOnUse">
<stop stop-color="#87B5F5"/>
<stop offset="1" stop-color="#4E76A6"/>
</linearGradient>
<linearGradient id="paint7_linear_71_2354" x1="579.436" y1="38.4074" x2="582.067" y2="38.4074" gradientUnits="userSpaceOnUse">
<stop stop-color="#4E76A6"/>
<stop offset="1" stop-color="#87B5F5"/>
</linearGradient>
<linearGradient id="paint8_linear_71_2354" x1="10.6425" y1="38.4074" x2="13.2732" y2="38.4074" gradientUnits="userSpaceOnUse">
<stop stop-color="#335D94"/>
<stop offset="1" stop-color="#204270"/>
</linearGradient>
<linearGradient id="paint9_linear_71_2354" x1="296.355" y1="5.76716" x2="296.355" y2="3.07506" gradientUnits="userSpaceOnUse">
<stop stop-color="#204270"/>
<stop offset="1" stop-color="#335D94"/>
</linearGradient>
<linearGradient id="paint10_linear_71_2354" x1="582.837" y1="76.4313" x2="582.837" y2="72.6237" gradientUnits="userSpaceOnUse">
<stop stop-color="#6287C9"/>
<stop offset="1" stop-color="#3B597D"/>
</linearGradient>
<linearGradient id="paint11_linear_71_2354" x1="580.752" y1="73.7391" x2="580.752" y2="71.047" gradientUnits="userSpaceOnUse">
<stop stop-color="#6287C9"/>
<stop offset="1" stop-color="#3B597D"/>
</linearGradient>
<linearGradient id="paint12_linear_71_2354" x1="9.87201" y1="76.4313" x2="9.87201" y2="72.6237" gradientUnits="userSpaceOnUse">
<stop stop-color="#6287C9"/>
<stop offset="1" stop-color="#3B597D"/>
</linearGradient>
<linearGradient id="paint13_linear_71_2354" x1="11.9578" y1="73.7391" x2="11.9578" y2="71.047" gradientUnits="userSpaceOnUse">
<stop stop-color="#6287C9"/>
<stop offset="1" stop-color="#3B597D"/>
</linearGradient>
<linearGradient id="paint14_linear_71_2354" x1="582.837" y1="4.19049" x2="582.837" y2="0.382965" gradientUnits="userSpaceOnUse">
<stop stop-color="#6287C9"/>
<stop offset="1" stop-color="#3B597D"/>
</linearGradient>
<linearGradient id="paint15_linear_71_2354" x1="580.752" y1="5.76716" x2="580.752" y2="3.07506" gradientUnits="userSpaceOnUse">
<stop stop-color="#6287C9"/>
<stop offset="1" stop-color="#3B597D"/>
</linearGradient>
<linearGradient id="paint16_linear_71_2354" x1="0.275742" y1="38.4069" x2="10.6425" y2="38.4069" gradientUnits="userSpaceOnUse">
<stop stop-color="#4E76A6"/>
<stop offset="1" stop-color="#87B5F5"/>
</linearGradient>
<linearGradient id="paint17_linear_71_2354" x1="5.45935" y1="57.7022" x2="5.45935" y2="19.112" gradientUnits="userSpaceOnUse">
<stop stop-color="#6287C9"/>
<stop offset="1" stop-color="#3B597D"/>
</linearGradient>
<radialGradient id="paint18_radial_71_2354" cx="0" cy="0" r="1" gradientUnits="userSpaceOnUse" gradientTransform="translate(5.45887 38.4074) scale(11.7454 12.0216)">
<stop stop-color="white"/>
<stop offset="1" stop-color="#87B5F5"/>
</radialGradient>
<linearGradient id="paint19_linear_71_2354" x1="582.067" y1="38.4069" x2="591.453" y2="38.4069" gradientUnits="userSpaceOnUse">
<stop stop-color="#335D94"/>
<stop offset="1" stop-color="#204270"/>
</linearGradient>
<linearGradient id="paint20_linear_71_2354" x1="296.355" y1="76.4313" x2="296.355" y2="73.7392" gradientUnits="userSpaceOnUse">
<stop stop-color="#204270"/>
<stop offset="1" stop-color="#335D94"/>
</linearGradient>
<linearGradient id="paint21_linear_71_2354" x1="296.355" y1="3.07506" x2="296.355" y2="0.382965" gradientUnits="userSpaceOnUse">
<stop stop-color="#4E76A6"/>
<stop offset="1" stop-color="#87B5F5"/>
</linearGradient>
<linearGradient id="paint22_linear_71_2354" x1="5.45935" y1="22.9291" x2="5.45935" y2="19.112" gradientUnits="userSpaceOnUse">
<stop stop-color="#87B5F5"/>
<stop offset="1" stop-color="#2C507A"/>
</linearGradient>
<linearGradient id="paint23_linear_71_2354" x1="5.45935" y1="57.7022" x2="5.45935" y2="53.8851" gradientUnits="userSpaceOnUse">
<stop stop-color="#99B2BF"/>
<stop offset="1" stop-color="white"/>
</linearGradient>
<linearGradient id="paint24_linear_71_2354" x1="3.56345" y1="54.6588" x2="3.56345" y2="22.1549" gradientUnits="userSpaceOnUse">
<stop stop-color="#739CB0"/>
<stop offset="1" stop-color="#476B96"/>
</linearGradient>
<linearGradient id="paint25_linear_71_2354" x1="7.35477" y1="57.7022" x2="7.35477" y2="19.112" gradientUnits="userSpaceOnUse">
<stop stop-color="#739CB0"/>
<stop offset="1" stop-color="#476B96"/>
</linearGradient>
<linearGradient id="paint26_linear_71_2354" x1="586.27" y1="57.8107" x2="586.27" y2="19.2205" gradientUnits="userSpaceOnUse">
<stop stop-color="#6287C9"/>
<stop offset="1" stop-color="#3B597D"/>
</linearGradient>
<radialGradient id="paint27_radial_71_2354" cx="0" cy="0" r="1" gradientUnits="userSpaceOnUse" gradientTransform="translate(586.271 38.5158) scale(11.7454 12.0216)">
<stop stop-color="white"/>
<stop offset="1" stop-color="#87B5F5"/>
</radialGradient>
<linearGradient id="paint28_linear_71_2354" x1="586.27" y1="23.0381" x2="586.27" y2="19.2205" gradientUnits="userSpaceOnUse">
<stop stop-color="#87B5F5"/>
<stop offset="1" stop-color="#2C507A"/>
</linearGradient>
<linearGradient id="paint29_linear_71_2354" x1="586.27" y1="57.8107" x2="586.27" y2="53.9936" gradientUnits="userSpaceOnUse">
<stop stop-color="#99B2BF"/>
<stop offset="1" stop-color="white"/>
</linearGradient>
<linearGradient id="paint30_linear_71_2354" x1="588.166" y1="54.7673" x2="588.166" y2="22.2639" gradientUnits="userSpaceOnUse">
<stop stop-color="#739CB0"/>
<stop offset="1" stop-color="#476B96"/>
</linearGradient>
<linearGradient id="paint31_linear_71_2354" x1="584.374" y1="57.8107" x2="584.374" y2="19.2205" gradientUnits="userSpaceOnUse">
<stop stop-color="#739CB0"/>
<stop offset="1" stop-color="#476B96"/>
</linearGradient>
<radialGradient id="paint32_radial_71_2354" cx="0" cy="0" r="1" gradientUnits="userSpaceOnUse" gradientTransform="translate(296.355 38.4074) scale(280.583 287.18)">
<stop stop-color="#67DBFF"/>
<stop offset="1" stop-color="#0068DE"/>
</radialGradient>
</defs>
</svg>
