<svg width="592" height="77" viewBox="0 0 592 77" fill="none" xmlns="http://www.w3.org/2000/svg">
<path fill-rule="evenodd" clip-rule="evenodd" d="M582.07 12.2275V64.5912L591.449 56.3359V20.7228L582.07 12.2275Z" fill="url(#paint0_linear_71_2466)"/>
<path fill-rule="evenodd" clip-rule="evenodd" d="M9.64222 12.1313V64.447L0.263535 56.1917V20.6266L9.64222 12.1313Z" fill="url(#paint1_linear_71_2466)"/>
<path fill-rule="evenodd" clip-rule="evenodd" d="M11.1897 3.63623H581.507V73.1825H11.1897V3.63623Z" fill="url(#paint2_linear_71_2466)"/>
<path fill-rule="evenodd" clip-rule="evenodd" d="M11.1897 3.63623H581.507V73.1825H11.1897V3.63623Z" fill="url(#paint3_radial_71_2466)"/>
<path fill-rule="evenodd" clip-rule="evenodd" d="M8.00095 3.06034L10.627 4.21224L11.7524 3.06034L10.627 0.372559L8.00095 3.06034Z" fill="url(#paint4_linear_71_2466)"/>
<path fill-rule="evenodd" clip-rule="evenodd" d="M11.7524 3.06055L10.627 4.21245L13.253 5.74833L11.7524 3.06055Z" fill="url(#paint5_linear_71_2466)"/>
<path fill-rule="evenodd" clip-rule="evenodd" d="M11.7524 73.7586H580.992L579.444 71.0708H13.253L11.7524 73.7586Z" fill="url(#paint6_linear_71_2466)"/>
<path fill-rule="evenodd" clip-rule="evenodd" d="M579.444 5.74828V71.0709L582.07 72.6068V4.2124L579.444 5.74828Z" fill="url(#paint7_linear_71_2466)"/>
<path fill-rule="evenodd" clip-rule="evenodd" d="M13.253 5.74828V71.0709L10.627 72.6068V4.2124L13.253 5.74828Z" fill="url(#paint8_linear_71_2466)"/>
<path fill-rule="evenodd" clip-rule="evenodd" d="M11.7524 3.06055H580.992L579.444 5.74833H13.253L11.7524 3.06055Z" fill="url(#paint9_linear_71_2466)"/>
<path fill-rule="evenodd" clip-rule="evenodd" d="M584.696 73.7584L582.07 72.6064L580.992 73.7584L582.07 76.4461L584.696 73.7584Z" fill="url(#paint10_linear_71_2466)"/>
<path fill-rule="evenodd" clip-rule="evenodd" d="M580.992 73.7586L582.07 72.6067L579.444 71.0708L580.992 73.7586Z" fill="url(#paint11_linear_71_2466)"/>
<path fill-rule="evenodd" clip-rule="evenodd" d="M8.00095 73.7584L10.627 72.6064L11.7524 73.7584L10.627 76.4461L8.00095 73.7584Z" fill="url(#paint12_linear_71_2466)"/>
<path fill-rule="evenodd" clip-rule="evenodd" d="M11.7524 73.7586L10.627 72.6067L13.253 71.0708L11.7524 73.7586Z" fill="url(#paint13_linear_71_2466)"/>
<path fill-rule="evenodd" clip-rule="evenodd" d="M584.696 3.06034L582.07 4.21224L580.992 3.06034L582.07 0.372559L584.696 3.06034Z" fill="url(#paint14_linear_71_2466)"/>
<path fill-rule="evenodd" clip-rule="evenodd" d="M580.992 3.06055L582.07 4.21245L579.444 5.74833L580.992 3.06055Z" fill="url(#paint15_linear_71_2466)"/>
<path fill-rule="evenodd" clip-rule="evenodd" d="M8.00095 3.06055V16.0195L0.263535 20.6271V56.1922L8.00095 60.7998V73.7587L10.627 72.6068V62.3837V14.4356V4.21245L8.00095 3.06055Z" fill="url(#paint16_linear_71_2466)"/>
<path fill-rule="evenodd" clip-rule="evenodd" d="M8.00094 19.0908L2.88956 22.1626V54.6559L8.00094 57.6796V19.0908Z" fill="url(#paint17_linear_71_2466)"/>
<path fill-rule="evenodd" clip-rule="evenodd" d="M6.68793 21.4429L4.20258 22.9307V53.8882L6.68793 55.3761V21.4429Z" fill="url(#paint18_radial_71_2466)"/>
<path fill-rule="evenodd" clip-rule="evenodd" d="M591.449 20.7231L584.696 16.6914V3.06055L582.07 4.21245V15.1076V61.9037V72.6068L584.696 73.7587V60.3198L591.449 56.3362V20.7231Z" fill="url(#paint19_linear_71_2466)"/>
<path fill-rule="evenodd" clip-rule="evenodd" d="M114.918 74.8145H141.038V76.1583H114.918V74.8145Z" fill="white"/>
<path fill-rule="evenodd" clip-rule="evenodd" d="M451.659 74.8145H477.779V76.1583H451.659V74.8145Z" fill="white"/>
<path fill-rule="evenodd" clip-rule="evenodd" d="M580.992 73.7583H11.7524L10.627 76.4461H114.918L116.278 75.1022H139.725L141.038 76.4461H451.659L452.973 75.1022H476.466L477.779 76.4461H582.07L580.992 73.7583Z" fill="url(#paint20_linear_71_2466)"/>
<path fill-rule="evenodd" clip-rule="evenodd" d="M114.918 2.00453H141.038V0.660645H114.918V2.00453Z" fill="white"/>
<path fill-rule="evenodd" clip-rule="evenodd" d="M451.659 2.00453H477.779V0.660645H451.659V2.00453Z" fill="white"/>
<path fill-rule="evenodd" clip-rule="evenodd" d="M580.992 3.06034H11.7524L10.627 0.372559H114.918L116.278 1.71645H139.725L141.038 0.372559H451.659L452.973 1.71645H476.466L477.779 0.372559H582.07L580.992 3.06034Z" fill="url(#paint21_linear_71_2466)"/>
<path fill-rule="evenodd" clip-rule="evenodd" d="M2.88956 22.1626L4.20257 22.9305L6.68792 21.4426L8.00094 19.0908L2.88956 22.1626Z" fill="url(#paint22_linear_71_2466)"/>
<path fill-rule="evenodd" clip-rule="evenodd" d="M2.88956 54.6561L4.20257 53.8882L6.68792 55.3761L8.00094 57.6799L2.88956 54.6561Z" fill="url(#paint23_linear_71_2466)"/>
<path fill-rule="evenodd" clip-rule="evenodd" d="M2.88956 54.6559L4.20257 53.888V22.9305L2.88956 22.1626V54.6559Z" fill="url(#paint24_linear_71_2466)"/>
<path fill-rule="evenodd" clip-rule="evenodd" d="M6.68793 21.4426V55.3758L8.00094 57.6796V19.0908L6.68793 21.4426Z" fill="url(#paint25_linear_71_2466)"/>
<path fill-rule="evenodd" clip-rule="evenodd" d="M583.711 19.2349L588.823 22.2586V54.7519L583.711 57.8237V19.2349Z" fill="url(#paint26_linear_71_2466)"/>
<path fill-rule="evenodd" clip-rule="evenodd" d="M585.024 21.5386L587.51 23.0265V53.9839L585.024 55.4718V21.5386Z" fill="url(#paint27_radial_71_2466)"/>
<path fill-rule="evenodd" clip-rule="evenodd" d="M588.823 22.2586L587.51 23.0266L585.024 21.5387L583.711 19.2349L588.823 22.2586Z" fill="url(#paint28_linear_71_2466)"/>
<path fill-rule="evenodd" clip-rule="evenodd" d="M588.823 54.7523L587.51 53.9844L585.024 55.4723L583.711 57.8241L588.823 54.7523Z" fill="url(#paint29_linear_71_2466)"/>
<path fill-rule="evenodd" clip-rule="evenodd" d="M588.823 54.7521L587.51 53.9842V23.0267L588.823 22.2588V54.7521Z" fill="url(#paint30_linear_71_2466)"/>
<path fill-rule="evenodd" clip-rule="evenodd" d="M585.024 21.5387V38.5053V55.4719L583.711 57.8237V19.2349L585.024 21.5387Z" fill="url(#paint31_linear_71_2466)"/>
<path fill-rule="evenodd" clip-rule="evenodd" d="M22.0221 11.3638H570.628L573.911 14.7235V21.8749L569.831 24.7067V52.0164L573.911 54.8482V61.9996L570.628 65.3593H22.0221L18.7395 61.9996V54.8482L22.8193 52.0164V24.7547L18.7395 21.9229V14.7235L22.0221 11.3638ZM22.5848 12.7077L20.0525 15.2994V21.203L24.1323 24.0347V52.7844L20.0525 55.6161V61.5197L22.5848 64.1114H570.112L572.645 61.5197V55.6161L568.565 52.7844V24.0347L572.645 21.203V15.2994L570.112 12.7077H22.5848Z" fill="url(#paint32_radial_71_2466)"/>
<defs>
<linearGradient id="paint0_linear_71_2466" x1="582.067" y1="38.4075" x2="591.453" y2="38.4075" gradientUnits="userSpaceOnUse">
<stop stop-color="#1B3840"/>
<stop offset="1" stop-color="#204954"/>
</linearGradient>
<linearGradient id="paint1_linear_71_2466" x1="0.275727" y1="38.2983" x2="9.66191" y2="38.2983" gradientUnits="userSpaceOnUse">
<stop stop-color="#204954"/>
<stop offset="1" stop-color="#1B3840"/>
</linearGradient>
<linearGradient id="paint2_linear_71_2466" x1="296.355" y1="73.1815" x2="296.355" y2="3.63287" gradientUnits="userSpaceOnUse">
<stop stop-color="#0A1C4A"/>
<stop offset="0.1649" stop-color="#091D50"/>
<stop offset="0.3805" stop-color="#072060"/>
<stop offset="0.487" stop-color="#05226B"/>
<stop offset="0.5832" stop-color="#052671"/>
<stop offset="0.7143" stop-color="#043183"/>
<stop offset="0.8648" stop-color="#02429F"/>
<stop offset="1" stop-color="#0056BF"/>
</linearGradient>
<radialGradient id="paint3_radial_71_2466" cx="0" cy="0" r="1" gradientUnits="userSpaceOnUse" gradientTransform="translate(296.355 38.4074) scale(337.663 345.602)">
<stop offset="0.5911"/>
<stop offset="0.6789" stop-color="#000103"/>
<stop offset="0.7354" stop-color="#01050B"/>
<stop offset="0.7829" stop-color="#020B1A"/>
<stop offset="0.8256" stop-color="#03142F"/>
<stop offset="0.8651" stop-color="#041F4A"/>
<stop offset="0.9021" stop-color="#062D6C"/>
<stop offset="0.9372" stop-color="#093E93"/>
<stop offset="0.97" stop-color="#0B51C0"/>
<stop offset="1" stop-color="#0E65F0"/>
</radialGradient>
<linearGradient id="paint4_linear_71_2466" x1="9.87199" y1="4.19064" x2="9.87199" y2="0.383118" gradientUnits="userSpaceOnUse">
<stop stop-color="#6287C9"/>
<stop offset="1" stop-color="#3B597D"/>
</linearGradient>
<linearGradient id="paint5_linear_71_2466" x1="11.9578" y1="5.76752" x2="11.9578" y2="3.07543" gradientUnits="userSpaceOnUse">
<stop stop-color="#6287C9"/>
<stop offset="1" stop-color="#3B597D"/>
</linearGradient>
<linearGradient id="paint6_linear_71_2466" x1="296.355" y1="73.7394" x2="296.355" y2="71.0473" gradientUnits="userSpaceOnUse">
<stop stop-color="#87B5F5"/>
<stop offset="1" stop-color="#4E76A6"/>
</linearGradient>
<linearGradient id="paint7_linear_71_2466" x1="579.436" y1="38.4077" x2="582.067" y2="38.4077" gradientUnits="userSpaceOnUse">
<stop stop-color="#4E76A6"/>
<stop offset="1" stop-color="#87B5F5"/>
</linearGradient>
<linearGradient id="paint8_linear_71_2466" x1="10.6425" y1="38.4077" x2="13.2732" y2="38.4077" gradientUnits="userSpaceOnUse">
<stop stop-color="#335D94"/>
<stop offset="1" stop-color="#204270"/>
</linearGradient>
<linearGradient id="paint9_linear_71_2466" x1="296.355" y1="5.76752" x2="296.355" y2="3.07543" gradientUnits="userSpaceOnUse">
<stop stop-color="#204270"/>
<stop offset="1" stop-color="#335D94"/>
</linearGradient>
<linearGradient id="paint10_linear_71_2466" x1="582.837" y1="76.4313" x2="582.837" y2="72.6237" gradientUnits="userSpaceOnUse">
<stop stop-color="#6287C9"/>
<stop offset="1" stop-color="#3B597D"/>
</linearGradient>
<linearGradient id="paint11_linear_71_2466" x1="580.752" y1="73.7394" x2="580.752" y2="71.0473" gradientUnits="userSpaceOnUse">
<stop stop-color="#6287C9"/>
<stop offset="1" stop-color="#3B597D"/>
</linearGradient>
<linearGradient id="paint12_linear_71_2466" x1="9.87199" y1="76.4313" x2="9.87199" y2="72.6237" gradientUnits="userSpaceOnUse">
<stop stop-color="#6287C9"/>
<stop offset="1" stop-color="#3B597D"/>
</linearGradient>
<linearGradient id="paint13_linear_71_2466" x1="11.9578" y1="73.7394" x2="11.9578" y2="71.0473" gradientUnits="userSpaceOnUse">
<stop stop-color="#6287C9"/>
<stop offset="1" stop-color="#3B597D"/>
</linearGradient>
<linearGradient id="paint14_linear_71_2466" x1="582.837" y1="4.19064" x2="582.837" y2="0.383118" gradientUnits="userSpaceOnUse">
<stop stop-color="#6287C9"/>
<stop offset="1" stop-color="#3B597D"/>
</linearGradient>
<linearGradient id="paint15_linear_71_2466" x1="580.752" y1="5.76752" x2="580.752" y2="3.07543" gradientUnits="userSpaceOnUse">
<stop stop-color="#6287C9"/>
<stop offset="1" stop-color="#3B597D"/>
</linearGradient>
<linearGradient id="paint16_linear_71_2466" x1="0.275727" y1="38.4072" x2="10.6425" y2="38.4072" gradientUnits="userSpaceOnUse">
<stop stop-color="#4E76A6"/>
<stop offset="1" stop-color="#87B5F5"/>
</linearGradient>
<linearGradient id="paint17_linear_71_2466" x1="5.45932" y1="57.7022" x2="5.45932" y2="19.1119" gradientUnits="userSpaceOnUse">
<stop stop-color="#6287C9"/>
<stop offset="1" stop-color="#3B597D"/>
</linearGradient>
<radialGradient id="paint18_radial_71_2466" cx="0" cy="0" r="1" gradientUnits="userSpaceOnUse" gradientTransform="translate(5.45885 38.4075) scale(11.7454 12.0216)">
<stop stop-color="white"/>
<stop offset="1" stop-color="#87B5F5"/>
</radialGradient>
<linearGradient id="paint19_linear_71_2466" x1="582.067" y1="38.4072" x2="591.453" y2="38.4072" gradientUnits="userSpaceOnUse">
<stop stop-color="#335D94"/>
<stop offset="1" stop-color="#204270"/>
</linearGradient>
<linearGradient id="paint20_linear_71_2466" x1="296.355" y1="76.4312" x2="296.355" y2="73.7391" gradientUnits="userSpaceOnUse">
<stop stop-color="#204270"/>
<stop offset="1" stop-color="#335D94"/>
</linearGradient>
<linearGradient id="paint21_linear_71_2466" x1="296.355" y1="3.07522" x2="296.355" y2="0.383118" gradientUnits="userSpaceOnUse">
<stop stop-color="#4E76A6"/>
<stop offset="1" stop-color="#87B5F5"/>
</linearGradient>
<linearGradient id="paint22_linear_71_2466" x1="5.45932" y1="22.9291" x2="5.45932" y2="19.1119" gradientUnits="userSpaceOnUse">
<stop stop-color="#87B5F5"/>
<stop offset="1" stop-color="#2C507A"/>
</linearGradient>
<linearGradient id="paint23_linear_71_2466" x1="5.45932" y1="57.7024" x2="5.45932" y2="53.8853" gradientUnits="userSpaceOnUse">
<stop stop-color="#99B2BF"/>
<stop offset="1" stop-color="white"/>
</linearGradient>
<linearGradient id="paint24_linear_71_2466" x1="3.56342" y1="54.6588" x2="3.56342" y2="22.1549" gradientUnits="userSpaceOnUse">
<stop stop-color="#739CB0"/>
<stop offset="1" stop-color="#476B96"/>
</linearGradient>
<linearGradient id="paint25_linear_71_2466" x1="7.35475" y1="57.7022" x2="7.35475" y2="19.1119" gradientUnits="userSpaceOnUse">
<stop stop-color="#739CB0"/>
<stop offset="1" stop-color="#476B96"/>
</linearGradient>
<linearGradient id="paint26_linear_71_2466" x1="586.27" y1="57.8107" x2="586.27" y2="19.2205" gradientUnits="userSpaceOnUse">
<stop stop-color="#6287C9"/>
<stop offset="1" stop-color="#3B597D"/>
</linearGradient>
<radialGradient id="paint27_radial_71_2466" cx="0" cy="0" r="1" gradientUnits="userSpaceOnUse" gradientTransform="translate(586.271 38.5157) scale(11.7454 12.0216)">
<stop stop-color="white"/>
<stop offset="1" stop-color="#87B5F5"/>
</radialGradient>
<linearGradient id="paint28_linear_71_2466" x1="586.27" y1="23.0381" x2="586.27" y2="19.2205" gradientUnits="userSpaceOnUse">
<stop stop-color="#87B5F5"/>
<stop offset="1" stop-color="#2C507A"/>
</linearGradient>
<linearGradient id="paint29_linear_71_2466" x1="586.27" y1="57.8111" x2="586.27" y2="53.994" gradientUnits="userSpaceOnUse">
<stop stop-color="#99B2BF"/>
<stop offset="1" stop-color="white"/>
</linearGradient>
<linearGradient id="paint30_linear_71_2466" x1="588.166" y1="54.7675" x2="588.166" y2="22.2641" gradientUnits="userSpaceOnUse">
<stop stop-color="#739CB0"/>
<stop offset="1" stop-color="#476B96"/>
</linearGradient>
<linearGradient id="paint31_linear_71_2466" x1="584.374" y1="57.8107" x2="584.374" y2="19.2205" gradientUnits="userSpaceOnUse">
<stop stop-color="#739CB0"/>
<stop offset="1" stop-color="#476B96"/>
</linearGradient>
<radialGradient id="paint32_radial_71_2466" cx="0" cy="0" r="1" gradientUnits="userSpaceOnUse" gradientTransform="translate(296.355 38.4076) scale(280.583 287.18)">
<stop stop-color="#67DBFF"/>
<stop offset="1" stop-color="#0068DE"/>
</radialGradient>
</defs>
</svg>
