<svg width="359" height="105" viewBox="0 0 359 105" fill="none" xmlns="http://www.w3.org/2000/svg">
<g opacity="0.7">
<path d="M194.757 73.1967H245.813C247.605 70.6648 249.14 67.7875 250.292 64.7952H190.278C191.43 67.9026 192.965 70.6648 194.757 73.1967Z" fill="url(#paint0_linear_85_4850)"/>
<path d="M187.463 45.115H253.235C253.107 42.8132 252.851 40.6265 252.339 38.3247H188.359C187.847 40.5114 187.591 42.8132 187.463 45.115Z" fill="url(#paint1_linear_85_4850)"/>
<path d="M39.6679 40.8567C44.9143 40.8567 49.265 39.936 52.72 38.3247H27.5116V40.8567H39.6679Z" fill="url(#paint2_linear_85_4850)"/>
<path d="M97.3784 38.3247H68.4592C65.644 40.8567 62.317 43.0434 58.0943 44.4244V44.6546C58.6062 44.7697 58.99 44.8848 59.5019 44.9999H97.5063V38.3247H97.3784Z" fill="url(#paint3_linear_85_4850)"/>
<path d="M77.9283 60.3067H97.3784V49.9487H69.8667C73.3217 52.4807 76.2648 55.9334 77.9283 60.3067Z" fill="url(#paint4_linear_85_4850)"/>
<path d="M65.2601 67.9026C65.2601 66.7517 65.0042 65.831 64.8763 64.7952H27.5116V73.1967H64.3644C65.0042 71.5855 65.2601 69.8592 65.2601 67.9026Z" fill="url(#paint5_linear_85_4850)"/>
<path d="M38.6442 49.9487H27.5116V60.3067H63.3407C59.5019 53.0561 49.7769 49.9487 38.6442 49.9487Z" fill="url(#paint6_linear_85_4850)"/>
<path d="M145.108 38.3247H110.814V45.115H137.814C141.013 43.5037 143.444 41.2019 145.108 38.3247Z" fill="url(#paint7_linear_85_4850)"/>
<path d="M173.899 38.3247H159.312C158.416 40.8567 157.136 43.0434 155.473 45.115H173.259C173.387 42.8132 173.515 40.5114 173.899 38.3247Z" fill="url(#paint8_linear_85_4850)"/>
<path d="M72.0421 34.4117H97.5063V22.6726H75.3691C75.3691 23.1329 75.497 23.5933 75.497 24.0536C75.625 27.8516 74.2174 31.3043 72.0421 34.4117Z" fill="url(#paint9_linear_85_4850)"/>
<path d="M79.0799 64.7952C79.2079 65.831 79.4638 66.8668 79.4638 68.0177C79.4638 69.8592 79.2079 71.5855 78.824 73.1967H97.3784V64.7952H79.0799Z" fill="url(#paint10_linear_85_4850)"/>
<path d="M27.5116 85.3962C30.0708 85.8565 33.9097 85.9716 38.7722 85.9716C47.4736 85.9716 55.791 84.1302 60.6535 79.4115H27.5116V85.3962Z" fill="url(#paint11_linear_85_4850)"/>
<path d="M27.5116 10.9335C29.687 10.4731 33.2699 10.1279 39.412 10.1279C49.137 10.1279 56.4308 12.4296 59.8858 17.6087H74.4733C73.1937 13.4654 70.6345 10.0128 66.9236 7.59589C66.2838 7.13553 65.5161 6.79027 64.7483 6.32991H14.2037V17.6087H27.5116V10.9335V10.9335Z" fill="url(#paint12_linear_85_4850)"/>
<path d="M79.0799 64.7952H64.8763C65.1322 65.831 65.2601 66.7517 65.2601 67.9026C65.2601 69.8592 64.8763 71.5855 64.3644 73.1967H78.696C79.0799 71.5855 79.3358 69.8592 79.3358 68.0177C79.4638 66.8668 79.2079 65.831 79.0799 64.7952Z" fill="url(#paint13_linear_85_4850)"/>
<path d="M38.6442 0.805626C33.3978 0.805626 28.2794 1.0358 23.8008 1.49616H49.6489C46.3219 1.15089 42.739 0.805626 38.6442 0.805626Z" fill="url(#paint14_linear_85_4850)"/>
<path d="M75.625 24.0536C75.625 23.5933 75.497 23.1329 75.497 22.6726H61.8052C61.9331 23.4782 62.0611 24.3989 62.0611 25.3196C62.0611 28.7723 60.7815 31.9948 58.3502 34.5268H72.0421C74.2174 31.3043 75.625 27.8516 75.625 24.0536Z" fill="url(#paint15_linear_85_4850)"/>
<path d="M27.5116 22.6726H14.2037V34.5268H27.5116V22.6726Z" fill="url(#paint16_linear_85_4850)"/>
<path d="M65.772 60.3067H80.3595C78.6961 55.9334 75.7529 52.4807 72.298 49.9487H40.9475C52.2081 49.9487 61.9331 53.0561 65.772 60.3067Z" fill="url(#paint17_linear_85_4850)"/>
<path d="M27.5116 49.9487H14.2037V60.3067H27.5116V49.9487Z" fill="url(#paint18_linear_85_4850)"/>
<path d="M56.1749 44.7697V44.4244C60.3976 43.0434 63.7246 40.8567 66.5397 38.3247H50.9285C47.3456 39.936 42.9949 40.8567 37.7485 40.8567H25.7202V38.3247H12.2843V45.115H57.5825C57.1986 44.9999 56.6867 44.7697 56.1749 44.7697Z" fill="url(#paint19_linear_85_4850)"/>
<path d="M73.8335 79.4115H57.9664C52.9759 84.1302 44.7864 85.9716 36.085 85.9716C31.3505 85.9716 27.5116 85.8565 24.8244 85.3962V79.4115H11.5165V86.3169H68.3312C70.5065 84.2453 72.4259 81.9435 73.8335 79.4115Z" fill="url(#paint20_linear_85_4850)"/>
<path d="M27.5116 64.7952H14.2037V73.1967H27.5116V64.7952Z" fill="url(#paint21_linear_85_4850)"/>
<path d="M14.2037 94.2581C18.6823 94.8335 25.7202 95.409 34.9334 95.409C48.1134 95.409 57.9664 93.6826 65.1322 90.1149H14.2037V94.2581Z" fill="url(#paint22_linear_85_4850)"/>
<path d="M123.099 0.805626C116.956 0.805626 111.71 1.0358 106.975 1.49616H133.207C130.136 1.15089 126.681 0.805626 123.099 0.805626Z" fill="url(#paint23_linear_85_4850)"/>
<path d="M110.686 22.6726H97.3784V33.2608H110.686V22.6726Z" fill="url(#paint24_linear_85_4850)"/>
<path d="M146.899 34.4117H160.463C160.847 32.3401 161.103 30.2685 161.103 27.9667C161.103 26.1253 160.847 24.2838 160.591 22.5575H146.771C147.411 24.3989 147.795 26.2403 147.795 28.5421C147.795 30.7288 147.411 32.5702 146.899 34.4117Z" fill="url(#paint25_linear_85_4850)"/>
<path d="M127.833 83.3246H98.9139V86.7773H127.833V83.3246Z" fill="url(#paint26_linear_85_4850)"/>
<path d="M110.686 90.1149H97.3784V94.6033H110.686V90.1149Z" fill="url(#paint27_linear_85_4850)"/>
<path d="M111.582 69.0535H92.7718V70.0893H111.582V69.0535Z" fill="url(#paint28_linear_85_4850)"/>
<path d="M108.383 57.3144C111.454 58.005 115.165 58.1201 119.132 58.1201C130.648 58.1201 140.757 55.2428 147.923 49.9487H95.0751V60.3067H108.383V57.3144V57.3144Z" fill="url(#paint29_linear_85_4850)"/>
<path d="M110.686 38.3247H97.3784V45.115H110.686V38.3247Z" fill="url(#paint30_linear_85_4850)"/>
<path d="M112.222 17.6087V11.2787C114.525 10.8184 119.004 10.358 124.89 10.358C134.231 10.358 141.397 12.7749 145.492 17.6087H160.463C158.928 14.0409 156.624 10.9335 153.553 8.63169C152.53 7.82607 151.25 7.13553 149.97 6.32991H98.9139V17.6087H112.222Z" fill="url(#paint31_linear_85_4850)"/>
<path d="M145.108 38.3247C143.444 41.2019 141.013 43.3886 137.814 45.115H155.601C157.264 43.1585 158.544 40.8567 159.439 38.3247H145.108Z" fill="url(#paint32_linear_85_4850)"/>
<path d="M174.155 60.3067H188.743C187.847 56.9692 187.335 53.5165 187.207 49.9487H172.875C173.131 53.6316 173.515 56.9692 174.155 60.3067Z" fill="url(#paint33_linear_85_4850)"/>
<path d="M175.435 64.7952C176.33 67.7875 177.482 70.5497 179.018 73.1967H194.757C192.965 70.6648 191.43 67.7875 190.278 64.7952H175.435V64.7952Z" fill="url(#paint34_linear_85_4850)"/>
<path d="M189.126 34.4117C190.406 30.0383 192.325 26.1253 194.757 22.5575H179.657C177.61 26.1253 176.074 30.0383 174.923 34.4117H189.126Z" fill="url(#paint35_linear_85_4850)"/>
<path d="M253.235 45.115H267.311C267.183 42.8132 267.055 40.5114 266.799 38.3247H252.339C252.851 40.6265 253.107 42.8132 253.235 45.115Z" fill="url(#paint36_linear_85_4850)"/>
<path d="M251.699 60.3067H266.031C266.799 57.0843 267.183 53.6316 267.311 49.9487H253.235C253.107 53.5165 252.595 56.9692 251.699 60.3067Z" fill="url(#paint37_linear_85_4850)"/>
<path d="M251.443 34.4117H265.903C264.879 30.1534 263.472 26.2403 261.424 22.5575H245.685C248.244 26.1253 250.164 30.1534 251.443 34.4117Z" fill="url(#paint38_linear_85_4850)"/>
<path d="M245.813 73.1967H261.041C262.448 70.5497 263.728 67.7875 264.623 64.7952H250.164C249.14 67.9026 247.605 70.6648 245.813 73.1967Z" fill="url(#paint39_linear_85_4850)"/>
<path d="M219.453 96.0995C228.41 96.0995 236.728 94.0279 243.894 90.1149H195.78C202.562 93.7977 210.496 96.0995 219.453 96.0995Z" fill="url(#paint40_linear_85_4850)"/>
<path d="M173.259 45.115H187.463C187.591 42.8132 187.847 40.5114 188.359 38.3247H173.899C173.515 40.5114 173.387 42.8132 173.259 45.115Z" fill="url(#paint41_linear_85_4850)"/>
<path d="M256.946 79.4115H240.311C235.064 83.6698 228.41 86.2018 220.349 86.2018H250.036C252.467 84.2453 254.77 82.0586 256.946 79.4115Z" fill="url(#paint42_linear_85_4850)"/>
<path d="M200.387 79.4115H183.112C185.16 81.9435 187.463 84.2453 190.022 86.2018H220.349C212.287 86.3169 205.633 83.6698 200.387 79.4115Z" fill="url(#paint43_linear_85_4850)"/>
<path d="M220.989 0C216.638 0 212.671 0.575446 208.704 1.49616H233.273C229.434 0.575446 225.339 0 220.989 0Z" fill="url(#paint44_linear_85_4850)"/>
<path d="M183.24 17.6087H199.363C204.61 12.7749 211.648 9.89768 220.349 9.89768C229.05 9.89768 235.96 12.89 241.207 17.6087H258.225C254.898 13.0051 250.548 9.20714 245.557 6.32991H196.292C191.174 9.20714 186.823 13.0051 183.24 17.6087Z" fill="url(#paint45_linear_85_4850)"/>
<path d="M284.841 60.3067H298.277V52.4807H337.433V49.9487H284.841V60.3067Z" fill="url(#paint46_linear_85_4850)"/>
<path d="M298.149 79.4115H284.841V86.2018H298.149V79.4115Z" fill="url(#paint47_linear_85_4850)"/>
<path d="M298.149 64.7952H284.841V73.1967H298.149V64.7952Z" fill="url(#paint48_linear_85_4850)"/>
<path d="M282.41 17.6087H295.718V11.624H338.073V6.32991H282.41V17.6087Z" fill="url(#paint49_linear_85_4850)"/>
<path d="M298.149 22.6726H284.841V34.5268H298.149V22.6726Z" fill="url(#paint50_linear_85_4850)"/>
<path d="M298.149 90.1149H284.841V94.6033H298.149V90.1149Z" fill="url(#paint51_linear_85_4850)"/>
<path d="M284.841 46.9564H337.433V44.3093H298.277V40.1661H284.841V46.9564Z" fill="url(#paint52_linear_85_4850)"/>
<path d="M352.789 3.10741H338.073V7.94115H352.789V3.10741Z" fill="url(#paint53_linear_85_4850)"/>
<path d="M49.5209 1.49616H23.6728C20.0899 1.84143 16.7629 2.30179 14.2037 2.76214V6.32991H64.7483C60.6535 3.91304 55.791 2.30179 49.5209 1.49616Z" fill="url(#paint54_linear_85_4850)"/>
<path d="M97.3784 6.32991H148.435C144.34 4.02812 139.35 2.41688 133.207 1.49616H106.975C103.393 1.84143 100.194 2.1867 97.3784 2.64705V6.32991V6.32991Z" fill="url(#paint55_linear_85_4850)"/>
<path d="M248.372 6.32991C244.662 4.2583 240.567 2.53197 236.088 1.49616H211.52C207.041 2.53197 202.818 4.14321 199.107 6.32991H248.372Z" fill="url(#paint56_linear_85_4850)"/>
<path d="M340.504 3.10741H284.841V7.94115H340.504V3.10741Z" fill="url(#paint57_linear_85_4850)"/>
<path d="M121.563 97.5956V94.2581H95.0751C95.7149 95.2939 95.9708 96.4447 96.0988 97.5956H121.563Z" fill="url(#paint58_linear_85_4850)"/>
<path d="M30.3268 16.3427H0V18.8746H30.3268V16.3427Z" fill="url(#paint59_linear_85_4850)"/>
<path d="M78.4401 22.6726C78.3122 20.8312 78.0562 19.1048 77.5444 17.6087H62.9568C63.8526 18.9897 64.4924 20.7161 64.7483 22.6726H78.4401Z" fill="url(#paint60_linear_85_4850)"/>
<path d="M115.293 21.4066H97.3784V23.9386H115.293V21.4066Z" fill="url(#paint61_linear_85_4850)"/>
<path d="M158.544 22.6726C158.16 20.8312 157.648 19.2199 157.008 17.6087H142.037C143.316 19.1048 144.084 20.8312 144.724 22.6726H158.544Z" fill="url(#paint62_linear_85_4850)"/>
<path d="M192.581 22.6726C193.861 21.2915 195.397 20.1406 197.06 18.9897H180.937C179.657 20.1406 178.506 21.4066 177.482 22.6726H192.581Z" fill="url(#paint63_linear_85_4850)"/>
<path d="M270.638 18.9897C269.23 18.4143 267.695 17.9539 265.903 17.4936H240.951C243.382 17.9539 245.557 18.5294 247.605 18.9897H270.638Z" fill="url(#paint64_linear_85_4850)"/>
<path d="M298.149 17.6087H284.841V20.8312H298.149V17.6087Z" fill="url(#paint65_linear_85_4850)"/>
<path d="M114.269 38.3247C114.781 37.1738 115.165 36.0229 115.421 34.6418H92.7718V38.4398H114.269V38.3247Z" fill="url(#paint66_linear_85_4850)"/>
<path d="M74.9852 32.4552H61.2933C59.8858 34.0664 57.9664 35.3324 55.6631 36.3682H71.4023C72.8098 35.2173 73.9615 33.8362 74.9852 32.4552Z" fill="url(#paint67_linear_85_4850)"/>
<path d="M27.5116 34.4117H14.2037V36.9436H27.5116V34.4117Z" fill="url(#paint68_linear_85_4850)"/>
<path d="M163.15 32.6853H149.586C149.203 34.0664 148.563 35.4475 147.923 36.5984H162.127C162.511 35.3324 162.894 34.0664 163.15 32.6853Z" fill="url(#paint69_linear_85_4850)"/>
<path d="M110.686 34.4117H97.3784V38.3247H110.686V34.4117Z" fill="url(#paint70_linear_85_4850)"/>
<path d="M191.942 38.5549C192.198 37.1738 192.453 35.9078 192.837 34.6418H178.634C178.25 36.0229 177.738 37.1738 177.482 38.5549H191.942Z" fill="url(#paint71_linear_85_4850)"/>
<path d="M254.77 38.3247H269.23C268.974 37.6342 268.718 37.0587 268.334 36.3682H253.875C254.259 37.0587 254.515 37.7493 254.77 38.3247Z" fill="url(#paint72_linear_85_4850)"/>
<path d="M298.149 34.4117H284.841V36.5984H298.149V34.4117Z" fill="url(#paint73_linear_85_4850)"/>
<path d="M355.348 44.1943H336.921V49.6035H355.348V44.1943Z" fill="url(#paint74_linear_85_4850)"/>
<path d="M146.899 53.7467C146.899 52.4807 147.155 51.2147 147.283 49.9487H129.497C128.729 50.8694 127.961 51.9052 127.065 52.7109C126.298 53.5165 125.274 54.0919 124.25 54.7825H147.027C147.027 54.4372 146.899 54.0919 146.899 53.7467Z" fill="url(#paint75_linear_85_4850)"/>
<path d="M38.6442 49.9487H69.8667C66.6677 47.6469 62.9568 46.0357 59.5019 45.115H14.2037V49.9487H27.5116H38.6442Z" fill="url(#paint76_linear_85_4850)"/>
<path d="M153.169 47.8771C154.065 47.0715 154.833 46.0357 155.601 45.115H137.814C133.591 47.3017 128.217 48.4526 121.819 48.4526C117.34 48.4526 113.629 48.2224 110.814 47.5318V45.115H97.3784V49.9487H150.226C151.25 49.2582 152.274 48.6827 153.169 47.8771Z" fill="url(#paint77_linear_85_4850)"/>
<path d="M251.315 47.6469C251.315 48.4526 251.188 49.2582 251.188 49.9487H265.263C265.263 48.9129 265.519 48.1073 265.519 47.0715C265.519 46.381 265.391 45.8055 265.391 45.115H251.315C251.188 45.9206 251.315 46.8413 251.315 47.6469Z" fill="url(#paint78_linear_85_4850)"/>
<path d="M173.515 47.8771C173.515 47.9922 173.643 48.1073 173.643 48.1073H187.975C187.975 47.9922 187.847 47.8771 187.847 47.762C187.847 47.4167 187.975 47.1866 188.103 46.9564H173.899C173.771 47.3017 173.515 47.5318 173.515 47.8771Z" fill="url(#paint79_linear_85_4850)"/>
<path d="M337.305 44.5395H284.841V49.3733H337.305V44.5395Z" fill="url(#paint80_linear_85_4850)"/>
<path d="M161.231 63.6443H188.743C188.998 62.9538 189.254 62.1482 189.382 61.3425H160.463C160.719 62.1482 160.975 62.9538 161.231 63.6443Z" fill="url(#paint81_linear_85_4850)"/>
<path d="M23.6728 60.3067H10.3649V64.7952H23.6728V60.3067Z" fill="url(#paint82_linear_85_4850)"/>
<path d="M77.6724 62.7236H59.8858C60.7815 63.0689 61.4213 63.4142 61.6772 63.8745H79.0799C78.824 63.5292 78.3122 63.0689 77.6724 62.7236Z" fill="url(#paint83_linear_85_4850)"/>
<path d="M109.791 60.3067H97.3784V67.7875H109.791V60.3067Z" fill="url(#paint84_linear_85_4850)"/>
<path d="M172.236 64.7952H187.079C186.567 63.2991 186.055 61.8029 185.671 60.3067H171.084C171.34 61.918 171.724 63.2991 172.236 64.7952Z" fill="url(#paint85_linear_85_4850)"/>
<path d="M250.292 62.8387H264.751C265.263 62.2633 265.647 61.8029 266.031 61.2275H251.699C251.315 61.6878 250.804 62.2633 250.292 62.8387Z" fill="url(#paint86_linear_85_4850)"/>
<path d="M299.301 60.3067H285.993V62.8387H299.301V60.3067Z" fill="url(#paint87_linear_85_4850)"/>
<path d="M157.52 75.1533C158.928 76.3041 160.463 77.3399 162.255 78.2607H195.652C197.444 77.3399 198.979 76.3041 200.387 75.1533H157.52V75.1533Z" fill="url(#paint88_linear_85_4850)"/>
<path d="M277.548 99.2069H305.571V94.6033H281.77C280.491 96.2146 279.083 97.7107 277.548 99.2069Z" fill="url(#paint89_linear_85_4850)"/>
<path d="M27.5116 75.7287H14.2037V77.5701H27.5116V75.7287Z" fill="url(#paint90_linear_85_4850)"/>
<path d="M64.4924 74.3476C63.7246 76.3041 62.445 78.0305 60.6535 79.4115H76.5207C77.5444 77.8003 78.3122 76.1891 78.824 74.2325H64.4924V74.3476Z" fill="url(#paint91_linear_85_4850)"/>
<path d="M110.686 73.1967H97.3784V79.4115H110.686V73.1967Z" fill="url(#paint92_linear_85_4850)"/>
<path d="M179.018 73.1967C180.169 75.3834 181.577 77.455 183.112 79.4115H200.387C198.212 77.6852 196.42 75.4985 194.757 73.1967H179.018Z" fill="url(#paint93_linear_85_4850)"/>
<path d="M240.183 79.6417H261.424C263.344 78.8361 265.135 78.0305 266.671 77.2249H247.221C245.301 78.1456 242.87 78.9512 240.183 79.6417Z" fill="url(#paint94_linear_85_4850)"/>
<path d="M297.126 73.1967H283.818V76.3041H297.126V73.1967Z" fill="url(#paint95_linear_85_4850)"/>
<path d="M71.0184 86.3169H14.2037V90.1149H65.1322C67.1795 89.0791 69.099 88.0433 70.6345 86.6622C70.7624 86.5471 70.8904 86.432 71.0184 86.3169Z" fill="url(#paint96_linear_85_4850)"/>
<path d="M110.686 86.3169H97.3784V90.1149H110.686V86.3169Z" fill="url(#paint97_linear_85_4850)"/>
<path d="M213.311 86.3169H182.984C184.776 87.698 186.695 89.0791 188.743 90.1149H236.984C239.031 88.964 240.951 87.698 242.87 86.3169H213.311Z" fill="url(#paint98_linear_85_4850)"/>
<path d="M306.723 88.5036H284.841V90.1149H306.723V88.5036Z" fill="url(#paint99_linear_85_4850)"/>
<path d="M194.757 73.1967H245.813C247.605 70.6648 249.14 67.7875 250.292 64.7952H190.278C191.43 67.9026 192.965 70.6648 194.757 73.1967Z" fill="url(#paint100_linear_85_4850)"/>
<path d="M187.463 45.115H253.235C253.107 42.8132 252.851 40.6265 252.339 38.3247H188.359C187.847 40.5114 187.591 42.8132 187.463 45.115Z" fill="url(#paint101_linear_85_4850)"/>
<path d="M39.6679 40.8567C44.9143 40.8567 49.265 39.936 52.72 38.3247H27.5116V40.8567H39.6679Z" fill="url(#paint102_linear_85_4850)"/>
<path d="M97.3784 38.3247H68.4592C65.644 40.8567 62.317 43.0434 58.0943 44.4244V44.6546C58.6062 44.7697 58.99 44.8848 59.5019 44.9999H97.5063V38.3247H97.3784Z" fill="url(#paint103_linear_85_4850)"/>
<path d="M77.9283 60.3067H97.3784V49.9487H69.8667C73.3217 52.4807 76.2648 55.9334 77.9283 60.3067Z" fill="url(#paint104_linear_85_4850)"/>
<path d="M65.2601 67.9026C65.2601 66.7517 65.0042 65.831 64.8763 64.7952H27.5116V73.1967H64.3644C65.0042 71.5855 65.2601 69.8592 65.2601 67.9026Z" fill="url(#paint105_linear_85_4850)"/>
<path d="M38.6442 49.9487H27.5116V60.3067H63.3407C59.5019 53.0561 49.7769 49.9487 38.6442 49.9487Z" fill="url(#paint106_linear_85_4850)"/>
<path d="M145.108 38.3247H110.814V45.115H137.814C141.013 43.5037 143.444 41.2019 145.108 38.3247Z" fill="url(#paint107_linear_85_4850)"/>
<path d="M173.899 38.3247H159.312C158.416 40.8567 157.136 43.0434 155.473 45.115H173.259C173.387 42.8132 173.515 40.5114 173.899 38.3247Z" fill="url(#paint108_linear_85_4850)"/>
<path d="M72.0421 34.4117H97.5063V22.6726H75.3691C75.3691 23.1329 75.497 23.5933 75.497 24.0536C75.625 27.8516 74.2174 31.3043 72.0421 34.4117Z" fill="url(#paint109_linear_85_4850)"/>
<path d="M79.0799 64.7952C79.2079 65.831 79.4638 66.8668 79.4638 68.0177C79.4638 69.8592 79.2079 71.5855 78.824 73.1967H97.3784V64.7952H79.0799Z" fill="url(#paint110_linear_85_4850)"/>
<path d="M27.5116 85.3962C30.0708 85.8565 33.9097 85.9716 38.7722 85.9716C47.4736 85.9716 55.791 84.1302 60.6535 79.4115H27.5116V85.3962Z" fill="url(#paint111_linear_85_4850)"/>
<path d="M27.5116 10.9335C29.687 10.4731 33.2699 10.1279 39.412 10.1279C49.137 10.1279 56.4308 12.4296 59.8858 17.6087H74.4733C73.1937 13.4654 70.6345 10.0128 66.9236 7.59589C66.2838 7.13553 65.5161 6.79027 64.7483 6.32991H14.2037V17.6087H27.5116V10.9335V10.9335Z" fill="url(#paint112_linear_85_4850)"/>
<path d="M79.0799 64.7952H64.8763C65.1322 65.831 65.2601 66.7517 65.2601 67.9026C65.2601 69.8592 64.8763 71.5855 64.3644 73.1967H78.696C79.0799 71.5855 79.3358 69.8592 79.3358 68.0177C79.4638 66.8668 79.2079 65.831 79.0799 64.7952Z" fill="url(#paint113_linear_85_4850)"/>
<path d="M38.6442 0.805626C33.3978 0.805626 28.2794 1.0358 23.8008 1.49616H49.6489C46.3219 1.15089 42.739 0.805626 38.6442 0.805626Z" fill="url(#paint114_linear_85_4850)"/>
<path d="M75.625 24.0536C75.625 23.5933 75.497 23.1329 75.497 22.6726H61.8052C61.9331 23.4782 62.0611 24.3989 62.0611 25.3196C62.0611 28.7723 60.7815 31.9948 58.3502 34.5268H72.0421C74.2174 31.3043 75.625 27.8516 75.625 24.0536Z" fill="url(#paint115_linear_85_4850)"/>
<path d="M27.5116 22.6726H14.2037V34.5268H27.5116V22.6726Z" fill="url(#paint116_linear_85_4850)"/>
<path d="M65.772 60.3067H80.3595C78.6961 55.9334 75.7529 52.4807 72.298 49.9487H40.9475C52.2081 49.9487 61.9331 53.0561 65.772 60.3067Z" fill="url(#paint117_linear_85_4850)"/>
<path d="M27.5116 49.9487H14.2037V60.3067H27.5116V49.9487Z" fill="url(#paint118_linear_85_4850)"/>
<path d="M56.1749 44.7697V44.4244C60.3976 43.0434 63.7246 40.8567 66.5397 38.3247H50.9285C47.3456 39.936 42.9949 40.8567 37.7485 40.8567H25.7202V38.3247H12.2843V45.115H57.5825C57.1986 44.9999 56.6867 44.7697 56.1749 44.7697Z" fill="url(#paint119_linear_85_4850)"/>
<path d="M73.8335 79.4115H57.9664C52.9759 84.1302 44.7864 85.9716 36.085 85.9716C31.3505 85.9716 27.5116 85.8565 24.8244 85.3962V79.4115H11.5165V86.3169H68.3312C70.5065 84.2453 72.4259 81.9435 73.8335 79.4115Z" fill="url(#paint120_linear_85_4850)"/>
<path d="M27.5116 64.7952H14.2037V73.1967H27.5116V64.7952Z" fill="url(#paint121_linear_85_4850)"/>
<path d="M14.2037 94.2581C18.6823 94.8335 25.7202 95.409 34.9334 95.409C48.1134 95.409 57.9664 93.6826 65.1322 90.1149H14.2037V94.2581Z" fill="url(#paint122_linear_85_4850)"/>
<path d="M123.099 0.805626C116.956 0.805626 111.71 1.0358 106.975 1.49616H133.207C130.136 1.15089 126.681 0.805626 123.099 0.805626Z" fill="url(#paint123_linear_85_4850)"/>
<path d="M110.686 22.6726H97.3784V33.2608H110.686V22.6726Z" fill="url(#paint124_linear_85_4850)"/>
<path d="M146.899 34.4117H160.463C160.847 32.3401 161.103 30.2685 161.103 27.9667C161.103 26.1253 160.847 24.2838 160.591 22.5575H146.771C147.411 24.3989 147.795 26.2403 147.795 28.5421C147.795 30.7288 147.411 32.5702 146.899 34.4117Z" fill="url(#paint125_linear_85_4850)"/>
<path d="M127.833 83.3246H98.9139V86.7773H127.833V83.3246Z" fill="url(#paint126_linear_85_4850)"/>
<path d="M110.686 90.1149H97.3784V94.6033H110.686V90.1149Z" fill="url(#paint127_linear_85_4850)"/>
<path d="M111.582 69.0535H92.7718V70.0893H111.582V69.0535Z" fill="url(#paint128_linear_85_4850)"/>
<path d="M108.383 57.3144C111.454 58.005 115.165 58.1201 119.132 58.1201C130.648 58.1201 140.757 55.2428 147.923 49.9487H95.0751V60.3067H108.383V57.3144V57.3144Z" fill="url(#paint129_linear_85_4850)"/>
<path d="M110.686 38.3247H97.3784V45.115H110.686V38.3247Z" fill="url(#paint130_linear_85_4850)"/>
<path d="M112.222 17.6087V11.2787C114.525 10.8184 119.004 10.358 124.89 10.358C134.231 10.358 141.397 12.7749 145.492 17.6087H160.463C158.928 14.0409 156.624 10.9335 153.553 8.63169C152.53 7.82607 151.25 7.13553 149.97 6.32991H98.9139V17.6087H112.222Z" fill="url(#paint131_linear_85_4850)"/>
<path d="M145.108 38.3247C143.444 41.2019 141.013 43.3886 137.814 45.115H155.601C157.264 43.1585 158.544 40.8567 159.439 38.3247H145.108Z" fill="url(#paint132_linear_85_4850)"/>
<path d="M174.155 60.3067H188.743C187.847 56.9692 187.335 53.5165 187.207 49.9487H172.875C173.131 53.6316 173.515 56.9692 174.155 60.3067Z" fill="url(#paint133_linear_85_4850)"/>
<path d="M175.435 64.7952C176.33 67.7875 177.482 70.5497 179.018 73.1967H194.757C192.965 70.6648 191.43 67.7875 190.278 64.7952H175.435V64.7952Z" fill="url(#paint134_linear_85_4850)"/>
<path d="M189.126 34.4117C190.406 30.0383 192.325 26.1253 194.757 22.5575H179.657C177.61 26.1253 176.074 30.0383 174.923 34.4117H189.126Z" fill="url(#paint135_linear_85_4850)"/>
<path d="M253.235 45.115H267.311C267.183 42.8132 267.055 40.5114 266.799 38.3247H252.339C252.851 40.6265 253.107 42.8132 253.235 45.115Z" fill="url(#paint136_linear_85_4850)"/>
<path d="M251.699 60.3067H266.031C266.799 57.0843 267.183 53.6316 267.311 49.9487H253.235C253.107 53.5165 252.595 56.9692 251.699 60.3067Z" fill="url(#paint137_linear_85_4850)"/>
<path d="M251.443 34.4117H265.903C264.879 30.1534 263.472 26.2403 261.424 22.5575H245.685C248.244 26.1253 250.164 30.1534 251.443 34.4117Z" fill="url(#paint138_linear_85_4850)"/>
<path d="M245.813 73.1967H261.041C262.448 70.5497 263.728 67.7875 264.623 64.7952H250.164C249.14 67.9026 247.605 70.6648 245.813 73.1967Z" fill="url(#paint139_linear_85_4850)"/>
<path d="M219.453 96.0995C228.41 96.0995 236.728 94.0279 243.894 90.1149H195.78C202.562 93.7977 210.496 96.0995 219.453 96.0995Z" fill="url(#paint140_linear_85_4850)"/>
<path d="M173.259 45.115H187.463C187.591 42.8132 187.847 40.5114 188.359 38.3247H173.899C173.515 40.5114 173.387 42.8132 173.259 45.115Z" fill="url(#paint141_linear_85_4850)"/>
<path d="M256.946 79.4115H240.311C235.064 83.6698 228.41 86.2018 220.349 86.2018H250.036C252.467 84.2453 254.77 82.0586 256.946 79.4115Z" fill="url(#paint142_linear_85_4850)"/>
<path d="M200.387 79.4115H183.112C185.16 81.9435 187.463 84.2453 190.022 86.2018H220.349C212.287 86.3169 205.633 83.6698 200.387 79.4115Z" fill="url(#paint143_linear_85_4850)"/>
<path d="M220.989 0C216.638 0 212.671 0.575446 208.704 1.49616H233.273C229.434 0.575446 225.339 0 220.989 0Z" fill="url(#paint144_linear_85_4850)"/>
<path d="M183.24 17.6087H199.363C204.61 12.7749 211.648 9.89768 220.349 9.89768C229.05 9.89768 235.96 12.89 241.207 17.6087H258.225C254.898 13.0051 250.548 9.20714 245.557 6.32991H196.292C191.174 9.20714 186.823 13.0051 183.24 17.6087Z" fill="url(#paint145_linear_85_4850)"/>
<path d="M284.841 60.3067H298.277V52.4807H337.433V49.9487H284.841V60.3067Z" fill="url(#paint146_linear_85_4850)"/>
<path d="M298.149 79.4115H284.841V86.2018H298.149V79.4115Z" fill="url(#paint147_linear_85_4850)"/>
<path d="M298.149 64.7952H284.841V73.1967H298.149V64.7952Z" fill="url(#paint148_linear_85_4850)"/>
<path d="M282.41 17.6087H295.718V11.624H338.073V6.32991H282.41V17.6087Z" fill="url(#paint149_linear_85_4850)"/>
<path d="M298.149 22.6726H284.841V34.5268H298.149V22.6726Z" fill="url(#paint150_linear_85_4850)"/>
<path d="M298.149 90.1149H284.841V94.6033H298.149V90.1149Z" fill="url(#paint151_linear_85_4850)"/>
<path d="M284.841 46.9564H337.433V44.3093H298.277V40.1661H284.841V46.9564Z" fill="url(#paint152_linear_85_4850)"/>
<path d="M352.789 3.10741H338.073V7.94115H352.789V3.10741Z" fill="url(#paint153_linear_85_4850)"/>
<path d="M49.5209 1.49616H23.6728C20.0899 1.84143 16.7629 2.30179 14.2037 2.76214V6.32991H64.7483C60.6535 3.91304 55.791 2.30179 49.5209 1.49616Z" fill="url(#paint154_linear_85_4850)"/>
<path d="M97.3784 6.32991H148.435C144.34 4.02812 139.35 2.41688 133.207 1.49616H106.975C103.393 1.84143 100.194 2.1867 97.3784 2.64705V6.32991V6.32991Z" fill="url(#paint155_linear_85_4850)"/>
<path d="M248.372 6.32991C244.662 4.2583 240.567 2.53197 236.088 1.49616H211.52C207.041 2.53197 202.818 4.14321 199.107 6.32991H248.372Z" fill="url(#paint156_linear_85_4850)"/>
<path d="M340.504 3.10741H284.841V7.94115H340.504V3.10741Z" fill="url(#paint157_linear_85_4850)"/>
<path d="M121.563 97.5956V94.2581H95.0751C95.7149 95.2939 95.9708 96.4447 96.0988 97.5956H121.563Z" fill="url(#paint158_linear_85_4850)"/>
<path d="M30.3268 16.3427H0V18.8746H30.3268V16.3427Z" fill="url(#paint159_linear_85_4850)"/>
<path d="M78.4401 22.6726C78.3122 20.8312 78.0562 19.1048 77.5444 17.6087H62.9568C63.8526 18.9897 64.4924 20.7161 64.7483 22.6726H78.4401Z" fill="url(#paint160_linear_85_4850)"/>
<path d="M115.293 21.4066H97.3784V23.9386H115.293V21.4066Z" fill="url(#paint161_linear_85_4850)"/>
<path d="M158.544 22.6726C158.16 20.8312 157.648 19.2199 157.008 17.6087H142.037C143.316 19.1048 144.084 20.8312 144.724 22.6726H158.544Z" fill="url(#paint162_linear_85_4850)"/>
<path d="M192.581 22.6726C193.861 21.2915 195.397 20.1406 197.06 18.9897H180.937C179.657 20.1406 178.506 21.4066 177.482 22.6726H192.581Z" fill="url(#paint163_linear_85_4850)"/>
<path d="M270.638 18.9897C269.23 18.4143 267.695 17.9539 265.903 17.4936H240.951C243.382 17.9539 245.557 18.5294 247.605 18.9897H270.638Z" fill="url(#paint164_linear_85_4850)"/>
<path d="M298.149 17.6087H284.841V20.8312H298.149V17.6087Z" fill="url(#paint165_linear_85_4850)"/>
<path d="M114.269 38.3247C114.781 37.1738 115.165 36.0229 115.421 34.6418H92.7718V38.4398H114.269V38.3247Z" fill="url(#paint166_linear_85_4850)"/>
<path d="M74.9852 32.4552H61.2933C59.8858 34.0664 57.9664 35.3324 55.6631 36.3682H71.4023C72.8098 35.2173 73.9615 33.8362 74.9852 32.4552Z" fill="url(#paint167_linear_85_4850)"/>
<path d="M27.5116 34.4117H14.2037V36.9436H27.5116V34.4117Z" fill="url(#paint168_linear_85_4850)"/>
<path d="M163.15 32.6853H149.586C149.203 34.0664 148.563 35.4475 147.923 36.5984H162.127C162.511 35.3324 162.894 34.0664 163.15 32.6853Z" fill="url(#paint169_linear_85_4850)"/>
<path d="M110.686 34.4117H97.3784V38.3247H110.686V34.4117Z" fill="url(#paint170_linear_85_4850)"/>
<path d="M191.942 38.5549C192.198 37.1738 192.453 35.9078 192.837 34.6418H178.634C178.25 36.0229 177.738 37.1738 177.482 38.5549H191.942Z" fill="url(#paint171_linear_85_4850)"/>
<path d="M254.77 38.3247H269.23C268.974 37.6342 268.718 37.0587 268.334 36.3682H253.875C254.259 37.0587 254.515 37.7493 254.77 38.3247Z" fill="url(#paint172_linear_85_4850)"/>
<path d="M298.149 34.4117H284.841V36.5984H298.149V34.4117Z" fill="url(#paint173_linear_85_4850)"/>
<path d="M355.348 44.1943H336.921V49.6035H355.348V44.1943Z" fill="url(#paint174_linear_85_4850)"/>
<path d="M146.899 53.7467C146.899 52.4807 147.155 51.2147 147.283 49.9487H129.497C128.729 50.8694 127.961 51.9052 127.065 52.7109C126.298 53.5165 125.274 54.0919 124.25 54.7825H147.027C147.027 54.4372 146.899 54.0919 146.899 53.7467Z" fill="url(#paint175_linear_85_4850)"/>
<path d="M38.6442 49.9487H69.8667C66.6677 47.6469 62.9568 46.0357 59.5019 45.115H14.2037V49.9487H27.5116H38.6442Z" fill="url(#paint176_linear_85_4850)"/>
<path d="M153.169 47.8771C154.065 47.0715 154.833 46.0357 155.601 45.115H137.814C133.591 47.3017 128.217 48.4526 121.819 48.4526C117.34 48.4526 113.629 48.2224 110.814 47.5318V45.115H97.3784V49.9487H150.226C151.25 49.2582 152.274 48.6827 153.169 47.8771Z" fill="url(#paint177_linear_85_4850)"/>
<path d="M251.315 47.6469C251.315 48.4526 251.188 49.2582 251.188 49.9487H265.263C265.263 48.9129 265.519 48.1073 265.519 47.0715C265.519 46.381 265.391 45.8055 265.391 45.115H251.315C251.188 45.9206 251.315 46.8413 251.315 47.6469Z" fill="url(#paint178_linear_85_4850)"/>
<path d="M173.515 47.8771C173.515 47.9922 173.643 48.1073 173.643 48.1073H187.975C187.975 47.9922 187.847 47.8771 187.847 47.762C187.847 47.4167 187.975 47.1866 188.103 46.9564H173.899C173.771 47.3017 173.515 47.5318 173.515 47.8771Z" fill="url(#paint179_linear_85_4850)"/>
<path d="M337.305 44.5395H284.841V49.3733H337.305V44.5395Z" fill="url(#paint180_linear_85_4850)"/>
<path d="M161.231 63.6443H188.743C188.998 62.9538 189.254 62.1482 189.382 61.3425H160.463C160.719 62.1482 160.975 62.9538 161.231 63.6443Z" fill="url(#paint181_linear_85_4850)"/>
<path d="M23.6728 60.3067H10.3649V64.7952H23.6728V60.3067Z" fill="url(#paint182_linear_85_4850)"/>
<path d="M77.6724 62.7236H59.8858C60.7815 63.0689 61.4213 63.4142 61.6772 63.8745H79.0799C78.824 63.5292 78.3122 63.0689 77.6724 62.7236Z" fill="url(#paint183_linear_85_4850)"/>
<path d="M109.791 60.3067H97.3784V67.7875H109.791V60.3067Z" fill="url(#paint184_linear_85_4850)"/>
<path d="M172.236 64.7952H187.079C186.567 63.2991 186.055 61.8029 185.671 60.3067H171.084C171.34 61.918 171.724 63.2991 172.236 64.7952Z" fill="url(#paint185_linear_85_4850)"/>
<path d="M250.292 62.8387H264.751C265.263 62.2633 265.647 61.8029 266.031 61.2275H251.699C251.315 61.6878 250.804 62.2633 250.292 62.8387Z" fill="url(#paint186_linear_85_4850)"/>
<path d="M299.301 60.3067H285.993V62.8387H299.301V60.3067Z" fill="url(#paint187_linear_85_4850)"/>
<path d="M157.52 75.1533C158.928 76.3041 160.463 77.3399 162.255 78.2607H195.652C197.444 77.3399 198.979 76.3041 200.387 75.1533H157.52V75.1533Z" fill="url(#paint188_linear_85_4850)"/>
<path d="M277.548 99.2069H305.571V94.6033H281.77C280.491 96.2146 279.083 97.7107 277.548 99.2069Z" fill="url(#paint189_linear_85_4850)"/>
<path d="M27.5116 75.7287H14.2037V77.5701H27.5116V75.7287Z" fill="url(#paint190_linear_85_4850)"/>
<path d="M64.4924 74.3476C63.7246 76.3041 62.445 78.0305 60.6535 79.4115H76.5207C77.5444 77.8003 78.3122 76.1891 78.824 74.2325H64.4924V74.3476Z" fill="url(#paint191_linear_85_4850)"/>
<path d="M110.686 73.1967H97.3784V79.4115H110.686V73.1967Z" fill="url(#paint192_linear_85_4850)"/>
<path d="M179.018 73.1967C180.169 75.3834 181.577 77.455 183.112 79.4115H200.387C198.212 77.6852 196.42 75.4985 194.757 73.1967H179.018Z" fill="url(#paint193_linear_85_4850)"/>
<path d="M240.183 79.6417H261.424C263.344 78.8361 265.135 78.0305 266.671 77.2249H247.221C245.301 78.1456 242.87 78.9512 240.183 79.6417Z" fill="url(#paint194_linear_85_4850)"/>
<path d="M297.126 73.1967H283.818V76.3041H297.126V73.1967Z" fill="url(#paint195_linear_85_4850)"/>
<path d="M71.0184 86.3169H14.2037V90.1149H65.1322C67.1795 89.0791 69.099 88.0433 70.6345 86.6622C70.7624 86.5471 70.8904 86.432 71.0184 86.3169Z" fill="url(#paint196_linear_85_4850)"/>
<path d="M110.686 86.3169H97.3784V90.1149H110.686V86.3169Z" fill="url(#paint197_linear_85_4850)"/>
<path d="M213.311 86.3169H182.984C184.776 87.698 186.695 89.0791 188.743 90.1149H236.984C239.031 88.964 240.951 87.698 242.87 86.3169H213.311Z" fill="url(#paint198_linear_85_4850)"/>
<path d="M306.723 88.5036H284.841V90.1149H306.723V88.5036Z" fill="url(#paint199_linear_85_4850)"/>
</g>
<path d="M31.1638 16.7266C33.3391 16.2662 36.922 15.921 43.0642 15.921C52.7892 15.921 60.083 18.2227 63.5379 23.4018H78.1255C76.8459 19.2585 74.2867 15.8059 70.5758 13.389C69.936 12.9286 69.1682 12.5834 68.4004 12.123H17.8558V23.4018H31.1638V16.7266V16.7266Z" fill="white"/>
<path d="M82.7321 70.5883H68.5284C68.7843 71.6241 68.9123 72.5448 68.9123 73.6957C68.9123 75.6523 68.5284 77.3786 68.0166 78.9898H82.3482C82.7321 77.3786 82.988 75.6523 82.988 73.8108C83.1159 72.6599 82.86 71.6241 82.7321 70.5883Z" fill="white"/>
<path d="M42.2964 6.59873C37.05 6.59873 31.9315 6.82891 27.4529 7.28927H53.301C49.974 6.944 46.3911 6.59873 42.2964 6.59873Z" fill="white"/>
<path d="M79.2771 29.8467C79.2771 29.3864 79.1492 28.926 79.1492 28.4657H65.4573C65.5853 29.2713 65.7133 30.192 65.7133 31.1127C65.7133 34.5654 64.4336 37.7879 62.0024 40.3199H75.6942C77.8696 37.0974 79.2771 33.6447 79.2771 29.8467Z" fill="white"/>
<path d="M31.1638 28.4657H17.8558V40.3199H31.1638V28.4657Z" fill="white"/>
<path d="M69.4241 66.0999H84.0117C82.3482 61.7265 79.4051 58.2738 75.9501 55.7418H44.5997C55.8603 55.7418 65.5853 58.8492 69.4241 66.0999Z" fill="white"/>
<path d="M31.1638 55.7418H17.8558V66.0999H31.1638V55.7418Z" fill="white"/>
<path d="M59.827 50.5628V50.2175C64.0498 48.8365 67.3767 46.6498 70.1919 44.1178H54.5806C50.9977 45.7291 46.6471 46.6498 41.4006 46.6498H29.3723V44.1178H15.9364V50.9081H61.2346C60.8507 50.793 60.3389 50.5628 59.827 50.5628Z" fill="white"/>
<path d="M77.4857 85.2047H61.6185C56.628 89.9233 48.4385 91.7647 39.7372 91.7647C35.0026 91.7647 31.1638 91.6497 28.4766 91.1893V85.2047H15.1686V92.11H71.9833C74.1587 90.0384 76.0781 87.7366 77.4857 85.2047Z" fill="white"/>
<path d="M31.1638 70.5883H17.8558V78.9898H31.1638V70.5883Z" fill="white"/>
<path d="M17.8558 100.051C22.3345 100.627 29.3723 101.202 38.5855 101.202C51.7655 101.202 61.6185 99.4757 68.7843 95.908H17.8558V100.051Z" fill="white"/>
<path d="M126.751 6.59873C120.609 6.59873 115.362 6.82891 110.628 7.28927H136.86C133.789 6.944 130.334 6.59873 126.751 6.59873Z" fill="white"/>
<path d="M114.338 28.4657H101.031V39.0539H114.338V28.4657Z" fill="white"/>
<path d="M150.551 40.2048H164.115C164.499 38.1332 164.755 36.0616 164.755 33.7598C164.755 31.9184 164.499 30.0769 164.243 28.3506H150.423C151.063 30.192 151.447 32.0334 151.447 34.3352C151.447 36.5219 151.063 38.3634 150.551 40.2048Z" fill="white"/>
<path d="M131.485 89.1177H102.566V92.5704H131.485V89.1177Z" fill="white"/>
<path d="M114.338 95.908H101.031V100.396H114.338V95.908Z" fill="white"/>
<path d="M115.234 74.8466H96.4239V75.8824H115.234V74.8466Z" fill="white"/>
<path d="M112.035 63.1075C115.106 63.7981 118.817 63.9132 122.784 63.9132C134.3 63.9132 144.409 61.0359 151.575 55.7418H98.7272V66.0999H112.035V63.1075V63.1075Z" fill="white"/>
<path d="M114.338 44.1178H101.031V50.9081H114.338V44.1178Z" fill="white"/>
<path d="M115.874 23.4018V17.0718C118.177 16.6115 122.656 16.1511 128.542 16.1511C137.883 16.1511 145.049 18.568 149.144 23.4018H164.115C162.58 19.834 160.276 16.7266 157.205 14.4248C156.182 13.6192 154.902 12.9286 153.623 12.123H102.566V23.4018H115.874Z" fill="white"/>
<path d="M148.76 44.1178C147.096 46.995 144.665 49.1817 141.466 50.9081H159.253C160.916 48.9516 162.196 46.6498 163.092 44.1178H148.76Z" fill="white"/>
<path d="M177.807 66.0999H192.395C191.499 62.7623 190.987 59.3096 190.859 55.7418H176.528C176.783 59.4247 177.167 62.7623 177.807 66.0999Z" fill="white"/>
<path d="M179.087 70.5883C179.982 73.5806 181.134 76.3428 182.67 78.9898H198.409C196.617 76.4579 195.082 73.5806 193.93 70.5883H179.087V70.5883Z" fill="white"/>
<path d="M192.779 40.2048C194.058 35.8314 195.978 31.9184 198.409 28.3506H183.309C181.262 31.9184 179.727 35.8314 178.575 40.2048H192.779Z" fill="white"/>
<path d="M256.887 50.9081H270.963C270.835 48.6063 270.707 46.3045 270.451 44.1178H255.991C256.503 46.4196 256.759 48.6063 256.887 50.9081Z" fill="white"/>
<path d="M255.352 66.0999H269.683C270.451 62.8774 270.835 59.4247 270.963 55.7418H256.887C256.759 59.3096 256.247 62.7623 255.352 66.0999Z" fill="white"/>
<path d="M255.096 40.2048H269.555C268.532 35.9465 267.124 32.0334 265.077 28.3506H249.337C251.897 31.9184 253.816 35.9465 255.096 40.2048Z" fill="white"/>
<path d="M249.465 78.9898H264.693C266.1 76.3428 267.38 73.5806 268.276 70.5883H253.816C252.792 73.6957 251.257 76.4579 249.465 78.9898Z" fill="white"/>
<path d="M223.105 101.893C232.063 101.893 240.38 99.821 247.546 95.908H199.433C206.214 99.5908 214.148 101.893 223.105 101.893Z" fill="white"/>
<path d="M176.911 50.9081H191.115C191.243 48.6063 191.499 46.3045 192.011 44.1178H177.551C177.167 46.3045 177.039 48.6063 176.911 50.9081Z" fill="white"/>
<path d="M260.598 85.2047H243.963C238.717 89.463 232.063 91.9949 224.001 91.9949H253.688C256.119 90.0384 258.423 87.8517 260.598 85.2047Z" fill="white"/>
<path d="M204.039 85.2047H186.764C188.812 87.7366 191.115 90.0384 193.674 91.9949H224.001C215.94 92.11 209.286 89.4629 204.039 85.2047Z" fill="white"/>
<path d="M224.641 5.79311C220.29 5.79311 216.323 6.36855 212.357 7.28927H236.925C233.086 6.36855 228.992 5.79311 224.641 5.79311Z" fill="white"/>
<path d="M186.892 23.4018H203.015C208.262 18.568 215.3 15.6908 224.001 15.6908C232.702 15.6908 239.612 18.6831 244.859 23.4018H261.878C258.551 18.7982 254.2 15.0002 249.209 12.123H199.944C194.826 15.0002 190.475 18.7982 186.892 23.4018Z" fill="white"/>
<path d="M288.493 66.0999H301.929V58.2738H341.085V55.7418H288.493V66.0999Z" fill="white"/>
<path d="M301.801 85.2047H288.493V91.9949H301.801V85.2047Z" fill="white"/>
<path d="M301.801 70.5883H288.493V78.9898H301.801V70.5883Z" fill="white"/>
<path d="M286.062 23.4018H299.37V17.4171H341.725V12.123H286.062V23.4018Z" fill="white"/>
<path d="M301.801 28.4657H288.493V40.3199H301.801V28.4657Z" fill="white"/>
<path d="M301.801 95.908H288.493V100.396H301.801V95.908Z" fill="white"/>
<path d="M288.493 52.7495H341.085V50.1024H301.929V45.9592H288.493V52.7495Z" fill="white"/>
<path d="M356.441 8.90051H341.725V13.7343H356.441V8.90051Z" fill="white"/>
<path d="M53.1731 7.28927H27.3249C23.742 7.63454 20.415 8.09489 17.8558 8.55525V12.123H68.4004C64.3057 9.70614 59.4432 8.09489 53.1731 7.28927Z" fill="white"/>
<path d="M101.031 12.123H152.087C147.992 9.82123 143.002 8.20998 136.86 7.28927H110.628C107.045 7.63454 103.846 7.9798 101.031 8.44016V12.123V12.123Z" fill="white"/>
<path d="M252.025 12.123C248.314 10.0514 244.219 8.32507 239.74 7.28927H215.172C210.693 8.32507 206.47 9.93632 202.76 12.123H252.025Z" fill="white"/>
<path d="M344.157 8.90051H288.493V13.7343H344.157V8.90051Z" fill="white"/>
<path d="M125.215 103.389V100.051H98.7272C99.367 101.087 99.6229 102.238 99.7509 103.389H125.215Z" fill="white"/>
<path d="M33.9789 22.1358H3.65215V24.6677H33.9789V22.1358Z" fill="white"/>
<path d="M82.0923 28.4657C81.9643 26.6242 81.7084 24.8979 81.1965 23.4017H66.609C67.5047 24.7828 68.1445 26.5092 68.4004 28.4657H82.0923Z" fill="white"/>
<path d="M118.945 27.1997H101.031V29.7317H118.945V27.1997Z" fill="white"/>
<path d="M162.196 28.4657C161.812 26.6242 161.3 25.013 160.66 23.4017H145.689C146.969 24.8979 147.736 26.6242 148.376 28.4657H162.196Z" fill="white"/>
<path d="M196.234 28.4657C197.513 27.0846 199.049 25.9337 200.712 24.7828H184.589C183.309 25.9337 182.158 27.1997 181.134 28.4657H196.234Z" fill="white"/>
<path d="M274.29 24.7828C272.882 24.2074 271.347 23.747 269.555 23.2867H244.603C247.034 23.747 249.209 24.3225 251.257 24.7828H274.29Z" fill="white"/>
<path d="M301.801 23.4017H288.493V26.6242H301.801V23.4017Z" fill="white"/>
<path d="M117.921 44.1178C118.433 42.9669 118.817 41.816 119.073 40.435H96.4239V44.2329H117.921V44.1178Z" fill="white"/>
<path d="M78.6373 38.2483H64.9455C63.5379 39.8595 61.6185 41.1255 59.3152 42.1613H75.0544C76.462 41.0104 77.6136 39.6293 78.6373 38.2483Z" fill="white"/>
<path d="M31.1638 40.2048H17.8558V42.7367H31.1638V40.2048Z" fill="white"/>
<path d="M166.802 38.4784H153.239C152.855 39.8595 152.215 41.2406 151.575 42.3915H165.779C166.163 41.1255 166.547 39.8595 166.802 38.4784Z" fill="white"/>
<path d="M114.338 40.2048H101.031V44.1178H114.338V40.2048Z" fill="white"/>
<path d="M195.594 44.348C195.85 42.9669 196.106 41.7009 196.489 40.435H182.286C181.902 41.816 181.39 42.9669 181.134 44.348H195.594Z" fill="white"/>
<path d="M258.423 44.1178H272.882C272.626 43.4273 272.37 42.8518 271.986 42.1613H257.527C257.911 42.8518 258.167 43.5424 258.423 44.1178Z" fill="white"/>
<path d="M301.801 40.2048H288.493V42.3915H301.801V40.2048Z" fill="white"/>
<path d="M359 49.9874H340.574V55.3966H359V49.9874Z" fill="white"/>
<path d="M150.551 59.5398C150.551 58.2738 150.807 57.0078 150.935 55.7418H133.149C132.381 56.6625 131.613 57.6983 130.717 58.504C129.95 59.3096 128.926 59.885 127.902 60.5756H150.679C150.679 60.2303 150.551 59.885 150.551 59.5398Z" fill="white"/>
<path d="M42.2964 55.7418H73.5189C70.3199 53.44 66.609 51.8288 63.154 50.9081H17.8558V55.7418H31.1638H42.2964Z" fill="white"/>
<path d="M156.822 53.6702C157.717 52.8646 158.485 51.8288 159.253 50.9081H141.466C137.244 53.0948 131.869 54.2457 125.471 54.2457C120.992 54.2457 117.282 54.0155 114.466 53.325V50.9081H101.031V55.7418H153.878C154.902 55.0513 155.926 54.4758 156.822 53.6702Z" fill="white"/>
<path d="M254.968 53.44C254.968 54.2457 254.84 55.0513 254.84 55.7418H268.915C268.915 54.706 269.171 53.9004 269.171 52.8646C269.171 52.1741 269.043 51.5986 269.043 50.9081H254.968C254.84 51.7137 254.968 52.6344 254.968 53.44Z" fill="white"/>
<path d="M177.167 53.6702C177.167 53.7853 177.295 53.9004 177.295 53.9004H191.627C191.627 53.7853 191.499 53.6702 191.499 53.5551C191.499 53.2099 191.627 52.9797 191.755 52.7495H177.551C177.423 53.0948 177.167 53.3249 177.167 53.6702Z" fill="white"/>
<path d="M340.957 50.3326H288.493V55.1664H340.957V50.3326Z" fill="white"/>
<path d="M164.883 69.4374H192.395C192.651 68.7469 192.907 67.9413 193.035 67.1357H164.115C164.371 67.9413 164.627 68.7469 164.883 69.4374Z" fill="white"/>
<path d="M27.3249 66.0998H14.017V70.5883H27.3249V66.0998Z" fill="white"/>
<path d="M81.3245 68.5167H63.5379C64.4336 68.862 65.0734 69.2073 65.3294 69.6676H82.7321C82.4762 69.3223 81.9643 68.862 81.3245 68.5167Z" fill="white"/>
<path d="M113.443 66.0998H101.031V73.5806H113.443V66.0998Z" fill="white"/>
<path d="M175.888 70.5883H190.731C190.219 69.0922 189.708 67.596 189.324 66.0998H174.736C174.992 67.7111 175.376 69.0922 175.888 70.5883Z" fill="white"/>
<path d="M253.944 68.6318H268.404C268.915 68.0564 269.299 67.596 269.683 67.0206H255.352C254.968 67.4809 254.456 68.0564 253.944 68.6318Z" fill="white"/>
<path d="M302.953 66.0998H289.645V68.6318H302.953V66.0998Z" fill="white"/>
<path d="M161.172 80.9464C162.58 82.0973 164.115 83.1331 165.907 84.0538H199.305C201.096 83.1331 202.632 82.0973 204.039 80.9464H161.172V80.9464Z" fill="white"/>
<path d="M281.2 105H309.223V100.396H285.422C284.143 102.008 282.735 103.504 281.2 105Z" fill="white"/>
<path d="M31.1638 81.5218H17.8558V83.3632H31.1638V81.5218Z" fill="white"/>
<path d="M68.1445 80.1407C67.3768 82.0972 66.0971 83.8236 64.3057 85.2047H80.1729C81.1965 83.5934 81.9643 81.9822 82.4762 80.0256H68.1445V80.1407Z" fill="white"/>
<path d="M114.338 78.9898H101.031V85.2047H114.338V78.9898Z" fill="white"/>
<path d="M182.67 78.9898C183.821 81.1765 185.229 83.2481 186.764 85.2047H204.039C201.864 83.4783 200.072 81.2916 198.409 78.9898H182.67Z" fill="white"/>
<path d="M243.835 85.4348H265.077C266.996 84.6292 268.787 83.8236 270.323 83.018H250.873C248.953 83.9387 246.522 84.7443 243.835 85.4348Z" fill="white"/>
<path d="M300.778 78.9898H287.47V82.0972H300.778V78.9898Z" fill="white"/>
<path d="M74.6705 92.11H17.8558V95.908H68.7843C70.8317 94.8721 72.7511 93.8363 74.2866 92.4553C74.4146 92.3402 74.5426 92.2251 74.6705 92.11Z" fill="white"/>
<path d="M114.338 92.11H101.031V95.908H114.338V92.11Z" fill="white"/>
<path d="M216.963 92.11H186.636C188.428 93.4911 190.347 94.8721 192.395 95.908H240.636C242.683 94.7571 244.603 93.4911 246.522 92.11H216.963Z" fill="white"/>
<path d="M310.375 94.2967H288.493V95.908H310.375V94.2967Z" fill="white"/>
<path d="M31.1638 16.7266C33.3391 16.2662 36.922 15.921 43.0642 15.921C52.7892 15.921 60.083 18.2227 63.5379 23.4018H78.1255C76.8459 19.2585 74.2867 15.8059 70.5758 13.389C69.936 12.9286 69.1682 12.5834 68.4004 12.123H17.8558V23.4018H31.1638V16.7266V16.7266Z" fill="white"/>
<path d="M82.7321 70.5883H68.5284C68.7843 71.6241 68.9123 72.5448 68.9123 73.6957C68.9123 75.6523 68.5284 77.3786 68.0166 78.9898H82.3482C82.7321 77.3786 82.988 75.6523 82.988 73.8108C83.1159 72.6599 82.86 71.6241 82.7321 70.5883Z" fill="white"/>
<path d="M42.2964 6.59873C37.05 6.59873 31.9315 6.82891 27.4529 7.28927H53.301C49.974 6.944 46.3911 6.59873 42.2964 6.59873Z" fill="white"/>
<path d="M79.2771 29.8467C79.2771 29.3864 79.1492 28.926 79.1492 28.4657H65.4573C65.5853 29.2713 65.7133 30.192 65.7133 31.1127C65.7133 34.5654 64.4336 37.7879 62.0024 40.3199H75.6942C77.8696 37.0974 79.2771 33.6447 79.2771 29.8467Z" fill="white"/>
<path d="M31.1638 28.4657H17.8558V40.3199H31.1638V28.4657Z" fill="white"/>
<path d="M69.4241 66.0999H84.0117C82.3482 61.7265 79.4051 58.2738 75.9501 55.7418H44.5997C55.8603 55.7418 65.5853 58.8492 69.4241 66.0999Z" fill="white"/>
<path d="M31.1638 55.7418H17.8558V66.0999H31.1638V55.7418Z" fill="white"/>
<path d="M59.827 50.5628V50.2175C64.0498 48.8365 67.3767 46.6498 70.1919 44.1178H54.5806C50.9977 45.7291 46.6471 46.6498 41.4006 46.6498H29.3723V44.1178H15.9364V50.9081H61.2346C60.8507 50.793 60.3389 50.5628 59.827 50.5628Z" fill="white"/>
<path d="M77.4857 85.2047H61.6185C56.628 89.9233 48.4385 91.7647 39.7372 91.7647C35.0026 91.7647 31.1638 91.6497 28.4766 91.1893V85.2047H15.1686V92.11H71.9833C74.1587 90.0384 76.0781 87.7366 77.4857 85.2047Z" fill="white"/>
<path d="M31.1638 70.5883H17.8558V78.9898H31.1638V70.5883Z" fill="white"/>
<path d="M17.8558 100.051C22.3345 100.627 29.3723 101.202 38.5855 101.202C51.7655 101.202 61.6185 99.4757 68.7843 95.908H17.8558V100.051Z" fill="white"/>
<path d="M126.751 6.59873C120.609 6.59873 115.362 6.82891 110.628 7.28927H136.86C133.789 6.944 130.334 6.59873 126.751 6.59873Z" fill="white"/>
<path d="M114.338 28.4657H101.031V39.0539H114.338V28.4657Z" fill="white"/>
<path d="M150.551 40.2048H164.115C164.499 38.1332 164.755 36.0616 164.755 33.7598C164.755 31.9184 164.499 30.0769 164.243 28.3506H150.423C151.063 30.192 151.447 32.0334 151.447 34.3352C151.447 36.5219 151.063 38.3634 150.551 40.2048Z" fill="white"/>
<path d="M131.485 89.1177H102.566V92.5704H131.485V89.1177Z" fill="white"/>
<path d="M114.338 95.908H101.031V100.396H114.338V95.908Z" fill="white"/>
<path d="M115.234 74.8466H96.4239V75.8824H115.234V74.8466Z" fill="white"/>
<path d="M112.035 63.1075C115.106 63.7981 118.817 63.9132 122.784 63.9132C134.3 63.9132 144.409 61.0359 151.575 55.7418H98.7272V66.0999H112.035V63.1075V63.1075Z" fill="white"/>
<path d="M114.338 44.1178H101.031V50.9081H114.338V44.1178Z" fill="white"/>
<path d="M115.874 23.4018V17.0718C118.177 16.6115 122.656 16.1511 128.542 16.1511C137.883 16.1511 145.049 18.568 149.144 23.4018H164.115C162.58 19.834 160.276 16.7266 157.205 14.4248C156.182 13.6192 154.902 12.9286 153.623 12.123H102.566V23.4018H115.874Z" fill="white"/>
<path d="M148.76 44.1178C147.096 46.995 144.665 49.1817 141.466 50.9081H159.253C160.916 48.9516 162.196 46.6498 163.092 44.1178H148.76Z" fill="white"/>
<path d="M177.807 66.0999H192.395C191.499 62.7623 190.987 59.3096 190.859 55.7418H176.528C176.783 59.4247 177.167 62.7623 177.807 66.0999Z" fill="white"/>
<path d="M179.087 70.5883C179.982 73.5806 181.134 76.3428 182.67 78.9898H198.409C196.617 76.4579 195.082 73.5806 193.93 70.5883H179.087V70.5883Z" fill="white"/>
<path d="M192.779 40.2048C194.058 35.8314 195.978 31.9184 198.409 28.3506H183.309C181.262 31.9184 179.727 35.8314 178.575 40.2048H192.779Z" fill="white"/>
<path d="M256.887 50.9081H270.963C270.835 48.6063 270.707 46.3045 270.451 44.1178H255.991C256.503 46.4196 256.759 48.6063 256.887 50.9081Z" fill="white"/>
<path d="M255.352 66.0999H269.683C270.451 62.8774 270.835 59.4247 270.963 55.7418H256.887C256.759 59.3096 256.247 62.7623 255.352 66.0999Z" fill="white"/>
<path d="M255.096 40.2048H269.555C268.532 35.9465 267.124 32.0334 265.077 28.3506H249.337C251.897 31.9184 253.816 35.9465 255.096 40.2048Z" fill="white"/>
<path d="M249.465 78.9898H264.693C266.1 76.3428 267.38 73.5806 268.276 70.5883H253.816C252.792 73.6957 251.257 76.4579 249.465 78.9898Z" fill="white"/>
<path d="M223.105 101.893C232.063 101.893 240.38 99.821 247.546 95.908H199.433C206.214 99.5908 214.148 101.893 223.105 101.893Z" fill="white"/>
<path d="M176.911 50.9081H191.115C191.243 48.6063 191.499 46.3045 192.011 44.1178H177.551C177.167 46.3045 177.039 48.6063 176.911 50.9081Z" fill="white"/>
<path d="M260.598 85.2047H243.963C238.717 89.463 232.063 91.9949 224.001 91.9949H253.688C256.119 90.0384 258.423 87.8517 260.598 85.2047Z" fill="white"/>
<path d="M204.039 85.2047H186.764C188.812 87.7366 191.115 90.0384 193.674 91.9949H224.001C215.94 92.11 209.286 89.4629 204.039 85.2047Z" fill="white"/>
<path d="M224.641 5.79311C220.29 5.79311 216.323 6.36855 212.357 7.28927H236.925C233.086 6.36855 228.992 5.79311 224.641 5.79311Z" fill="white"/>
<path d="M186.892 23.4018H203.015C208.262 18.568 215.3 15.6908 224.001 15.6908C232.702 15.6908 239.612 18.6831 244.859 23.4018H261.878C258.551 18.7982 254.2 15.0002 249.209 12.123H199.944C194.826 15.0002 190.475 18.7982 186.892 23.4018Z" fill="white"/>
<path d="M288.493 66.0999H301.929V58.2738H341.085V55.7418H288.493V66.0999Z" fill="white"/>
<path d="M301.801 85.2047H288.493V91.9949H301.801V85.2047Z" fill="white"/>
<path d="M301.801 70.5883H288.493V78.9898H301.801V70.5883Z" fill="white"/>
<path d="M286.062 23.4018H299.37V17.4171H341.725V12.123H286.062V23.4018Z" fill="white"/>
<path d="M301.801 28.4657H288.493V40.3199H301.801V28.4657Z" fill="white"/>
<path d="M301.801 95.908H288.493V100.396H301.801V95.908Z" fill="white"/>
<path d="M288.493 52.7495H341.085V50.1024H301.929V45.9592H288.493V52.7495Z" fill="white"/>
<path d="M356.441 8.90051H341.725V13.7343H356.441V8.90051Z" fill="white"/>
<path d="M53.1731 7.28927H27.3249C23.742 7.63454 20.415 8.09489 17.8558 8.55525V12.123H68.4004C64.3057 9.70614 59.4432 8.09489 53.1731 7.28927Z" fill="white"/>
<path d="M101.031 12.123H152.087C147.992 9.82123 143.002 8.20998 136.86 7.28927H110.628C107.045 7.63454 103.846 7.9798 101.031 8.44016V12.123V12.123Z" fill="white"/>
<path d="M252.025 12.123C248.314 10.0514 244.219 8.32507 239.74 7.28927H215.172C210.693 8.32507 206.47 9.93632 202.76 12.123H252.025Z" fill="white"/>
<path d="M344.157 8.90051H288.493V13.7343H344.157V8.90051Z" fill="white"/>
<path d="M125.215 103.389V100.051H98.7272C99.367 101.087 99.6229 102.238 99.7509 103.389H125.215Z" fill="white"/>
<path d="M33.9789 22.1358H3.65215V24.6677H33.9789V22.1358Z" fill="white"/>
<path d="M82.0923 28.4657C81.9643 26.6242 81.7084 24.8979 81.1965 23.4017H66.609C67.5047 24.7828 68.1445 26.5092 68.4004 28.4657H82.0923Z" fill="white"/>
<path d="M118.945 27.1997H101.031V29.7317H118.945V27.1997Z" fill="white"/>
<path d="M162.196 28.4657C161.812 26.6242 161.3 25.013 160.66 23.4017H145.689C146.969 24.8979 147.736 26.6242 148.376 28.4657H162.196Z" fill="white"/>
<path d="M196.234 28.4657C197.513 27.0846 199.049 25.9337 200.712 24.7828H184.589C183.309 25.9337 182.158 27.1997 181.134 28.4657H196.234Z" fill="white"/>
<path d="M274.29 24.7828C272.882 24.2074 271.347 23.747 269.555 23.2867H244.603C247.034 23.747 249.209 24.3225 251.257 24.7828H274.29Z" fill="white"/>
<path d="M301.801 23.4017H288.493V26.6242H301.801V23.4017Z" fill="white"/>
<path d="M117.921 44.1178C118.433 42.9669 118.817 41.816 119.073 40.435H96.4239V44.2329H117.921V44.1178Z" fill="white"/>
<path d="M78.6373 38.2483H64.9455C63.5379 39.8595 61.6185 41.1255 59.3152 42.1613H75.0544C76.462 41.0104 77.6136 39.6293 78.6373 38.2483Z" fill="white"/>
<path d="M31.1638 40.2048H17.8558V42.7367H31.1638V40.2048Z" fill="white"/>
<path d="M166.802 38.4784H153.239C152.855 39.8595 152.215 41.2406 151.575 42.3915H165.779C166.163 41.1255 166.547 39.8595 166.802 38.4784Z" fill="white"/>
<path d="M114.338 40.2048H101.031V44.1178H114.338V40.2048Z" fill="white"/>
<path d="M195.594 44.348C195.85 42.9669 196.106 41.7009 196.489 40.435H182.286C181.902 41.816 181.39 42.9669 181.134 44.348H195.594Z" fill="white"/>
<path d="M258.423 44.1178H272.882C272.626 43.4273 272.37 42.8518 271.986 42.1613H257.527C257.911 42.8518 258.167 43.5424 258.423 44.1178Z" fill="white"/>
<path d="M301.801 40.2048H288.493V42.3915H301.801V40.2048Z" fill="white"/>
<path d="M359 49.9874H340.574V55.3966H359V49.9874Z" fill="white"/>
<path d="M150.551 59.5398C150.551 58.2738 150.807 57.0078 150.935 55.7418H133.149C132.381 56.6625 131.613 57.6983 130.717 58.504C129.95 59.3096 128.926 59.885 127.902 60.5756H150.679C150.679 60.2303 150.551 59.885 150.551 59.5398Z" fill="white"/>
<path d="M42.2964 55.7418H73.5189C70.3199 53.44 66.609 51.8288 63.154 50.9081H17.8558V55.7418H31.1638H42.2964Z" fill="white"/>
<path d="M156.822 53.6702C157.717 52.8646 158.485 51.8288 159.253 50.9081H141.466C137.244 53.0948 131.869 54.2457 125.471 54.2457C120.992 54.2457 117.282 54.0155 114.466 53.325V50.9081H101.031V55.7418H153.878C154.902 55.0513 155.926 54.4758 156.822 53.6702Z" fill="white"/>
<path d="M254.968 53.44C254.968 54.2457 254.84 55.0513 254.84 55.7418H268.915C268.915 54.706 269.171 53.9004 269.171 52.8646C269.171 52.1741 269.043 51.5986 269.043 50.9081H254.968C254.84 51.7137 254.968 52.6344 254.968 53.44Z" fill="white"/>
<path d="M177.167 53.6702C177.167 53.7853 177.295 53.9004 177.295 53.9004H191.627C191.627 53.7853 191.499 53.6702 191.499 53.5551C191.499 53.2099 191.627 52.9797 191.755 52.7495H177.551C177.423 53.0948 177.167 53.3249 177.167 53.6702Z" fill="white"/>
<path d="M340.957 50.3326H288.493V55.1664H340.957V50.3326Z" fill="white"/>
<path d="M164.883 69.4374H192.395C192.651 68.7469 192.907 67.9413 193.035 67.1357H164.115C164.371 67.9413 164.627 68.7469 164.883 69.4374Z" fill="white"/>
<path d="M27.3249 66.0998H14.017V70.5883H27.3249V66.0998Z" fill="white"/>
<path d="M81.3245 68.5167H63.5379C64.4336 68.862 65.0734 69.2073 65.3294 69.6676H82.7321C82.4762 69.3223 81.9643 68.862 81.3245 68.5167Z" fill="white"/>
<path d="M113.443 66.0998H101.031V73.5806H113.443V66.0998Z" fill="white"/>
<path d="M175.888 70.5883H190.731C190.219 69.0922 189.708 67.596 189.324 66.0998H174.736C174.992 67.7111 175.376 69.0922 175.888 70.5883Z" fill="white"/>
<path d="M253.944 68.6318H268.404C268.915 68.0564 269.299 67.596 269.683 67.0206H255.352C254.968 67.4809 254.456 68.0564 253.944 68.6318Z" fill="white"/>
<path d="M302.953 66.0998H289.645V68.6318H302.953V66.0998Z" fill="white"/>
<path d="M161.172 80.9464C162.58 82.0973 164.115 83.1331 165.907 84.0538H199.305C201.096 83.1331 202.632 82.0973 204.039 80.9464H161.172V80.9464Z" fill="white"/>
<path d="M281.2 105H309.223V100.396H285.422C284.143 102.008 282.735 103.504 281.2 105Z" fill="white"/>
<path d="M31.1638 81.5218H17.8558V83.3632H31.1638V81.5218Z" fill="white"/>
<path d="M68.1445 80.1407C67.3768 82.0972 66.0971 83.8236 64.3057 85.2047H80.1729C81.1965 83.5934 81.9643 81.9822 82.4762 80.0256H68.1445V80.1407Z" fill="white"/>
<path d="M114.338 78.9898H101.031V85.2047H114.338V78.9898Z" fill="white"/>
<path d="M182.67 78.9898C183.821 81.1765 185.229 83.2481 186.764 85.2047H204.039C201.864 83.4783 200.072 81.2916 198.409 78.9898H182.67Z" fill="white"/>
<path d="M243.835 85.4348H265.077C266.996 84.6292 268.787 83.8236 270.323 83.018H250.873C248.953 83.9387 246.522 84.7443 243.835 85.4348Z" fill="white"/>
<path d="M300.778 78.9898H287.47V82.0972H300.778V78.9898Z" fill="white"/>
<path d="M74.6705 92.11H17.8558V95.908H68.7843C70.8317 94.8721 72.7511 93.8363 74.2866 92.4553C74.4146 92.3402 74.5426 92.2251 74.6705 92.11Z" fill="white"/>
<path d="M114.338 92.11H101.031V95.908H114.338V92.11Z" fill="white"/>
<path d="M216.963 92.11H186.636C188.428 93.4911 190.347 94.8721 192.395 95.908H240.636C242.683 94.7571 244.603 93.4911 246.522 92.11H216.963Z" fill="white"/>
<path d="M310.375 94.2967H288.493V95.908H310.375V94.2967Z" fill="white"/>
<defs>
<linearGradient id="paint0_linear_85_4850" x1="220.285" y1="64.7952" x2="220.285" y2="73.1967" gradientUnits="userSpaceOnUse">
<stop stop-color="#3B597D"/>
<stop offset="1" stop-color="#87B5F5"/>
</linearGradient>
<linearGradient id="paint1_linear_85_4850" x1="220.349" y1="38.3247" x2="220.349" y2="45.115" gradientUnits="userSpaceOnUse">
<stop stop-color="#3B597D"/>
<stop offset="1" stop-color="#87B5F5"/>
</linearGradient>
<linearGradient id="paint2_linear_85_4850" x1="40.1158" y1="38.3247" x2="40.1158" y2="40.8567" gradientUnits="userSpaceOnUse">
<stop stop-color="#3B597D"/>
<stop offset="1" stop-color="#87B5F5"/>
</linearGradient>
<linearGradient id="paint3_linear_85_4850" x1="77.8003" y1="38.3247" x2="77.8003" y2="44.9999" gradientUnits="userSpaceOnUse">
<stop stop-color="#3B597D"/>
<stop offset="1" stop-color="#87B5F5"/>
</linearGradient>
<linearGradient id="paint4_linear_85_4850" x1="83.6225" y1="49.9487" x2="83.6225" y2="60.3067" gradientUnits="userSpaceOnUse">
<stop stop-color="#3B597D"/>
<stop offset="1" stop-color="#87B5F5"/>
</linearGradient>
<linearGradient id="paint5_linear_85_4850" x1="46.3859" y1="64.7952" x2="46.3859" y2="73.1967" gradientUnits="userSpaceOnUse">
<stop stop-color="#3B597D"/>
<stop offset="1" stop-color="#87B5F5"/>
</linearGradient>
<linearGradient id="paint6_linear_85_4850" x1="45.4262" y1="49.9487" x2="45.4262" y2="60.3067" gradientUnits="userSpaceOnUse">
<stop stop-color="#3B597D"/>
<stop offset="1" stop-color="#87B5F5"/>
</linearGradient>
<linearGradient id="paint7_linear_85_4850" x1="127.961" y1="38.3247" x2="127.961" y2="45.115" gradientUnits="userSpaceOnUse">
<stop stop-color="#3B597D"/>
<stop offset="1" stop-color="#87B5F5"/>
</linearGradient>
<linearGradient id="paint8_linear_85_4850" x1="164.686" y1="38.3247" x2="164.686" y2="45.115" gradientUnits="userSpaceOnUse">
<stop stop-color="#3B597D"/>
<stop offset="1" stop-color="#87B5F5"/>
</linearGradient>
<linearGradient id="paint9_linear_85_4850" x1="84.7742" y1="22.6726" x2="84.7742" y2="34.4117" gradientUnits="userSpaceOnUse">
<stop stop-color="#3B597D"/>
<stop offset="1" stop-color="#87B5F5"/>
</linearGradient>
<linearGradient id="paint10_linear_85_4850" x1="88.1012" y1="64.7952" x2="88.1012" y2="73.1967" gradientUnits="userSpaceOnUse">
<stop stop-color="#3B597D"/>
<stop offset="1" stop-color="#87B5F5"/>
</linearGradient>
<linearGradient id="paint11_linear_85_4850" x1="44.0826" y1="79.4115" x2="44.0826" y2="85.9716" gradientUnits="userSpaceOnUse">
<stop stop-color="#3B597D"/>
<stop offset="1" stop-color="#87B5F5"/>
</linearGradient>
<linearGradient id="paint12_linear_85_4850" x1="44.3385" y1="6.32991" x2="44.3385" y2="17.6087" gradientUnits="userSpaceOnUse">
<stop stop-color="#3B597D"/>
<stop offset="1" stop-color="#87B5F5"/>
</linearGradient>
<linearGradient id="paint13_linear_85_4850" x1="71.8676" y1="64.7952" x2="71.8676" y2="73.1967" gradientUnits="userSpaceOnUse">
<stop stop-color="#3B597D"/>
<stop offset="1" stop-color="#87B5F5"/>
</linearGradient>
<linearGradient id="paint14_linear_85_4850" x1="36.7248" y1="0.805626" x2="36.7248" y2="1.49616" gradientUnits="userSpaceOnUse">
<stop stop-color="#3B597D"/>
<stop offset="1" stop-color="#87B5F5"/>
</linearGradient>
<linearGradient id="paint15_linear_85_4850" x1="66.9876" y1="22.6726" x2="66.9876" y2="34.5268" gradientUnits="userSpaceOnUse">
<stop stop-color="#3B597D"/>
<stop offset="1" stop-color="#87B5F5"/>
</linearGradient>
<linearGradient id="paint16_linear_85_4850" x1="20.8576" y1="22.6726" x2="20.8576" y2="34.5268" gradientUnits="userSpaceOnUse">
<stop stop-color="#3B597D"/>
<stop offset="1" stop-color="#87B5F5"/>
</linearGradient>
<linearGradient id="paint17_linear_85_4850" x1="60.6535" y1="49.9487" x2="60.6535" y2="60.3067" gradientUnits="userSpaceOnUse">
<stop stop-color="#3B597D"/>
<stop offset="1" stop-color="#87B5F5"/>
</linearGradient>
<linearGradient id="paint18_linear_85_4850" x1="20.8576" y1="49.9487" x2="20.8576" y2="60.3067" gradientUnits="userSpaceOnUse">
<stop stop-color="#3B597D"/>
<stop offset="1" stop-color="#87B5F5"/>
</linearGradient>
<linearGradient id="paint19_linear_85_4850" x1="39.412" y1="38.3247" x2="39.412" y2="45.115" gradientUnits="userSpaceOnUse">
<stop stop-color="#3B597D"/>
<stop offset="1" stop-color="#87B5F5"/>
</linearGradient>
<linearGradient id="paint20_linear_85_4850" x1="42.675" y1="79.4115" x2="42.675" y2="86.3169" gradientUnits="userSpaceOnUse">
<stop stop-color="#3B597D"/>
<stop offset="1" stop-color="#87B5F5"/>
</linearGradient>
<linearGradient id="paint21_linear_85_4850" x1="20.8576" y1="64.7952" x2="20.8576" y2="73.1967" gradientUnits="userSpaceOnUse">
<stop stop-color="#3B597D"/>
<stop offset="1" stop-color="#87B5F5"/>
</linearGradient>
<linearGradient id="paint22_linear_85_4850" x1="39.6679" y1="90.1149" x2="39.6679" y2="95.409" gradientUnits="userSpaceOnUse">
<stop stop-color="#3B597D"/>
<stop offset="1" stop-color="#87B5F5"/>
</linearGradient>
<linearGradient id="paint23_linear_85_4850" x1="120.091" y1="0.805626" x2="120.091" y2="1.49616" gradientUnits="userSpaceOnUse">
<stop stop-color="#3B597D"/>
<stop offset="1" stop-color="#87B5F5"/>
</linearGradient>
<linearGradient id="paint24_linear_85_4850" x1="104.032" y1="22.6726" x2="104.032" y2="33.2608" gradientUnits="userSpaceOnUse">
<stop stop-color="#3B597D"/>
<stop offset="1" stop-color="#87B5F5"/>
</linearGradient>
<linearGradient id="paint25_linear_85_4850" x1="153.937" y1="22.5575" x2="153.937" y2="34.4117" gradientUnits="userSpaceOnUse">
<stop stop-color="#3B597D"/>
<stop offset="1" stop-color="#87B5F5"/>
</linearGradient>
<linearGradient id="paint26_linear_85_4850" x1="113.373" y1="83.3246" x2="113.373" y2="86.7773" gradientUnits="userSpaceOnUse">
<stop stop-color="#3B597D"/>
<stop offset="1" stop-color="#87B5F5"/>
</linearGradient>
<linearGradient id="paint27_linear_85_4850" x1="104.032" y1="90.1149" x2="104.032" y2="94.6033" gradientUnits="userSpaceOnUse">
<stop stop-color="#3B597D"/>
<stop offset="1" stop-color="#87B5F5"/>
</linearGradient>
<linearGradient id="paint28_linear_85_4850" x1="102.177" y1="69.0535" x2="102.177" y2="70.0893" gradientUnits="userSpaceOnUse">
<stop stop-color="#3B597D"/>
<stop offset="1" stop-color="#87B5F5"/>
</linearGradient>
<linearGradient id="paint29_linear_85_4850" x1="121.499" y1="49.9487" x2="121.499" y2="60.3067" gradientUnits="userSpaceOnUse">
<stop stop-color="#3B597D"/>
<stop offset="1" stop-color="#87B5F5"/>
</linearGradient>
<linearGradient id="paint30_linear_85_4850" x1="104.032" y1="38.3247" x2="104.032" y2="45.115" gradientUnits="userSpaceOnUse">
<stop stop-color="#3B597D"/>
<stop offset="1" stop-color="#87B5F5"/>
</linearGradient>
<linearGradient id="paint31_linear_85_4850" x1="129.689" y1="6.32991" x2="129.689" y2="17.6087" gradientUnits="userSpaceOnUse">
<stop stop-color="#3B597D"/>
<stop offset="1" stop-color="#87B5F5"/>
</linearGradient>
<linearGradient id="paint32_linear_85_4850" x1="148.627" y1="38.3247" x2="148.627" y2="45.115" gradientUnits="userSpaceOnUse">
<stop stop-color="#3B597D"/>
<stop offset="1" stop-color="#87B5F5"/>
</linearGradient>
<linearGradient id="paint33_linear_85_4850" x1="180.809" y1="49.9487" x2="180.809" y2="60.3067" gradientUnits="userSpaceOnUse">
<stop stop-color="#3B597D"/>
<stop offset="1" stop-color="#87B5F5"/>
</linearGradient>
<linearGradient id="paint34_linear_85_4850" x1="185.096" y1="64.7952" x2="185.096" y2="73.1967" gradientUnits="userSpaceOnUse">
<stop stop-color="#3B597D"/>
<stop offset="1" stop-color="#87B5F5"/>
</linearGradient>
<linearGradient id="paint35_linear_85_4850" x1="184.84" y1="22.5575" x2="184.84" y2="34.4117" gradientUnits="userSpaceOnUse">
<stop stop-color="#3B597D"/>
<stop offset="1" stop-color="#87B5F5"/>
</linearGradient>
<linearGradient id="paint36_linear_85_4850" x1="259.825" y1="38.3247" x2="259.825" y2="45.115" gradientUnits="userSpaceOnUse">
<stop stop-color="#3B597D"/>
<stop offset="1" stop-color="#87B5F5"/>
</linearGradient>
<linearGradient id="paint37_linear_85_4850" x1="259.505" y1="49.9487" x2="259.505" y2="60.3067" gradientUnits="userSpaceOnUse">
<stop stop-color="#3B597D"/>
<stop offset="1" stop-color="#87B5F5"/>
</linearGradient>
<linearGradient id="paint38_linear_85_4850" x1="255.794" y1="22.5575" x2="255.794" y2="34.4117" gradientUnits="userSpaceOnUse">
<stop stop-color="#3B597D"/>
<stop offset="1" stop-color="#87B5F5"/>
</linearGradient>
<linearGradient id="paint39_linear_85_4850" x1="255.218" y1="64.7952" x2="255.218" y2="73.1967" gradientUnits="userSpaceOnUse">
<stop stop-color="#3B597D"/>
<stop offset="1" stop-color="#87B5F5"/>
</linearGradient>
<linearGradient id="paint40_linear_85_4850" x1="219.837" y1="90.1149" x2="219.837" y2="96.0995" gradientUnits="userSpaceOnUse">
<stop stop-color="#3B597D"/>
<stop offset="1" stop-color="#87B5F5"/>
</linearGradient>
<linearGradient id="paint41_linear_85_4850" x1="180.809" y1="38.3247" x2="180.809" y2="45.115" gradientUnits="userSpaceOnUse">
<stop stop-color="#3B597D"/>
<stop offset="1" stop-color="#87B5F5"/>
</linearGradient>
<linearGradient id="paint42_linear_85_4850" x1="238.647" y1="79.4115" x2="238.647" y2="86.2018" gradientUnits="userSpaceOnUse">
<stop stop-color="#3B597D"/>
<stop offset="1" stop-color="#87B5F5"/>
</linearGradient>
<linearGradient id="paint43_linear_85_4850" x1="201.731" y1="79.4115" x2="201.731" y2="86.2054" gradientUnits="userSpaceOnUse">
<stop stop-color="#3B597D"/>
<stop offset="1" stop-color="#87B5F5"/>
</linearGradient>
<linearGradient id="paint44_linear_85_4850" x1="220.989" y1="0" x2="220.989" y2="1.49616" gradientUnits="userSpaceOnUse">
<stop stop-color="#3B597D"/>
<stop offset="1" stop-color="#87B5F5"/>
</linearGradient>
<linearGradient id="paint45_linear_85_4850" x1="220.733" y1="6.32991" x2="220.733" y2="17.6087" gradientUnits="userSpaceOnUse">
<stop stop-color="#3B597D"/>
<stop offset="1" stop-color="#87B5F5"/>
</linearGradient>
<linearGradient id="paint46_linear_85_4850" x1="311.137" y1="49.9487" x2="311.137" y2="60.3067" gradientUnits="userSpaceOnUse">
<stop stop-color="#3B597D"/>
<stop offset="1" stop-color="#87B5F5"/>
</linearGradient>
<linearGradient id="paint47_linear_85_4850" x1="291.495" y1="79.4115" x2="291.495" y2="86.2018" gradientUnits="userSpaceOnUse">
<stop stop-color="#3B597D"/>
<stop offset="1" stop-color="#87B5F5"/>
</linearGradient>
<linearGradient id="paint48_linear_85_4850" x1="291.495" y1="64.7952" x2="291.495" y2="73.1967" gradientUnits="userSpaceOnUse">
<stop stop-color="#3B597D"/>
<stop offset="1" stop-color="#87B5F5"/>
</linearGradient>
<linearGradient id="paint49_linear_85_4850" x1="310.242" y1="6.32991" x2="310.242" y2="17.6087" gradientUnits="userSpaceOnUse">
<stop stop-color="#3B597D"/>
<stop offset="1" stop-color="#87B5F5"/>
</linearGradient>
<linearGradient id="paint50_linear_85_4850" x1="291.495" y1="22.6726" x2="291.495" y2="34.5268" gradientUnits="userSpaceOnUse">
<stop stop-color="#3B597D"/>
<stop offset="1" stop-color="#87B5F5"/>
</linearGradient>
<linearGradient id="paint51_linear_85_4850" x1="291.495" y1="90.1149" x2="291.495" y2="94.6033" gradientUnits="userSpaceOnUse">
<stop stop-color="#3B597D"/>
<stop offset="1" stop-color="#87B5F5"/>
</linearGradient>
<linearGradient id="paint52_linear_85_4850" x1="311.137" y1="40.1661" x2="311.137" y2="46.9564" gradientUnits="userSpaceOnUse">
<stop stop-color="#3B597D"/>
<stop offset="1" stop-color="#87B5F5"/>
</linearGradient>
<linearGradient id="paint53_linear_85_4850" x1="345.431" y1="3.10741" x2="345.431" y2="7.94115" gradientUnits="userSpaceOnUse">
<stop stop-color="#3B597D"/>
<stop offset="1" stop-color="#87B5F5"/>
</linearGradient>
<linearGradient id="paint54_linear_85_4850" x1="39.476" y1="1.49616" x2="39.476" y2="6.32991" gradientUnits="userSpaceOnUse">
<stop stop-color="#3B597D"/>
<stop offset="1" stop-color="#87B5F5"/>
</linearGradient>
<linearGradient id="paint55_linear_85_4850" x1="122.907" y1="1.49616" x2="122.907" y2="6.32991" gradientUnits="userSpaceOnUse">
<stop stop-color="#3B597D"/>
<stop offset="1" stop-color="#87B5F5"/>
</linearGradient>
<linearGradient id="paint56_linear_85_4850" x1="223.74" y1="1.49616" x2="223.74" y2="6.32991" gradientUnits="userSpaceOnUse">
<stop stop-color="#3B597D"/>
<stop offset="1" stop-color="#87B5F5"/>
</linearGradient>
<linearGradient id="paint57_linear_85_4850" x1="312.673" y1="3.10741" x2="312.673" y2="7.94115" gradientUnits="userSpaceOnUse">
<stop stop-color="#3B597D"/>
<stop offset="1" stop-color="#87B5F5"/>
</linearGradient>
<linearGradient id="paint58_linear_85_4850" x1="108.319" y1="94.2581" x2="108.319" y2="97.5956" gradientUnits="userSpaceOnUse">
<stop stop-color="#3B597D"/>
<stop offset="1" stop-color="#87B5F5"/>
</linearGradient>
<linearGradient id="paint59_linear_85_4850" x1="15.1634" y1="16.3427" x2="15.1634" y2="18.8746" gradientUnits="userSpaceOnUse">
<stop stop-color="#3B597D"/>
<stop offset="1" stop-color="#87B5F5"/>
</linearGradient>
<linearGradient id="paint60_linear_85_4850" x1="70.6985" y1="17.6087" x2="70.6985" y2="22.6726" gradientUnits="userSpaceOnUse">
<stop stop-color="#3B597D"/>
<stop offset="1" stop-color="#87B5F5"/>
</linearGradient>
<linearGradient id="paint61_linear_85_4850" x1="106.336" y1="21.4066" x2="106.336" y2="23.9386" gradientUnits="userSpaceOnUse">
<stop stop-color="#3B597D"/>
<stop offset="1" stop-color="#87B5F5"/>
</linearGradient>
<linearGradient id="paint62_linear_85_4850" x1="150.29" y1="17.6087" x2="150.29" y2="22.6726" gradientUnits="userSpaceOnUse">
<stop stop-color="#3B597D"/>
<stop offset="1" stop-color="#87B5F5"/>
</linearGradient>
<linearGradient id="paint63_linear_85_4850" x1="187.271" y1="18.9897" x2="187.271" y2="22.6726" gradientUnits="userSpaceOnUse">
<stop stop-color="#3B597D"/>
<stop offset="1" stop-color="#87B5F5"/>
</linearGradient>
<linearGradient id="paint64_linear_85_4850" x1="255.794" y1="17.4936" x2="255.794" y2="18.9897" gradientUnits="userSpaceOnUse">
<stop stop-color="#3B597D"/>
<stop offset="1" stop-color="#87B5F5"/>
</linearGradient>
<linearGradient id="paint65_linear_85_4850" x1="291.495" y1="17.6087" x2="291.495" y2="20.8312" gradientUnits="userSpaceOnUse">
<stop stop-color="#3B597D"/>
<stop offset="1" stop-color="#87B5F5"/>
</linearGradient>
<linearGradient id="paint66_linear_85_4850" x1="104.096" y1="34.6418" x2="104.096" y2="38.4398" gradientUnits="userSpaceOnUse">
<stop stop-color="#3B597D"/>
<stop offset="1" stop-color="#87B5F5"/>
</linearGradient>
<linearGradient id="paint67_linear_85_4850" x1="65.3241" y1="32.4552" x2="65.3241" y2="36.3682" gradientUnits="userSpaceOnUse">
<stop stop-color="#3B597D"/>
<stop offset="1" stop-color="#87B5F5"/>
</linearGradient>
<linearGradient id="paint68_linear_85_4850" x1="20.8576" y1="34.4117" x2="20.8576" y2="36.9436" gradientUnits="userSpaceOnUse">
<stop stop-color="#3B597D"/>
<stop offset="1" stop-color="#87B5F5"/>
</linearGradient>
<linearGradient id="paint69_linear_85_4850" x1="155.537" y1="32.6853" x2="155.537" y2="36.5984" gradientUnits="userSpaceOnUse">
<stop stop-color="#3B597D"/>
<stop offset="1" stop-color="#87B5F5"/>
</linearGradient>
<linearGradient id="paint70_linear_85_4850" x1="104.032" y1="34.4117" x2="104.032" y2="38.3247" gradientUnits="userSpaceOnUse">
<stop stop-color="#3B597D"/>
<stop offset="1" stop-color="#87B5F5"/>
</linearGradient>
<linearGradient id="paint71_linear_85_4850" x1="185.16" y1="34.6418" x2="185.16" y2="38.5549" gradientUnits="userSpaceOnUse">
<stop stop-color="#3B597D"/>
<stop offset="1" stop-color="#87B5F5"/>
</linearGradient>
<linearGradient id="paint72_linear_85_4850" x1="261.552" y1="36.3682" x2="261.552" y2="38.3247" gradientUnits="userSpaceOnUse">
<stop stop-color="#3B597D"/>
<stop offset="1" stop-color="#87B5F5"/>
</linearGradient>
<linearGradient id="paint73_linear_85_4850" x1="291.495" y1="34.4117" x2="291.495" y2="36.5984" gradientUnits="userSpaceOnUse">
<stop stop-color="#3B597D"/>
<stop offset="1" stop-color="#87B5F5"/>
</linearGradient>
<linearGradient id="paint74_linear_85_4850" x1="346.135" y1="44.1943" x2="346.135" y2="49.6035" gradientUnits="userSpaceOnUse">
<stop stop-color="#3B597D"/>
<stop offset="1" stop-color="#87B5F5"/>
</linearGradient>
<linearGradient id="paint75_linear_85_4850" x1="135.767" y1="49.9487" x2="135.767" y2="54.7825" gradientUnits="userSpaceOnUse">
<stop stop-color="#3B597D"/>
<stop offset="1" stop-color="#87B5F5"/>
</linearGradient>
<linearGradient id="paint76_linear_85_4850" x1="42.0352" y1="45.115" x2="42.0352" y2="49.9487" gradientUnits="userSpaceOnUse">
<stop stop-color="#3B597D"/>
<stop offset="1" stop-color="#87B5F5"/>
</linearGradient>
<linearGradient id="paint77_linear_85_4850" x1="126.49" y1="45.115" x2="126.49" y2="49.9487" gradientUnits="userSpaceOnUse">
<stop stop-color="#3B597D"/>
<stop offset="1" stop-color="#87B5F5"/>
</linearGradient>
<linearGradient id="paint78_linear_85_4850" x1="258.353" y1="45.115" x2="258.353" y2="49.9487" gradientUnits="userSpaceOnUse">
<stop stop-color="#3B597D"/>
<stop offset="1" stop-color="#87B5F5"/>
</linearGradient>
<linearGradient id="paint79_linear_85_4850" x1="180.809" y1="46.9564" x2="180.809" y2="48.1073" gradientUnits="userSpaceOnUse">
<stop stop-color="#3B597D"/>
<stop offset="1" stop-color="#87B5F5"/>
</linearGradient>
<linearGradient id="paint80_linear_85_4850" x1="311.073" y1="44.5395" x2="311.073" y2="49.3733" gradientUnits="userSpaceOnUse">
<stop stop-color="#3B597D"/>
<stop offset="1" stop-color="#87B5F5"/>
</linearGradient>
<linearGradient id="paint81_linear_85_4850" x1="174.923" y1="61.3425" x2="174.923" y2="63.6443" gradientUnits="userSpaceOnUse">
<stop stop-color="#3B597D"/>
<stop offset="1" stop-color="#87B5F5"/>
</linearGradient>
<linearGradient id="paint82_linear_85_4850" x1="17.0188" y1="60.3067" x2="17.0188" y2="64.7952" gradientUnits="userSpaceOnUse">
<stop stop-color="#3B597D"/>
<stop offset="1" stop-color="#87B5F5"/>
</linearGradient>
<linearGradient id="paint83_linear_85_4850" x1="69.4828" y1="62.7236" x2="69.4828" y2="63.8745" gradientUnits="userSpaceOnUse">
<stop stop-color="#3B597D"/>
<stop offset="1" stop-color="#87B5F5"/>
</linearGradient>
<linearGradient id="paint84_linear_85_4850" x1="103.584" y1="60.3067" x2="103.584" y2="67.7875" gradientUnits="userSpaceOnUse">
<stop stop-color="#3B597D"/>
<stop offset="1" stop-color="#87B5F5"/>
</linearGradient>
<linearGradient id="paint85_linear_85_4850" x1="179.081" y1="60.3067" x2="179.081" y2="64.7952" gradientUnits="userSpaceOnUse">
<stop stop-color="#3B597D"/>
<stop offset="1" stop-color="#87B5F5"/>
</linearGradient>
<linearGradient id="paint86_linear_85_4850" x1="258.161" y1="61.2275" x2="258.161" y2="62.8387" gradientUnits="userSpaceOnUse">
<stop stop-color="#3B597D"/>
<stop offset="1" stop-color="#87B5F5"/>
</linearGradient>
<linearGradient id="paint87_linear_85_4850" x1="292.647" y1="60.3067" x2="292.647" y2="62.8387" gradientUnits="userSpaceOnUse">
<stop stop-color="#3B597D"/>
<stop offset="1" stop-color="#87B5F5"/>
</linearGradient>
<linearGradient id="paint88_linear_85_4850" x1="178.954" y1="75.1533" x2="178.954" y2="78.2607" gradientUnits="userSpaceOnUse">
<stop stop-color="#3B597D"/>
<stop offset="1" stop-color="#87B5F5"/>
</linearGradient>
<linearGradient id="paint89_linear_85_4850" x1="291.559" y1="94.6033" x2="291.559" y2="99.2069" gradientUnits="userSpaceOnUse">
<stop stop-color="#3B597D"/>
<stop offset="1" stop-color="#87B5F5"/>
</linearGradient>
<linearGradient id="paint90_linear_85_4850" x1="20.8576" y1="75.7287" x2="20.8576" y2="77.5701" gradientUnits="userSpaceOnUse">
<stop stop-color="#3B597D"/>
<stop offset="1" stop-color="#87B5F5"/>
</linearGradient>
<linearGradient id="paint91_linear_85_4850" x1="69.7388" y1="74.2325" x2="69.7388" y2="79.4115" gradientUnits="userSpaceOnUse">
<stop stop-color="#3B597D"/>
<stop offset="1" stop-color="#87B5F5"/>
</linearGradient>
<linearGradient id="paint92_linear_85_4850" x1="104.032" y1="73.1967" x2="104.032" y2="79.4115" gradientUnits="userSpaceOnUse">
<stop stop-color="#3B597D"/>
<stop offset="1" stop-color="#87B5F5"/>
</linearGradient>
<linearGradient id="paint93_linear_85_4850" x1="189.702" y1="73.1967" x2="189.702" y2="79.4115" gradientUnits="userSpaceOnUse">
<stop stop-color="#3B597D"/>
<stop offset="1" stop-color="#87B5F5"/>
</linearGradient>
<linearGradient id="paint94_linear_85_4850" x1="253.427" y1="77.2249" x2="253.427" y2="79.6417" gradientUnits="userSpaceOnUse">
<stop stop-color="#3B597D"/>
<stop offset="1" stop-color="#87B5F5"/>
</linearGradient>
<linearGradient id="paint95_linear_85_4850" x1="290.472" y1="73.1967" x2="290.472" y2="76.3041" gradientUnits="userSpaceOnUse">
<stop stop-color="#3B597D"/>
<stop offset="1" stop-color="#87B5F5"/>
</linearGradient>
<linearGradient id="paint96_linear_85_4850" x1="42.611" y1="86.3169" x2="42.611" y2="90.1149" gradientUnits="userSpaceOnUse">
<stop stop-color="#3B597D"/>
<stop offset="1" stop-color="#87B5F5"/>
</linearGradient>
<linearGradient id="paint97_linear_85_4850" x1="104.032" y1="86.3169" x2="104.032" y2="90.1149" gradientUnits="userSpaceOnUse">
<stop stop-color="#3B597D"/>
<stop offset="1" stop-color="#87B5F5"/>
</linearGradient>
<linearGradient id="paint98_linear_85_4850" x1="212.927" y1="86.3169" x2="212.927" y2="90.1149" gradientUnits="userSpaceOnUse">
<stop stop-color="#3B597D"/>
<stop offset="1" stop-color="#87B5F5"/>
</linearGradient>
<linearGradient id="paint99_linear_85_4850" x1="295.782" y1="88.5036" x2="295.782" y2="90.1149" gradientUnits="userSpaceOnUse">
<stop stop-color="#3B597D"/>
<stop offset="1" stop-color="#87B5F5"/>
</linearGradient>
<linearGradient id="paint100_linear_85_4850" x1="220.285" y1="64.7952" x2="220.285" y2="73.1967" gradientUnits="userSpaceOnUse">
<stop stop-color="#3B597D"/>
<stop offset="1" stop-color="#87B5F5"/>
</linearGradient>
<linearGradient id="paint101_linear_85_4850" x1="220.349" y1="38.3247" x2="220.349" y2="45.115" gradientUnits="userSpaceOnUse">
<stop stop-color="#3B597D"/>
<stop offset="1" stop-color="#87B5F5"/>
</linearGradient>
<linearGradient id="paint102_linear_85_4850" x1="40.1158" y1="38.3247" x2="40.1158" y2="40.8567" gradientUnits="userSpaceOnUse">
<stop stop-color="#3B597D"/>
<stop offset="1" stop-color="#87B5F5"/>
</linearGradient>
<linearGradient id="paint103_linear_85_4850" x1="77.8003" y1="38.3247" x2="77.8003" y2="44.9999" gradientUnits="userSpaceOnUse">
<stop stop-color="#3B597D"/>
<stop offset="1" stop-color="#87B5F5"/>
</linearGradient>
<linearGradient id="paint104_linear_85_4850" x1="83.6225" y1="49.9487" x2="83.6225" y2="60.3067" gradientUnits="userSpaceOnUse">
<stop stop-color="#3B597D"/>
<stop offset="1" stop-color="#87B5F5"/>
</linearGradient>
<linearGradient id="paint105_linear_85_4850" x1="46.3859" y1="64.7952" x2="46.3859" y2="73.1967" gradientUnits="userSpaceOnUse">
<stop stop-color="#3B597D"/>
<stop offset="1" stop-color="#87B5F5"/>
</linearGradient>
<linearGradient id="paint106_linear_85_4850" x1="45.4262" y1="49.9487" x2="45.4262" y2="60.3067" gradientUnits="userSpaceOnUse">
<stop stop-color="#3B597D"/>
<stop offset="1" stop-color="#87B5F5"/>
</linearGradient>
<linearGradient id="paint107_linear_85_4850" x1="127.961" y1="38.3247" x2="127.961" y2="45.115" gradientUnits="userSpaceOnUse">
<stop stop-color="#3B597D"/>
<stop offset="1" stop-color="#87B5F5"/>
</linearGradient>
<linearGradient id="paint108_linear_85_4850" x1="164.686" y1="38.3247" x2="164.686" y2="45.115" gradientUnits="userSpaceOnUse">
<stop stop-color="#3B597D"/>
<stop offset="1" stop-color="#87B5F5"/>
</linearGradient>
<linearGradient id="paint109_linear_85_4850" x1="84.7742" y1="22.6726" x2="84.7742" y2="34.4117" gradientUnits="userSpaceOnUse">
<stop stop-color="#3B597D"/>
<stop offset="1" stop-color="#87B5F5"/>
</linearGradient>
<linearGradient id="paint110_linear_85_4850" x1="88.1012" y1="64.7952" x2="88.1012" y2="73.1967" gradientUnits="userSpaceOnUse">
<stop stop-color="#3B597D"/>
<stop offset="1" stop-color="#87B5F5"/>
</linearGradient>
<linearGradient id="paint111_linear_85_4850" x1="44.0826" y1="79.4115" x2="44.0826" y2="85.9716" gradientUnits="userSpaceOnUse">
<stop stop-color="#3B597D"/>
<stop offset="1" stop-color="#87B5F5"/>
</linearGradient>
<linearGradient id="paint112_linear_85_4850" x1="44.3385" y1="6.32991" x2="44.3385" y2="17.6087" gradientUnits="userSpaceOnUse">
<stop stop-color="#3B597D"/>
<stop offset="1" stop-color="#87B5F5"/>
</linearGradient>
<linearGradient id="paint113_linear_85_4850" x1="71.8676" y1="64.7952" x2="71.8676" y2="73.1967" gradientUnits="userSpaceOnUse">
<stop stop-color="#3B597D"/>
<stop offset="1" stop-color="#87B5F5"/>
</linearGradient>
<linearGradient id="paint114_linear_85_4850" x1="36.7248" y1="0.805626" x2="36.7248" y2="1.49616" gradientUnits="userSpaceOnUse">
<stop stop-color="#3B597D"/>
<stop offset="1" stop-color="#87B5F5"/>
</linearGradient>
<linearGradient id="paint115_linear_85_4850" x1="66.9876" y1="22.6726" x2="66.9876" y2="34.5268" gradientUnits="userSpaceOnUse">
<stop stop-color="#3B597D"/>
<stop offset="1" stop-color="#87B5F5"/>
</linearGradient>
<linearGradient id="paint116_linear_85_4850" x1="20.8576" y1="22.6726" x2="20.8576" y2="34.5268" gradientUnits="userSpaceOnUse">
<stop stop-color="#3B597D"/>
<stop offset="1" stop-color="#87B5F5"/>
</linearGradient>
<linearGradient id="paint117_linear_85_4850" x1="60.6535" y1="49.9487" x2="60.6535" y2="60.3067" gradientUnits="userSpaceOnUse">
<stop stop-color="#3B597D"/>
<stop offset="1" stop-color="#87B5F5"/>
</linearGradient>
<linearGradient id="paint118_linear_85_4850" x1="20.8576" y1="49.9487" x2="20.8576" y2="60.3067" gradientUnits="userSpaceOnUse">
<stop stop-color="#3B597D"/>
<stop offset="1" stop-color="#87B5F5"/>
</linearGradient>
<linearGradient id="paint119_linear_85_4850" x1="39.412" y1="38.3247" x2="39.412" y2="45.115" gradientUnits="userSpaceOnUse">
<stop stop-color="#3B597D"/>
<stop offset="1" stop-color="#87B5F5"/>
</linearGradient>
<linearGradient id="paint120_linear_85_4850" x1="42.675" y1="79.4115" x2="42.675" y2="86.3169" gradientUnits="userSpaceOnUse">
<stop stop-color="#3B597D"/>
<stop offset="1" stop-color="#87B5F5"/>
</linearGradient>
<linearGradient id="paint121_linear_85_4850" x1="20.8576" y1="64.7952" x2="20.8576" y2="73.1967" gradientUnits="userSpaceOnUse">
<stop stop-color="#3B597D"/>
<stop offset="1" stop-color="#87B5F5"/>
</linearGradient>
<linearGradient id="paint122_linear_85_4850" x1="39.6679" y1="90.1149" x2="39.6679" y2="95.409" gradientUnits="userSpaceOnUse">
<stop stop-color="#3B597D"/>
<stop offset="1" stop-color="#87B5F5"/>
</linearGradient>
<linearGradient id="paint123_linear_85_4850" x1="120.091" y1="0.805626" x2="120.091" y2="1.49616" gradientUnits="userSpaceOnUse">
<stop stop-color="#3B597D"/>
<stop offset="1" stop-color="#87B5F5"/>
</linearGradient>
<linearGradient id="paint124_linear_85_4850" x1="104.032" y1="22.6726" x2="104.032" y2="33.2608" gradientUnits="userSpaceOnUse">
<stop stop-color="#3B597D"/>
<stop offset="1" stop-color="#87B5F5"/>
</linearGradient>
<linearGradient id="paint125_linear_85_4850" x1="153.937" y1="22.5575" x2="153.937" y2="34.4117" gradientUnits="userSpaceOnUse">
<stop stop-color="#3B597D"/>
<stop offset="1" stop-color="#87B5F5"/>
</linearGradient>
<linearGradient id="paint126_linear_85_4850" x1="113.373" y1="83.3246" x2="113.373" y2="86.7773" gradientUnits="userSpaceOnUse">
<stop stop-color="#3B597D"/>
<stop offset="1" stop-color="#87B5F5"/>
</linearGradient>
<linearGradient id="paint127_linear_85_4850" x1="104.032" y1="90.1149" x2="104.032" y2="94.6033" gradientUnits="userSpaceOnUse">
<stop stop-color="#3B597D"/>
<stop offset="1" stop-color="#87B5F5"/>
</linearGradient>
<linearGradient id="paint128_linear_85_4850" x1="102.177" y1="69.0535" x2="102.177" y2="70.0893" gradientUnits="userSpaceOnUse">
<stop stop-color="#3B597D"/>
<stop offset="1" stop-color="#87B5F5"/>
</linearGradient>
<linearGradient id="paint129_linear_85_4850" x1="121.499" y1="49.9487" x2="121.499" y2="60.3067" gradientUnits="userSpaceOnUse">
<stop stop-color="#3B597D"/>
<stop offset="1" stop-color="#87B5F5"/>
</linearGradient>
<linearGradient id="paint130_linear_85_4850" x1="104.032" y1="38.3247" x2="104.032" y2="45.115" gradientUnits="userSpaceOnUse">
<stop stop-color="#3B597D"/>
<stop offset="1" stop-color="#87B5F5"/>
</linearGradient>
<linearGradient id="paint131_linear_85_4850" x1="129.689" y1="6.32991" x2="129.689" y2="17.6087" gradientUnits="userSpaceOnUse">
<stop stop-color="#3B597D"/>
<stop offset="1" stop-color="#87B5F5"/>
</linearGradient>
<linearGradient id="paint132_linear_85_4850" x1="148.627" y1="38.3247" x2="148.627" y2="45.115" gradientUnits="userSpaceOnUse">
<stop stop-color="#3B597D"/>
<stop offset="1" stop-color="#87B5F5"/>
</linearGradient>
<linearGradient id="paint133_linear_85_4850" x1="180.809" y1="49.9487" x2="180.809" y2="60.3067" gradientUnits="userSpaceOnUse">
<stop stop-color="#3B597D"/>
<stop offset="1" stop-color="#87B5F5"/>
</linearGradient>
<linearGradient id="paint134_linear_85_4850" x1="185.096" y1="64.7952" x2="185.096" y2="73.1967" gradientUnits="userSpaceOnUse">
<stop stop-color="#3B597D"/>
<stop offset="1" stop-color="#87B5F5"/>
</linearGradient>
<linearGradient id="paint135_linear_85_4850" x1="184.84" y1="22.5575" x2="184.84" y2="34.4117" gradientUnits="userSpaceOnUse">
<stop stop-color="#3B597D"/>
<stop offset="1" stop-color="#87B5F5"/>
</linearGradient>
<linearGradient id="paint136_linear_85_4850" x1="259.825" y1="38.3247" x2="259.825" y2="45.115" gradientUnits="userSpaceOnUse">
<stop stop-color="#3B597D"/>
<stop offset="1" stop-color="#87B5F5"/>
</linearGradient>
<linearGradient id="paint137_linear_85_4850" x1="259.505" y1="49.9487" x2="259.505" y2="60.3067" gradientUnits="userSpaceOnUse">
<stop stop-color="#3B597D"/>
<stop offset="1" stop-color="#87B5F5"/>
</linearGradient>
<linearGradient id="paint138_linear_85_4850" x1="255.794" y1="22.5575" x2="255.794" y2="34.4117" gradientUnits="userSpaceOnUse">
<stop stop-color="#3B597D"/>
<stop offset="1" stop-color="#87B5F5"/>
</linearGradient>
<linearGradient id="paint139_linear_85_4850" x1="255.218" y1="64.7952" x2="255.218" y2="73.1967" gradientUnits="userSpaceOnUse">
<stop stop-color="#3B597D"/>
<stop offset="1" stop-color="#87B5F5"/>
</linearGradient>
<linearGradient id="paint140_linear_85_4850" x1="219.837" y1="90.1149" x2="219.837" y2="96.0995" gradientUnits="userSpaceOnUse">
<stop stop-color="#3B597D"/>
<stop offset="1" stop-color="#87B5F5"/>
</linearGradient>
<linearGradient id="paint141_linear_85_4850" x1="180.809" y1="38.3247" x2="180.809" y2="45.115" gradientUnits="userSpaceOnUse">
<stop stop-color="#3B597D"/>
<stop offset="1" stop-color="#87B5F5"/>
</linearGradient>
<linearGradient id="paint142_linear_85_4850" x1="238.647" y1="79.4115" x2="238.647" y2="86.2018" gradientUnits="userSpaceOnUse">
<stop stop-color="#3B597D"/>
<stop offset="1" stop-color="#87B5F5"/>
</linearGradient>
<linearGradient id="paint143_linear_85_4850" x1="201.731" y1="79.4115" x2="201.731" y2="86.2054" gradientUnits="userSpaceOnUse">
<stop stop-color="#3B597D"/>
<stop offset="1" stop-color="#87B5F5"/>
</linearGradient>
<linearGradient id="paint144_linear_85_4850" x1="220.989" y1="0" x2="220.989" y2="1.49616" gradientUnits="userSpaceOnUse">
<stop stop-color="#3B597D"/>
<stop offset="1" stop-color="#87B5F5"/>
</linearGradient>
<linearGradient id="paint145_linear_85_4850" x1="220.733" y1="6.32991" x2="220.733" y2="17.6087" gradientUnits="userSpaceOnUse">
<stop stop-color="#3B597D"/>
<stop offset="1" stop-color="#87B5F5"/>
</linearGradient>
<linearGradient id="paint146_linear_85_4850" x1="311.137" y1="49.9487" x2="311.137" y2="60.3067" gradientUnits="userSpaceOnUse">
<stop stop-color="#3B597D"/>
<stop offset="1" stop-color="#87B5F5"/>
</linearGradient>
<linearGradient id="paint147_linear_85_4850" x1="291.495" y1="79.4115" x2="291.495" y2="86.2018" gradientUnits="userSpaceOnUse">
<stop stop-color="#3B597D"/>
<stop offset="1" stop-color="#87B5F5"/>
</linearGradient>
<linearGradient id="paint148_linear_85_4850" x1="291.495" y1="64.7952" x2="291.495" y2="73.1967" gradientUnits="userSpaceOnUse">
<stop stop-color="#3B597D"/>
<stop offset="1" stop-color="#87B5F5"/>
</linearGradient>
<linearGradient id="paint149_linear_85_4850" x1="310.242" y1="6.32991" x2="310.242" y2="17.6087" gradientUnits="userSpaceOnUse">
<stop stop-color="#3B597D"/>
<stop offset="1" stop-color="#87B5F5"/>
</linearGradient>
<linearGradient id="paint150_linear_85_4850" x1="291.495" y1="22.6726" x2="291.495" y2="34.5268" gradientUnits="userSpaceOnUse">
<stop stop-color="#3B597D"/>
<stop offset="1" stop-color="#87B5F5"/>
</linearGradient>
<linearGradient id="paint151_linear_85_4850" x1="291.495" y1="90.1149" x2="291.495" y2="94.6033" gradientUnits="userSpaceOnUse">
<stop stop-color="#3B597D"/>
<stop offset="1" stop-color="#87B5F5"/>
</linearGradient>
<linearGradient id="paint152_linear_85_4850" x1="311.137" y1="40.1661" x2="311.137" y2="46.9564" gradientUnits="userSpaceOnUse">
<stop stop-color="#3B597D"/>
<stop offset="1" stop-color="#87B5F5"/>
</linearGradient>
<linearGradient id="paint153_linear_85_4850" x1="345.431" y1="3.10741" x2="345.431" y2="7.94115" gradientUnits="userSpaceOnUse">
<stop stop-color="#3B597D"/>
<stop offset="1" stop-color="#87B5F5"/>
</linearGradient>
<linearGradient id="paint154_linear_85_4850" x1="39.476" y1="1.49616" x2="39.476" y2="6.32991" gradientUnits="userSpaceOnUse">
<stop stop-color="#3B597D"/>
<stop offset="1" stop-color="#87B5F5"/>
</linearGradient>
<linearGradient id="paint155_linear_85_4850" x1="122.907" y1="1.49616" x2="122.907" y2="6.32991" gradientUnits="userSpaceOnUse">
<stop stop-color="#3B597D"/>
<stop offset="1" stop-color="#87B5F5"/>
</linearGradient>
<linearGradient id="paint156_linear_85_4850" x1="223.74" y1="1.49616" x2="223.74" y2="6.32991" gradientUnits="userSpaceOnUse">
<stop stop-color="#3B597D"/>
<stop offset="1" stop-color="#87B5F5"/>
</linearGradient>
<linearGradient id="paint157_linear_85_4850" x1="312.673" y1="3.10741" x2="312.673" y2="7.94115" gradientUnits="userSpaceOnUse">
<stop stop-color="#3B597D"/>
<stop offset="1" stop-color="#87B5F5"/>
</linearGradient>
<linearGradient id="paint158_linear_85_4850" x1="108.319" y1="94.2581" x2="108.319" y2="97.5956" gradientUnits="userSpaceOnUse">
<stop stop-color="#3B597D"/>
<stop offset="1" stop-color="#87B5F5"/>
</linearGradient>
<linearGradient id="paint159_linear_85_4850" x1="15.1634" y1="16.3427" x2="15.1634" y2="18.8746" gradientUnits="userSpaceOnUse">
<stop stop-color="#3B597D"/>
<stop offset="1" stop-color="#87B5F5"/>
</linearGradient>
<linearGradient id="paint160_linear_85_4850" x1="70.6985" y1="17.6087" x2="70.6985" y2="22.6726" gradientUnits="userSpaceOnUse">
<stop stop-color="#3B597D"/>
<stop offset="1" stop-color="#87B5F5"/>
</linearGradient>
<linearGradient id="paint161_linear_85_4850" x1="106.336" y1="21.4066" x2="106.336" y2="23.9386" gradientUnits="userSpaceOnUse">
<stop stop-color="#3B597D"/>
<stop offset="1" stop-color="#87B5F5"/>
</linearGradient>
<linearGradient id="paint162_linear_85_4850" x1="150.29" y1="17.6087" x2="150.29" y2="22.6726" gradientUnits="userSpaceOnUse">
<stop stop-color="#3B597D"/>
<stop offset="1" stop-color="#87B5F5"/>
</linearGradient>
<linearGradient id="paint163_linear_85_4850" x1="187.271" y1="18.9897" x2="187.271" y2="22.6726" gradientUnits="userSpaceOnUse">
<stop stop-color="#3B597D"/>
<stop offset="1" stop-color="#87B5F5"/>
</linearGradient>
<linearGradient id="paint164_linear_85_4850" x1="255.794" y1="17.4936" x2="255.794" y2="18.9897" gradientUnits="userSpaceOnUse">
<stop stop-color="#3B597D"/>
<stop offset="1" stop-color="#87B5F5"/>
</linearGradient>
<linearGradient id="paint165_linear_85_4850" x1="291.495" y1="17.6087" x2="291.495" y2="20.8312" gradientUnits="userSpaceOnUse">
<stop stop-color="#3B597D"/>
<stop offset="1" stop-color="#87B5F5"/>
</linearGradient>
<linearGradient id="paint166_linear_85_4850" x1="104.096" y1="34.6418" x2="104.096" y2="38.4398" gradientUnits="userSpaceOnUse">
<stop stop-color="#3B597D"/>
<stop offset="1" stop-color="#87B5F5"/>
</linearGradient>
<linearGradient id="paint167_linear_85_4850" x1="65.3241" y1="32.4552" x2="65.3241" y2="36.3682" gradientUnits="userSpaceOnUse">
<stop stop-color="#3B597D"/>
<stop offset="1" stop-color="#87B5F5"/>
</linearGradient>
<linearGradient id="paint168_linear_85_4850" x1="20.8576" y1="34.4117" x2="20.8576" y2="36.9436" gradientUnits="userSpaceOnUse">
<stop stop-color="#3B597D"/>
<stop offset="1" stop-color="#87B5F5"/>
</linearGradient>
<linearGradient id="paint169_linear_85_4850" x1="155.537" y1="32.6853" x2="155.537" y2="36.5984" gradientUnits="userSpaceOnUse">
<stop stop-color="#3B597D"/>
<stop offset="1" stop-color="#87B5F5"/>
</linearGradient>
<linearGradient id="paint170_linear_85_4850" x1="104.032" y1="34.4117" x2="104.032" y2="38.3247" gradientUnits="userSpaceOnUse">
<stop stop-color="#3B597D"/>
<stop offset="1" stop-color="#87B5F5"/>
</linearGradient>
<linearGradient id="paint171_linear_85_4850" x1="185.16" y1="34.6418" x2="185.16" y2="38.5549" gradientUnits="userSpaceOnUse">
<stop stop-color="#3B597D"/>
<stop offset="1" stop-color="#87B5F5"/>
</linearGradient>
<linearGradient id="paint172_linear_85_4850" x1="261.552" y1="36.3682" x2="261.552" y2="38.3247" gradientUnits="userSpaceOnUse">
<stop stop-color="#3B597D"/>
<stop offset="1" stop-color="#87B5F5"/>
</linearGradient>
<linearGradient id="paint173_linear_85_4850" x1="291.495" y1="34.4117" x2="291.495" y2="36.5984" gradientUnits="userSpaceOnUse">
<stop stop-color="#3B597D"/>
<stop offset="1" stop-color="#87B5F5"/>
</linearGradient>
<linearGradient id="paint174_linear_85_4850" x1="346.135" y1="44.1943" x2="346.135" y2="49.6035" gradientUnits="userSpaceOnUse">
<stop stop-color="#3B597D"/>
<stop offset="1" stop-color="#87B5F5"/>
</linearGradient>
<linearGradient id="paint175_linear_85_4850" x1="135.767" y1="49.9487" x2="135.767" y2="54.7825" gradientUnits="userSpaceOnUse">
<stop stop-color="#3B597D"/>
<stop offset="1" stop-color="#87B5F5"/>
</linearGradient>
<linearGradient id="paint176_linear_85_4850" x1="42.0352" y1="45.115" x2="42.0352" y2="49.9487" gradientUnits="userSpaceOnUse">
<stop stop-color="#3B597D"/>
<stop offset="1" stop-color="#87B5F5"/>
</linearGradient>
<linearGradient id="paint177_linear_85_4850" x1="126.49" y1="45.115" x2="126.49" y2="49.9487" gradientUnits="userSpaceOnUse">
<stop stop-color="#3B597D"/>
<stop offset="1" stop-color="#87B5F5"/>
</linearGradient>
<linearGradient id="paint178_linear_85_4850" x1="258.353" y1="45.115" x2="258.353" y2="49.9487" gradientUnits="userSpaceOnUse">
<stop stop-color="#3B597D"/>
<stop offset="1" stop-color="#87B5F5"/>
</linearGradient>
<linearGradient id="paint179_linear_85_4850" x1="180.809" y1="46.9564" x2="180.809" y2="48.1073" gradientUnits="userSpaceOnUse">
<stop stop-color="#3B597D"/>
<stop offset="1" stop-color="#87B5F5"/>
</linearGradient>
<linearGradient id="paint180_linear_85_4850" x1="311.073" y1="44.5395" x2="311.073" y2="49.3733" gradientUnits="userSpaceOnUse">
<stop stop-color="#3B597D"/>
<stop offset="1" stop-color="#87B5F5"/>
</linearGradient>
<linearGradient id="paint181_linear_85_4850" x1="174.923" y1="61.3425" x2="174.923" y2="63.6443" gradientUnits="userSpaceOnUse">
<stop stop-color="#3B597D"/>
<stop offset="1" stop-color="#87B5F5"/>
</linearGradient>
<linearGradient id="paint182_linear_85_4850" x1="17.0188" y1="60.3067" x2="17.0188" y2="64.7952" gradientUnits="userSpaceOnUse">
<stop stop-color="#3B597D"/>
<stop offset="1" stop-color="#87B5F5"/>
</linearGradient>
<linearGradient id="paint183_linear_85_4850" x1="69.4828" y1="62.7236" x2="69.4828" y2="63.8745" gradientUnits="userSpaceOnUse">
<stop stop-color="#3B597D"/>
<stop offset="1" stop-color="#87B5F5"/>
</linearGradient>
<linearGradient id="paint184_linear_85_4850" x1="103.584" y1="60.3067" x2="103.584" y2="67.7875" gradientUnits="userSpaceOnUse">
<stop stop-color="#3B597D"/>
<stop offset="1" stop-color="#87B5F5"/>
</linearGradient>
<linearGradient id="paint185_linear_85_4850" x1="179.081" y1="60.3067" x2="179.081" y2="64.7952" gradientUnits="userSpaceOnUse">
<stop stop-color="#3B597D"/>
<stop offset="1" stop-color="#87B5F5"/>
</linearGradient>
<linearGradient id="paint186_linear_85_4850" x1="258.161" y1="61.2275" x2="258.161" y2="62.8387" gradientUnits="userSpaceOnUse">
<stop stop-color="#3B597D"/>
<stop offset="1" stop-color="#87B5F5"/>
</linearGradient>
<linearGradient id="paint187_linear_85_4850" x1="292.647" y1="60.3067" x2="292.647" y2="62.8387" gradientUnits="userSpaceOnUse">
<stop stop-color="#3B597D"/>
<stop offset="1" stop-color="#87B5F5"/>
</linearGradient>
<linearGradient id="paint188_linear_85_4850" x1="178.954" y1="75.1533" x2="178.954" y2="78.2607" gradientUnits="userSpaceOnUse">
<stop stop-color="#3B597D"/>
<stop offset="1" stop-color="#87B5F5"/>
</linearGradient>
<linearGradient id="paint189_linear_85_4850" x1="291.559" y1="94.6033" x2="291.559" y2="99.2069" gradientUnits="userSpaceOnUse">
<stop stop-color="#3B597D"/>
<stop offset="1" stop-color="#87B5F5"/>
</linearGradient>
<linearGradient id="paint190_linear_85_4850" x1="20.8576" y1="75.7287" x2="20.8576" y2="77.5701" gradientUnits="userSpaceOnUse">
<stop stop-color="#3B597D"/>
<stop offset="1" stop-color="#87B5F5"/>
</linearGradient>
<linearGradient id="paint191_linear_85_4850" x1="69.7388" y1="74.2325" x2="69.7388" y2="79.4115" gradientUnits="userSpaceOnUse">
<stop stop-color="#3B597D"/>
<stop offset="1" stop-color="#87B5F5"/>
</linearGradient>
<linearGradient id="paint192_linear_85_4850" x1="104.032" y1="73.1967" x2="104.032" y2="79.4115" gradientUnits="userSpaceOnUse">
<stop stop-color="#3B597D"/>
<stop offset="1" stop-color="#87B5F5"/>
</linearGradient>
<linearGradient id="paint193_linear_85_4850" x1="189.702" y1="73.1967" x2="189.702" y2="79.4115" gradientUnits="userSpaceOnUse">
<stop stop-color="#3B597D"/>
<stop offset="1" stop-color="#87B5F5"/>
</linearGradient>
<linearGradient id="paint194_linear_85_4850" x1="253.427" y1="77.2249" x2="253.427" y2="79.6417" gradientUnits="userSpaceOnUse">
<stop stop-color="#3B597D"/>
<stop offset="1" stop-color="#87B5F5"/>
</linearGradient>
<linearGradient id="paint195_linear_85_4850" x1="290.472" y1="73.1967" x2="290.472" y2="76.3041" gradientUnits="userSpaceOnUse">
<stop stop-color="#3B597D"/>
<stop offset="1" stop-color="#87B5F5"/>
</linearGradient>
<linearGradient id="paint196_linear_85_4850" x1="42.611" y1="86.3169" x2="42.611" y2="90.1149" gradientUnits="userSpaceOnUse">
<stop stop-color="#3B597D"/>
<stop offset="1" stop-color="#87B5F5"/>
</linearGradient>
<linearGradient id="paint197_linear_85_4850" x1="104.032" y1="86.3169" x2="104.032" y2="90.1149" gradientUnits="userSpaceOnUse">
<stop stop-color="#3B597D"/>
<stop offset="1" stop-color="#87B5F5"/>
</linearGradient>
<linearGradient id="paint198_linear_85_4850" x1="212.927" y1="86.3169" x2="212.927" y2="90.1149" gradientUnits="userSpaceOnUse">
<stop stop-color="#3B597D"/>
<stop offset="1" stop-color="#87B5F5"/>
</linearGradient>
<linearGradient id="paint199_linear_85_4850" x1="295.782" y1="88.5036" x2="295.782" y2="90.1149" gradientUnits="userSpaceOnUse">
<stop stop-color="#3B597D"/>
<stop offset="1" stop-color="#87B5F5"/>
</linearGradient>
</defs>
</svg>
