<svg width="36" height="66" viewBox="0 0 36 66" fill="none" xmlns="http://www.w3.org/2000/svg">
<path d="M34.6138 13L34.721 57.8073" stroke="white"/>
<mask id="mask0_137_1984" style="mask-type:alpha" maskUnits="userSpaceOnUse" x="0" y="0" width="36" height="66">
<rect x="0.5" y="0.5" width="35" height="65" fill="#C4C4C4" stroke="black"/>
</mask>
<g mask="url(#mask0_137_1984)">
<path d="M29.6968 29.2344V29.166C29.6968 28.79 29.805 28.5166 30.0215 28.3457C30.238 28.1634 30.5741 28.0723 31.0298 28.0723C31.4969 28.0723 31.8159 28.209 31.9868 28.4824C32.1691 28.7559 32.2603 29.3198 32.2603 30.1743V33.353C32.2603 33.7746 32.152 34.0936 31.9355 34.3101C31.7191 34.5151 31.3944 34.6177 30.9614 34.6177C30.6538 34.6177 30.3861 34.5322 30.1582 34.3613C29.9417 34.179 29.674 33.8088 29.355 33.2505C28.8081 32.3276 28.1416 31.6326 27.3555 31.1655C26.5807 30.687 25.6864 30.4478 24.6724 30.4478C22.895 30.4478 21.4481 30.9718 20.3315 32.02C19.2264 33.0682 18.6738 34.424 18.6738 36.0874C18.6738 37.785 19.2036 39.175 20.2632 40.2573C21.3341 41.3283 22.707 41.8638 24.3818 41.8638C25.1452 41.8638 25.8687 41.7612 26.5522 41.5562C27.2472 41.3397 27.9023 41.0207 28.5176 40.5991C28.734 40.4624 29.0246 40.2516 29.3892 39.9668C30.1297 39.363 30.7108 39.061 31.1323 39.061C31.4855 39.061 31.7703 39.175 31.9868 39.4028C32.2147 39.6193 32.3286 39.9041 32.3286 40.2573C32.3286 41.1574 31.4741 42.0802 29.7651 43.0259C28.0675 43.9601 26.2617 44.4272 24.3477 44.4272C21.8753 44.4272 19.8132 43.6354 18.1611 42.0518C16.5205 40.4681 15.7002 38.4914 15.7002 36.1216C15.7002 33.7518 16.5205 31.7751 18.1611 30.1914C19.8018 28.5964 21.8525 27.7988 24.3135 27.7988C25.1794 27.7988 26.0452 27.9185 26.9111 28.1577C27.7884 28.3856 28.717 28.7445 29.6968 29.2344ZM56.0732 42.0347C57.8278 42.0347 59.2633 41.4821 60.3799 40.377C61.5078 39.2604 62.0718 37.842 62.0718 36.1216C62.0718 34.4012 61.5078 32.9827 60.3799 31.8662C59.252 30.7383 57.8164 30.1743 56.0732 30.1743C54.3301 30.1743 52.8945 30.7383 51.7666 31.8662C50.6501 32.9827 50.0918 34.4012 50.0918 36.1216C50.0918 37.8534 50.6501 39.2718 51.7666 40.377C52.8831 41.4821 54.3187 42.0347 56.0732 42.0347ZM65.0454 36.1216C65.0454 38.5597 64.2137 40.5535 62.5503 42.103C60.8869 43.6525 58.7279 44.4272 56.0732 44.4272C53.43 44.4272 51.2767 43.6525 49.6133 42.103C47.9499 40.5535 47.1182 38.5597 47.1182 36.1216C47.1182 33.6834 47.9499 31.6953 49.6133 30.1572C51.2767 28.6077 53.43 27.833 56.0732 27.833C58.7165 27.833 60.8698 28.6077 62.5332 30.1572C64.208 31.7067 65.0454 33.6948 65.0454 36.1216ZM93.9341 34.481C93.9341 32.8745 93.786 31.7922 93.4897 31.2339C93.2049 30.6642 92.7093 30.3794 92.0029 30.3794C91.1598 30.3794 90.4876 30.744 89.9863 31.4731C89.4964 32.2023 89.2515 33.2049 89.2515 34.481V41.5903H89.5591C90.2541 41.5903 90.7155 41.6758 90.9434 41.8467C91.1826 42.0062 91.3022 42.3138 91.3022 42.7695C91.3022 43.1797 91.2054 43.4873 91.0117 43.6924C90.818 43.8975 90.5218 44 90.123 44H87.9526C87.4627 44 87.1266 43.8861 86.9443 43.6582C86.7734 43.4303 86.688 42.9404 86.688 42.1885V41.6929V34.481V33.1479C86.688 32.2935 86.4943 31.6213 86.1069 31.1313C85.7196 30.63 85.1898 30.3794 84.5176 30.3794C84.0049 30.3794 83.5321 30.5332 83.0991 30.8408C82.6776 31.137 82.313 31.5814 82.0054 32.1738V41.5903H82.6377C83.3213 41.5903 83.7827 41.6758 84.022 41.8467C84.2612 42.0176 84.3809 42.3252 84.3809 42.7695C84.3809 43.2367 84.284 43.5614 84.0903 43.7437C83.8966 43.9146 83.5264 44 82.9795 44H78.4336C77.9893 44 77.6589 43.9032 77.4424 43.7095C77.2373 43.5044 77.1348 43.1911 77.1348 42.7695C77.1348 42.3138 77.2658 42.0062 77.5278 41.8467C77.8013 41.6758 78.3254 41.5903 79.1001 41.5903H79.4419V30.6357H79.1343C78.3368 30.6357 77.7899 30.5446 77.4937 30.3623C77.2088 30.18 77.0664 29.861 77.0664 29.4053C77.0664 29.0065 77.1803 28.7103 77.4082 28.5166C77.6361 28.3115 77.9779 28.209 78.4336 28.209H81.0483C81.4243 28.209 81.6693 28.2773 81.7832 28.4141C81.9085 28.5394 81.9826 28.8128 82.0054 29.2344C82.4725 28.7331 82.9738 28.3628 83.5093 28.1235C84.0448 27.8843 84.6486 27.7646 85.3208 27.7646C86.1183 27.7646 86.7734 27.9412 87.2861 28.2944C87.8102 28.6362 88.1976 29.1603 88.4482 29.8667C88.9268 29.1489 89.4793 28.6191 90.106 28.2773C90.7326 27.9355 91.4504 27.7646 92.2593 27.7646C93.729 27.7646 94.8 28.2432 95.4722 29.2002C96.1558 30.1572 96.4976 31.7067 96.4976 33.8486V41.5903H96.771C97.4774 41.5903 97.9502 41.6758 98.1895 41.8467C98.4287 42.0176 98.5483 42.3252 98.5483 42.7695C98.5483 43.1797 98.4458 43.4873 98.2407 43.6924C98.0356 43.8975 97.7337 44 97.335 44H95.2671C94.8114 44 94.4753 43.8633 94.2588 43.5898C94.0423 43.3164 93.9341 42.8835 93.9341 42.291V34.481ZM117.542 23.2871C117.542 22.0566 117.65 21.2819 117.867 20.9629C118.095 20.6439 118.573 20.4844 119.302 20.4844C120.009 20.4844 120.476 20.6211 120.704 20.8945C120.931 21.1566 121.045 21.7889 121.045 22.7915C121.045 23.7713 120.937 24.3809 120.721 24.6201C120.516 24.848 120.043 24.9619 119.302 24.9619C118.573 24.9619 118.095 24.8537 117.867 24.6372C117.65 24.4207 117.542 23.9707 117.542 23.2871ZM120.704 41.5903H126.189C126.634 41.5903 126.958 41.6872 127.164 41.8809C127.38 42.0632 127.488 42.3594 127.488 42.7695C127.488 43.2367 127.386 43.5614 127.181 43.7437C126.987 43.9146 126.622 44 126.087 44H112.825C112.369 44 112.028 43.8975 111.8 43.6924C111.572 43.4873 111.458 43.1797 111.458 42.7695C111.458 42.3708 111.578 42.0745 111.817 41.8809C112.056 41.6872 112.415 41.5903 112.894 41.5903H118.106V30.6357H114.773C114.306 30.6357 113.947 30.5332 113.697 30.3281C113.458 30.1117 113.338 29.804 113.338 29.4053C113.338 29.0065 113.452 28.7103 113.68 28.5166C113.908 28.3115 114.249 28.209 114.705 28.209H119.712C120.02 28.209 120.259 28.2716 120.43 28.397C120.612 28.5223 120.704 28.6932 120.704 28.9097V41.5903ZM144.277 41.5903V30.6357H143.953C143.178 30.6357 142.642 30.5446 142.346 30.3623C142.061 30.18 141.919 29.861 141.919 29.4053C141.919 28.9837 142.039 28.6818 142.278 28.4995C142.517 28.3058 142.904 28.209 143.44 28.209H144.243H145.884C146.191 28.209 146.431 28.2716 146.602 28.397C146.772 28.5223 146.858 28.6932 146.858 28.9097V30.0718C147.69 29.297 148.51 28.7274 149.319 28.3628C150.139 27.9868 150.988 27.7988 151.865 27.7988C153.586 27.7988 154.936 28.3343 155.916 29.4053C156.907 30.4762 157.402 31.9574 157.402 33.8486V41.5903H158.206C158.775 41.5903 159.185 41.6872 159.436 41.8809C159.687 42.0632 159.812 42.3594 159.812 42.7695C159.812 43.2139 159.675 43.5329 159.402 43.7266C159.14 43.9089 158.667 44 157.983 44H154.207C153.477 44 153.01 43.9146 152.805 43.7437C152.6 43.5728 152.498 43.248 152.498 42.7695C152.498 42.3252 152.617 42.0176 152.856 41.8467C153.096 41.6758 153.546 41.5903 154.207 41.5903H154.805V34.481C154.805 33.1479 154.503 32.134 153.899 31.439C153.295 30.7326 152.418 30.3794 151.267 30.3794C150.105 30.3794 149.08 30.7725 148.191 31.5586C147.302 32.3447 146.858 33.3188 146.858 34.481V41.5903H147.456C148.14 41.5903 148.601 41.6758 148.84 41.8467C149.08 42.0176 149.199 42.3252 149.199 42.7695C149.199 43.248 149.097 43.5728 148.892 43.7437C148.687 43.9146 148.185 44 147.388 44H144.277H143.354C142.887 44 142.534 43.9032 142.295 43.7095C142.067 43.5044 141.953 43.1911 141.953 42.7695C141.953 42.3138 142.084 42.0062 142.346 41.8467C142.62 41.6758 143.144 41.5903 143.918 41.5903H144.277ZM181.677 30.7383C180.184 30.7383 178.965 31.1997 178.02 32.1226C177.074 33.0454 176.601 34.2417 176.601 35.7114C176.601 37.1584 177.074 38.349 178.02 39.2832C178.965 40.2061 180.184 40.6675 181.677 40.6675C183.158 40.6675 184.371 40.2061 185.317 39.2832C186.274 38.349 186.752 37.1584 186.752 35.7114C186.752 34.2645 186.274 33.0739 185.317 32.1396C184.371 31.2054 183.158 30.7383 181.677 30.7383ZM189.094 43.0942C189.094 44.6893 189.014 45.8172 188.854 46.478C188.695 47.1502 188.422 47.737 188.034 48.2383C187.396 49.0814 186.502 49.7194 185.351 50.1523C184.2 50.5967 182.845 50.8188 181.284 50.8188C179.985 50.8188 179.034 50.6935 178.43 50.4429C177.837 50.1922 177.541 49.7935 177.541 49.2466C177.541 48.8934 177.683 48.5801 177.968 48.3066C178.264 48.0446 178.612 47.9136 179.011 47.9136C179.318 47.9136 179.791 47.9535 180.429 48.0332C181.067 48.1243 181.551 48.1699 181.882 48.1699C183.568 48.1699 184.764 47.7826 185.471 47.0078C186.177 46.2331 186.53 44.9058 186.53 43.0259V40.958C185.835 41.7669 185.066 42.3594 184.223 42.7354C183.38 43.1113 182.412 43.2993 181.318 43.2993C179.187 43.2993 177.421 42.5929 176.02 41.1802C174.63 39.756 173.935 37.9559 173.935 35.7798C173.935 33.5923 174.653 31.7808 176.088 30.3452C177.524 28.8983 179.301 28.1748 181.42 28.1748C182.298 28.1748 183.152 28.34 183.984 28.6704C184.827 28.9894 185.676 29.4793 186.53 30.1401V28.9097C186.53 28.6704 186.604 28.4938 186.752 28.3799C186.912 28.266 187.157 28.209 187.487 28.209H190.068C190.524 28.209 190.865 28.3115 191.093 28.5166C191.321 28.7103 191.435 29.0065 191.435 29.4053C191.435 29.861 191.293 30.18 191.008 30.3623C190.723 30.5446 190.188 30.6357 189.401 30.6357H189.094V43.0942ZM237.745 42.7695V39.7275C237.745 39.2262 237.836 38.8674 238.019 38.6509C238.212 38.4344 238.52 38.3262 238.941 38.3262C239.409 38.3262 239.779 38.6452 240.052 39.2832C240.235 39.6706 240.4 39.9611 240.548 40.1548C241.026 40.77 241.733 41.2656 242.667 41.6416C243.601 42.0062 244.632 42.1885 245.76 42.1885C246.968 42.1885 247.936 41.9435 248.666 41.4536C249.395 40.9637 249.759 40.32 249.759 39.5225C249.759 38.7135 249.463 38.1382 248.871 37.7964C248.29 37.4546 247.287 37.2837 245.863 37.2837H244.923C242.599 37.2837 240.827 36.8792 239.608 36.0703C238.389 35.2614 237.779 34.0879 237.779 32.5498C237.779 31.0459 238.372 29.8781 239.557 29.0464C240.753 28.2147 242.428 27.7988 244.581 27.7988C245.458 27.7988 246.353 27.9242 247.264 28.1748C248.176 28.4141 248.654 28.5337 248.7 28.5337C248.825 28.5337 249.064 28.4255 249.417 28.209C249.771 27.9811 250.118 27.8672 250.46 27.8672C250.847 27.8672 251.132 28.0096 251.314 28.2944C251.508 28.5793 251.605 29.0065 251.605 29.5762V31.5757C251.605 32.1795 251.514 32.6182 251.332 32.8916C251.149 33.1536 250.859 33.2847 250.46 33.2847C250.118 33.2847 249.697 32.9941 249.195 32.4131C248.842 32.0143 248.552 31.7124 248.324 31.5073C247.72 30.9491 247.076 30.5503 246.393 30.311C245.709 30.0604 244.906 29.9351 243.983 29.9351C242.912 29.9351 242.046 30.1743 241.385 30.6528C240.736 31.12 240.411 31.7181 240.411 32.4473C240.411 33.165 240.747 33.6777 241.419 33.9854C242.092 34.293 243.539 34.4696 245.76 34.5151C248.13 34.5721 249.862 34.988 250.956 35.7627C252.049 36.526 252.596 37.7109 252.596 39.3174C252.596 40.8555 251.992 42.0859 250.785 43.0088C249.577 43.9316 247.948 44.3931 245.897 44.3931C245.248 44.3931 244.524 44.3304 243.727 44.2051C242.929 44.0911 241.926 43.8918 240.719 43.6069C240.32 43.869 239.978 44.0627 239.693 44.188C239.409 44.3247 239.169 44.3931 238.976 44.3931C238.577 44.3931 238.269 44.2563 238.053 43.9829C237.848 43.6981 237.745 43.2936 237.745 42.7695ZM276.717 42.0347C278.471 42.0347 279.907 41.4821 281.023 40.377C282.151 39.2604 282.715 37.842 282.715 36.1216C282.715 34.4012 282.151 32.9827 281.023 31.8662C279.896 30.7383 278.46 30.1743 276.717 30.1743C274.974 30.1743 273.538 30.7383 272.41 31.8662C271.294 32.9827 270.735 34.4012 270.735 36.1216C270.735 37.8534 271.294 39.2718 272.41 40.377C273.527 41.4821 274.962 42.0347 276.717 42.0347ZM285.689 36.1216C285.689 38.5597 284.857 40.5535 283.194 42.103C281.53 43.6525 279.371 44.4272 276.717 44.4272C274.074 44.4272 271.92 43.6525 270.257 42.103C268.593 40.5535 267.762 38.5597 267.762 36.1216C267.762 33.6834 268.593 31.6953 270.257 30.1572C271.92 28.6077 274.074 27.833 276.717 27.833C279.36 27.833 281.513 28.6077 283.177 30.1572C284.852 31.7067 285.689 33.6948 285.689 36.1216ZM308.237 42.0347C309.992 42.0347 311.427 41.4821 312.544 40.377C313.672 39.2604 314.236 37.842 314.236 36.1216C314.236 34.4012 313.672 32.9827 312.544 31.8662C311.416 30.7383 309.98 30.1743 308.237 30.1743C306.494 30.1743 305.059 30.7383 303.931 31.8662C302.814 32.9827 302.256 34.4012 302.256 36.1216C302.256 37.8534 302.814 39.2718 303.931 40.377C305.047 41.4821 306.483 42.0347 308.237 42.0347ZM317.209 36.1216C317.209 38.5597 316.378 40.5535 314.714 42.103C313.051 43.6525 310.892 44.4272 308.237 44.4272C305.594 44.4272 303.441 43.6525 301.777 42.103C300.114 40.5535 299.282 38.5597 299.282 36.1216C299.282 33.6834 300.114 31.6953 301.777 30.1572C303.441 28.6077 305.594 27.833 308.237 27.833C310.881 27.833 313.034 28.6077 314.697 30.1572C316.372 31.7067 317.209 33.6948 317.209 36.1216ZM333.4 41.5903V30.6357H333.076C332.301 30.6357 331.765 30.5446 331.469 30.3623C331.184 30.18 331.042 29.861 331.042 29.4053C331.042 28.9837 331.162 28.6818 331.401 28.4995C331.64 28.3058 332.028 28.209 332.563 28.209H333.366H335.007C335.314 28.209 335.554 28.2716 335.725 28.397C335.896 28.5223 335.981 28.6932 335.981 28.9097V30.0718C336.813 29.297 337.633 28.7274 338.442 28.3628C339.262 27.9868 340.111 27.7988 340.988 27.7988C342.709 27.7988 344.059 28.3343 345.039 29.4053C346.03 30.4762 346.525 31.9574 346.525 33.8486V41.5903H347.329C347.898 41.5903 348.308 41.6872 348.559 41.8809C348.81 42.0632 348.935 42.3594 348.935 42.7695C348.935 43.2139 348.798 43.5329 348.525 43.7266C348.263 43.9089 347.79 44 347.106 44H343.33C342.6 44 342.133 43.9146 341.928 43.7437C341.723 43.5728 341.621 43.248 341.621 42.7695C341.621 42.3252 341.74 42.0176 341.979 41.8467C342.219 41.6758 342.669 41.5903 343.33 41.5903H343.928V34.481C343.928 33.1479 343.626 32.134 343.022 31.439C342.418 30.7326 341.541 30.3794 340.39 30.3794C339.228 30.3794 338.203 30.7725 337.314 31.5586C336.425 32.3447 335.981 33.3188 335.981 34.481V41.5903H336.579C337.263 41.5903 337.724 41.6758 337.963 41.8467C338.203 42.0176 338.322 42.3252 338.322 42.7695C338.322 43.248 338.22 43.5728 338.015 43.7437C337.81 43.9146 337.308 44 336.511 44H333.4H332.478C332.01 44 331.657 43.9032 331.418 43.7095C331.19 43.5044 331.076 43.1911 331.076 42.7695C331.076 42.3138 331.207 42.0062 331.469 41.8467C331.743 41.6758 332.267 41.5903 333.042 41.5903H333.4ZM367.929 41.1973C367.929 40.3086 368.236 39.5794 368.852 39.0098C369.478 38.4401 370.287 38.1553 371.278 38.1553C372.292 38.1553 373.107 38.4344 373.722 38.9927C374.337 39.5509 374.645 40.2858 374.645 41.1973C374.645 42.1087 374.332 42.8436 373.705 43.4019C373.09 43.9601 372.281 44.2393 371.278 44.2393C370.276 44.2393 369.467 43.9601 368.852 43.4019C368.236 42.8436 367.929 42.1087 367.929 41.1973ZM399.449 41.1973C399.449 40.3086 399.757 39.5794 400.372 39.0098C400.999 38.4401 401.808 38.1553 402.799 38.1553C403.813 38.1553 404.627 38.4344 405.243 38.9927C405.858 39.5509 406.166 40.2858 406.166 41.1973C406.166 42.1087 405.852 42.8436 405.226 43.4019C404.61 43.9601 403.801 44.2393 402.799 44.2393C401.796 44.2393 400.987 43.9601 400.372 43.4019C399.757 42.8436 399.449 42.1087 399.449 41.1973ZM430.97 41.1973C430.97 40.3086 431.277 39.5794 431.893 39.0098C432.519 38.4401 433.328 38.1553 434.319 38.1553C435.333 38.1553 436.148 38.4344 436.763 38.9927C437.378 39.5509 437.686 40.2858 437.686 41.1973C437.686 42.1087 437.373 42.8436 436.746 43.4019C436.131 43.9601 435.322 44.2393 434.319 44.2393C433.317 44.2393 432.508 43.9601 431.893 43.4019C431.277 42.8436 430.97 42.1087 430.97 41.1973Z" fill="white"/>
</g>
</svg>
