<svg width="52" height="54" viewBox="0 0 52 54" fill="none" xmlns="http://www.w3.org/2000/svg">
<path d="M26.0058 12.9927C18.6278 12.9927 12.6766 19.0978 12.6766 26.6667C12.6766 34.2356 18.6278 40.3407 26.0058 40.3407C33.3838 40.3407 39.335 34.2356 39.335 26.6667C39.335 19.0978 33.3838 12.9927 26.0058 12.9927ZM26.0058 35.5565C21.2379 35.5565 17.3401 31.5698 17.3401 26.6667C17.3401 21.7635 21.2263 17.7768 26.0058 17.7768C30.7853 17.7768 34.6715 21.7635 34.6715 26.6667C34.6715 31.5698 30.7737 35.5565 26.0058 35.5565ZM42.9892 12.4333C42.9892 14.2066 41.5971 15.6227 39.8802 15.6227C38.1517 15.6227 36.7712 14.1947 36.7712 12.4333C36.7712 10.672 38.1633 9.24393 39.8802 9.24393C41.5971 9.24393 42.9892 10.672 42.9892 12.4333ZM51.8173 15.6703C51.6201 11.398 50.6688 7.61352 47.6178 4.49552C44.5785 1.37751 40.8895 0.401651 36.7248 0.187437C32.4326 -0.0624791 19.5674 -0.0624791 15.2752 0.187437C11.1221 0.38975 7.43313 1.36561 4.38215 4.48362C1.33118 7.60162 0.391523 11.3861 0.182711 15.6584C-0.0609035 20.0617 -0.0609035 33.2597 0.182711 37.663C0.379922 41.9354 1.33118 45.7198 4.38215 48.8378C7.43313 51.9558 11.1105 52.9317 15.2752 53.1459C19.5674 53.3958 32.4326 53.3958 36.7248 53.1459C40.8895 52.9436 44.5785 51.9677 47.6178 48.8378C50.6572 45.7198 51.6085 41.9354 51.8173 37.663C52.0609 33.2597 52.0609 20.0736 51.8173 15.6703ZM46.2722 42.3876C45.3673 44.7201 43.6156 46.5172 41.3303 47.4573C37.9081 48.8497 29.7876 48.5284 26.0058 48.5284C22.224 48.5284 14.0919 48.8378 10.6813 47.4573C8.40758 46.5291 6.65588 44.732 5.73943 42.3876C4.38215 38.8769 4.69537 30.5463 4.69537 26.6667C4.69537 22.787 4.39375 14.4446 5.73943 10.9457C6.64428 8.61319 8.39598 6.81617 10.6813 5.87601C14.1035 4.48362 22.224 4.80494 26.0058 4.80494C29.7876 4.80494 37.9197 4.49552 41.3303 5.87601C43.604 6.80427 45.3557 8.60129 46.2722 10.9457C47.6294 14.4565 47.3162 22.787 47.3162 26.6667C47.3162 30.5463 47.6294 38.8888 46.2722 42.3876Z" fill="white"/>
</svg>
