<svg width="474" height="467" viewBox="0 0 474 467" fill="none" xmlns="http://www.w3.org/2000/svg">
<path fill-rule="evenodd" clip-rule="evenodd" d="M353.49 0.68811L363.871 8.4461H456.636V68.112L467.017 75.87V80.4543V98.7913L473.245 103.446V167.908L467.017 172.563V263.754V268.268L456.636 276.026V341.687L467.017 349.445V354.029V466.026H379.442L371.514 449.029H102.088L94.1613 466.026H6.58608V393.877L0.357666 389.222V335.269V320.105V250.284V233.075V219.604L6.58608 214.949V86.8017L1.67884 83.1343V42.4402L6.58608 38.7728V0.758639H51.6005H57.7346L68.1152 8.51662H103.032L113.413 0.758639H119.547H194.193H200.327L210.708 8.51662H287.148L297.528 0.758639H353.49V0.68811ZM382.178 463.064H423.324L429.741 458.268H386.708L385.292 455.306L378.781 441.271H94.7276L86.8005 458.268H16.9668V94.5597L10.5496 89.7639V211.917V250.284V320.105V396.839V463.064H91.3302L99.2573 446.067H374.251L382.178 463.064ZM389.633 455.306H452.673V69.6636V65.0794V11.3377H367.834H361.7H20.9303V455.235H83.9694L91.8965 438.238H236.754H381.612L389.633 455.306ZM463.053 351.067V433.443L456.636 438.238V346.271L463.053 351.067ZM463.053 438.027V463.064H429.552L435.969 458.268H456.636V442.823L463.053 438.027ZM10.5496 85.1796V3.65025H55.564L61.9812 8.4461H16.9668V90.046L10.5496 85.1796ZM6.58608 216.924V228.491L2.24506 231.735V220.169L6.58608 216.924ZM2.24506 336.679L6.58608 339.924V391.902L2.24506 388.658V336.679ZM115.583 3.65025H198.157L204.574 8.4461H109.166L115.583 3.65025ZM299.605 3.65025H351.319L357.736 8.4461H293.187L299.605 3.65025ZM463.053 77.4216V266.646L456.636 271.442V72.6258L463.053 77.4216Z" fill="url(#paint0_radial_71_2959)"/>
<defs>
<radialGradient id="paint0_radial_71_2959" cx="0" cy="0" r="1" gradientUnits="userSpaceOnUse" gradientTransform="translate(4.911 0.202862) scale(771.047 576.24)">
<stop stop-color="#67DBFF"/>
<stop offset="1" stop-color="#0068DE"/>
</radialGradient>
</defs>
</svg>
