<svg width="476" height="459" viewBox="0 0 476 459" fill="none" xmlns="http://www.w3.org/2000/svg">
<path fill-rule="evenodd" clip-rule="evenodd" d="M355.466 0.264282L365.893 7.91145H459.074V66.7251L469.502 74.3723V78.891V96.9661L475.758 101.554V165.095L469.502 169.684V259.573V264.022L459.074 271.669V336.392L469.502 344.039V348.558V458.955H381.534L373.572 442.201H102.939L94.9766 458.955H7.00923V387.836L0.75293 383.248V330.066V315.119V246.294V229.332V216.053L7.00923 211.465V85.1478L2.08002 81.5328V41.4199L7.00923 37.8049V0.333803H52.2252H58.3867L68.8139 7.98097H103.887L114.314 0.333803H120.476H195.457H201.618L212.045 7.98097H288.827L299.254 0.333803H355.466V0.264282ZM384.283 456.035H425.613L432.059 451.308H388.833L387.411 448.388L380.871 434.554H95.5454L87.5828 451.308H17.4364V92.795L10.9905 88.0676V208.476V246.294V315.119V390.756V456.035H92.1328L100.095 439.281H376.321L384.283 456.035ZM391.772 448.388H455.093V68.2545V63.7357V10.7618H369.875H363.713H21.4177V448.319H84.739L92.7016 431.564H238.208H383.714L391.772 448.388ZM465.52 345.638V426.837L459.074 431.564V340.911L465.52 345.638ZM465.52 431.356V456.035H431.869L438.315 451.308H459.074V436.083L465.52 431.356ZM10.9905 83.5488V3.18411H56.2065L62.6524 7.91145H17.4364V88.3457L10.9905 83.5488ZM7.00923 213.412V224.813L2.64878 228.011V216.609L7.00923 213.412ZM2.64878 331.456L7.00923 334.654V385.89L2.64878 382.692V331.456ZM116.494 3.18411H199.438L205.884 7.91145H110.049L116.494 3.18411ZM301.34 3.18411H353.286L359.732 7.91145H294.894L301.34 3.18411ZM465.52 75.9017V262.423L459.074 267.15V71.1743L465.52 75.9017Z" fill="url(#paint0_radial_71_2657)"/>
<defs>
<radialGradient id="paint0_radial_71_2657" cx="0" cy="0" r="1" gradientUnits="userSpaceOnUse" gradientTransform="translate(5.32665 -0.214035) scale(774.5 568.009)">
<stop stop-color="#67DBFF"/>
<stop offset="1" stop-color="#0068DE"/>
</radialGradient>
</defs>
</svg>
