<svg width="65" height="28" viewBox="0 0 65 28" fill="none" xmlns="http://www.w3.org/2000/svg">
<path d="M21.7671 0.906738L64.1391 1.04779L21.5784 1.18885L21.7671 0.906738ZM19.5022 3.86887L64.1391 4.00992L19.2191 4.15098L19.5022 3.86887ZM17.2374 6.76047L64.1391 6.90153L16.9542 7.04259L17.2374 6.76047ZM14.8781 9.72261L64.0448 9.86367L14.595 10.0047L14.8781 9.72261ZM12.6132 12.6142L64.0448 12.8258L12.3301 13.0374L12.6132 12.6142ZM10.3484 15.5058L64.1391 15.7174L10.0652 15.929L10.3484 15.5058ZM8.08349 18.468L64.1391 18.6795L7.80037 18.8911L8.08349 18.468ZM5.81859 21.3596L64.1391 21.5712L5.5355 21.7827L5.81859 21.3596ZM3.55372 24.3217L64.1391 24.5333L3.27062 24.7449L3.55372 24.3217ZM1.28885 27.2133L64.1391 27.4249L0.911377 27.6365L1.28885 27.2133Z" fill="url(#paint0_linear_71_2736)"/>
<defs>
<linearGradient id="paint0_linear_71_2736" x1="0.915152" y1="14.2914" x2="64.1137" y2="14.2914" gradientUnits="userSpaceOnUse">
<stop offset="1.1e-07" stop-color="#0098CF"/>
<stop offset="1"/>
</linearGradient>
</defs>
</svg>
