<svg width="474" height="467" viewBox="0 0 474 467" fill="none" xmlns="http://www.w3.org/2000/svg">
<path fill-rule="evenodd" clip-rule="evenodd" d="M353.49 0.688721L363.87 8.44672H456.636V68.1127L467.017 75.8707V80.455V98.7921L473.245 103.447V167.909L467.017 172.564V263.755V268.269L456.636 276.027V341.688L467.017 349.446V354.03V466.027H379.441L371.514 449.03H102.088L94.1611 466.027H6.58584V393.878L0.357422 389.223V335.27V320.107V250.285V233.076V219.605L6.58584 214.95V86.8025L1.6786 83.135V42.4408L6.58584 38.7734V0.75925H51.6003H57.7343L68.115 8.51725H103.032L113.413 0.75925H119.547H194.193H200.327L210.708 8.51725H287.148L297.528 0.75925H353.49V0.688721ZM382.178 463.065H423.323L429.741 458.269H386.708L385.292 455.307L378.781 441.272H94.7273L86.8003 458.269H16.9665V94.5604L10.5494 89.7646V211.918V250.285V320.107V396.84V463.065H91.33L99.2571 446.068H374.251L382.178 463.065ZM389.633 455.307H452.672V69.6644V65.0801V11.3383H367.834H361.7H20.9301V455.237H83.9692L91.8962 438.24H236.754H381.612L389.633 455.307ZM463.053 351.068V433.444L456.636 438.24V346.272L463.053 351.068ZM463.053 438.028V463.065H429.552L435.969 458.269H456.636V442.824L463.053 438.028ZM10.5494 85.1803V3.65086H55.5638L61.981 8.44672H16.9665V90.0467L10.5494 85.1803ZM6.58584 216.925V228.492L2.24482 231.736V220.169L6.58584 216.925ZM2.24482 336.68L6.58584 339.925V391.903L2.24482 388.659V336.68ZM115.583 3.65086H198.157L204.574 8.44672H109.166L115.583 3.65086ZM299.604 3.65086H351.319L357.736 8.44672H293.187L299.604 3.65086ZM463.053 77.4223V266.647L456.636 271.443V72.6265L463.053 77.4223Z" fill="url(#paint0_radial_71_2808)"/>
<defs>
<radialGradient id="paint0_radial_71_2808" cx="0" cy="0" r="1" gradientUnits="userSpaceOnUse" gradientTransform="translate(4.91076 0.203471) scale(771.048 576.241)">
<stop stop-color="#67DBFF"/>
<stop offset="1" stop-color="#0068DE"/>
</radialGradient>
</defs>
</svg>
