<svg width="330" height="41" viewBox="0 0 330 41" fill="none" xmlns="http://www.w3.org/2000/svg">
<path fill-rule="evenodd" clip-rule="evenodd" d="M25.1809 3.59159L1.21095 34.3416C0.267249 35.6111 0.267249 37.0216 1.21095 38.2911C2.15465 39.5606 3.8533 40.2659 5.83507 40.2659H323.862C325.843 40.2659 327.448 39.5606 328.486 38.2911C329.429 37.0216 329.429 35.6111 328.486 34.3416L304.516 3.59159C303.666 2.46315 302.534 1.61682 301.118 1.0526C299.797 0.48838 298.193 0.135742 296.494 0.135742H33.2024C31.5037 0.135742 29.8994 0.417853 28.5782 1.0526C27.1627 1.68735 26.0302 2.53367 25.1809 3.59159Z" fill="url(#paint0_linear_71_2732)"/>
<defs>
<linearGradient id="paint0_linear_71_2732" x1="164.797" y1="40.3237" x2="164.797" y2="0.185815" gradientUnits="userSpaceOnUse">
<stop stop-color="#87B5F5"/>
<stop offset="1" stop-color="#3A587D"/>
</linearGradient>
</defs>
</svg>
