<svg width="474" height="467" viewBox="0 0 474 467" fill="none" xmlns="http://www.w3.org/2000/svg">
<path fill-rule="evenodd" clip-rule="evenodd" d="M353.49 0.688232L363.871 8.44622H456.636V68.1122L467.017 75.8702V80.4544V98.7915L473.245 103.446V167.908L467.017 172.563V263.754V268.268L456.636 276.026V341.687L467.017 349.445V354.029V466.026H379.442L371.514 449.029H102.088L94.1613 466.026H6.58608V393.877L0.357666 389.222V335.269V320.106V250.284V233.075V219.604L6.58608 214.95V86.8019L1.67884 83.1344V42.4403L6.58608 38.7729V0.758761H51.6005H57.7346L68.1152 8.51675H103.032L113.413 0.758761H119.547H194.193H200.327L210.708 8.51675H287.148L297.528 0.758761H353.49V0.688232ZM382.178 463.064H423.324L429.741 458.268H386.708L385.292 455.306L378.781 441.271H94.7276L86.8005 458.268H16.9668V94.5598L10.5496 89.764V211.917V250.284V320.106V396.839V463.064H91.3302L99.2573 446.067H374.251L382.178 463.064ZM389.633 455.306H452.673V69.6638V65.0795V11.3378H367.834H361.7H20.9303V455.236H83.9694L91.8965 438.239H236.754H381.612L389.633 455.306ZM463.053 351.067V433.443L456.636 438.239V346.271L463.053 351.067ZM463.053 438.027V463.064H429.552L435.969 458.268H456.636V442.823L463.053 438.027ZM10.5496 85.1797V3.65037H55.564L61.9812 8.44622H16.9668V90.0461L10.5496 85.1797ZM6.58608 216.924V228.491L2.24506 231.735V220.169L6.58608 216.924ZM2.24506 336.679L6.58608 339.924V391.902L2.24506 388.658V336.679ZM115.583 3.65037H198.157L204.574 8.44622H109.166L115.583 3.65037ZM299.605 3.65037H351.319L357.736 8.44622H293.187L299.605 3.65037ZM463.053 77.4217V266.646L456.636 271.442V72.6259L463.053 77.4217Z" fill="url(#paint0_radial_86_5011)"/>
<defs>
<radialGradient id="paint0_radial_86_5011" cx="0" cy="0" r="1" gradientUnits="userSpaceOnUse" gradientTransform="translate(4.911 0.202984) scale(771.047 576.24)">
<stop stop-color="#67DBFF"/>
<stop offset="1" stop-color="#0068DE"/>
</radialGradient>
</defs>
</svg>
