<svg width="64" height="28" viewBox="0 0 64 28" fill="none" xmlns="http://www.w3.org/2000/svg">
<path opacity="0.5" d="M42.8355 0.906738L0.463379 1.04779L43.0242 1.18885L42.8355 0.906738ZM45.1003 3.86889L0.463379 4.00994L45.3834 4.151L45.1003 3.86889ZM47.3652 6.76051L0.463379 6.90157L47.6483 7.04263L47.3652 6.76051ZM49.7245 9.72266L0.557733 9.86372L50.0076 10.0048L49.7245 9.72266ZM51.9893 12.6143L0.557733 12.8259L52.2725 13.0375L51.9893 12.6143ZM54.2542 15.5059L0.463379 15.7175L54.5373 15.9291L54.2542 15.5059ZM56.5191 18.4681L0.463379 18.6797L56.8022 18.8912L56.5191 18.4681ZM58.784 21.3597L0.463379 21.5713L59.0671 21.7829L58.784 21.3597ZM61.0489 24.3219L0.463379 24.5334L61.332 24.745L61.0489 24.3219ZM63.3137 27.2135L0.463379 27.4251L63.6912 27.6366L63.3137 27.2135Z" fill="url(#paint0_linear_71_2888)"/>
<defs>
<linearGradient id="paint0_linear_71_2888" x1="0.481309" y1="14.2914" x2="63.6799" y2="14.2914" gradientUnits="userSpaceOnUse">
<stop offset="1.2e-07"/>
<stop offset="1" stop-color="#0098CF"/>
</linearGradient>
</defs>
</svg>
