<svg width="32" height="38" viewBox="0 0 32 38" fill="none" xmlns="http://www.w3.org/2000/svg">
<path fill-rule="evenodd" clip-rule="evenodd" d="M26.5023 8.86861L28.5785 6.25911L28.7672 5.977L29.8053 4.63699C30.1828 4.1433 30.6546 3.79066 31.2208 3.50856L28.5785 0.0527344C27.2573 0.61695 26.0305 1.5338 25.1812 2.5917L1.21119 33.3415C0.267493 34.611 0.267493 36.0215 1.21119 37.291L5.83531 35.3162L7.91146 32.6362L8.28893 32.213L10.2707 29.7446L10.6482 29.3214L12.63 26.7825L12.9131 26.3593L14.8948 23.8203L15.1779 23.3972L17.1597 20.8582L17.4428 20.5056L19.4246 17.9666L19.7077 17.6139L21.6895 15.0045L21.9726 14.6518L23.9543 12.0423L24.2375 11.6897L26.3136 9.08019L26.5023 8.86861Z" fill="url(#paint0_linear_71_2892)"/>
<defs>
<linearGradient id="paint0_linear_71_2892" x1="15.8451" y1="37.3389" x2="15.8451" y2="0.0851758" gradientUnits="userSpaceOnUse">
<stop stop-color="#739CB0"/>
<stop offset="1" stop-color="#476B96"/>
</linearGradient>
</defs>
</svg>
