<svg width="32" height="38" viewBox="0 0 32 38" fill="none" xmlns="http://www.w3.org/2000/svg">
<path fill-rule="evenodd" clip-rule="evenodd" d="M26.5021 8.86901L28.5782 6.2595L28.7669 5.97739L29.805 4.63737C30.1825 4.14368 30.6543 3.79104 31.2205 3.50893L28.5782 0.0531006C27.257 0.617319 26.0302 1.53417 25.1809 2.59208L1.21095 33.342C0.267249 34.6115 0.267249 36.022 1.21095 37.2915L5.83507 35.3167L7.91121 32.6367L8.28868 32.2135L10.2705 29.7451L10.6479 29.3219L12.6297 26.7829L12.9128 26.3598L14.8946 23.8208L15.1777 23.3976L17.1594 20.8586L17.4426 20.506L19.4243 17.967L19.7074 17.6144L21.6892 15.0049L21.9723 14.6522L23.9541 12.0427L24.2372 11.6901L26.3133 9.08059L26.5021 8.86901Z" fill="url(#paint0_linear_71_2741)"/>
<defs>
<linearGradient id="paint0_linear_71_2741" x1="15.8449" y1="37.3394" x2="15.8449" y2="0.0855422" gradientUnits="userSpaceOnUse">
<stop stop-color="#739CB0"/>
<stop offset="1" stop-color="#476B96"/>
</linearGradient>
</defs>
</svg>
