<svg width="64" height="28" viewBox="0 0 64 28" fill="none" xmlns="http://www.w3.org/2000/svg">
<path opacity="0.5" d="M42.8358 0.906738L0.463623 1.04779L43.0245 1.18885L42.8358 0.906738ZM45.1007 3.86887L0.463623 4.00992L45.3838 4.15098L45.1007 3.86887ZM47.3656 6.76047L0.463623 6.90153L47.6487 7.04259L47.3656 6.76047ZM49.7248 9.72261L0.557977 9.86367L50.0079 10.0047L49.7248 9.72261ZM51.9897 12.6142L0.557977 12.8258L52.2728 13.0374L51.9897 12.6142ZM54.2546 15.5058L0.463623 15.7174L54.5377 15.929L54.2546 15.5058ZM56.5194 18.468L0.463623 18.6795L56.8026 18.8911L56.5194 18.468ZM58.7843 21.3596L0.463623 21.5712L59.0674 21.7827L58.7843 21.3596ZM61.0492 24.3217L0.463623 24.5333L61.3323 24.7449L61.0492 24.3217ZM63.3141 27.2133L0.463623 27.4249L63.6916 27.6365L63.3141 27.2133Z" fill="url(#paint0_linear_71_2737)"/>
<defs>
<linearGradient id="paint0_linear_71_2737" x1="0.481553" y1="14.2914" x2="63.6803" y2="14.2914" gradientUnits="userSpaceOnUse">
<stop offset="1.2e-07"/>
<stop offset="1" stop-color="#0098CF"/>
</linearGradient>
</defs>
</svg>
