<svg width="52" height="54" viewBox="0 0 52 54" fill="none" xmlns="http://www.w3.org/2000/svg">
<path d="M46.4286 0.666656H5.57143C2.49554 0.666656 0 3.22618 0 6.38094V48.2857C0 51.4405 2.49554 54 5.57143 54H46.4286C49.5045 54 52 51.4405 52 48.2857V6.38094C52 3.22618 49.5045 0.666656 46.4286 0.666656ZM40.7527 19.5714C40.7759 19.9048 40.7759 20.25 40.7759 20.5833C40.7759 30.9048 33.1152 42.7976 19.117 42.7976C14.7991 42.7976 10.7946 41.5119 7.42857 39.2976C8.04375 39.369 8.63571 39.3928 9.2625 39.3928C12.8259 39.3928 16.0991 38.1548 18.7107 36.0595C15.3679 35.9881 12.5589 33.7381 11.5955 30.6428C12.7679 30.8214 13.8241 30.8214 15.0313 30.5C11.5491 29.7738 8.9375 26.6309 8.9375 22.8333V22.7381C9.94732 23.3214 11.1312 23.6786 12.3732 23.7262C11.3291 23.0138 10.4731 22.0475 9.88171 20.9133C9.29031 19.7791 8.98188 18.5124 8.98393 17.2262C8.98393 15.7738 9.35536 14.4405 10.017 13.2857C13.7661 18.0238 19.3955 21.119 25.7098 21.4524C24.6304 16.1548 28.4955 11.8571 33.1384 11.8571C35.3321 11.8571 37.3054 12.7976 38.6982 14.3214C40.4161 13.9881 42.0643 13.3333 43.5268 12.4405C42.958 14.25 41.7625 15.7738 40.1839 16.7381C41.7161 16.5714 43.2018 16.1309 44.5714 15.5238C43.5384 17.0833 42.2384 18.4643 40.7527 19.5714Z" fill="white"/>
</svg>
