<svg width="330" height="41" viewBox="0 0 330 41" fill="none" xmlns="http://www.w3.org/2000/svg">
<path fill-rule="evenodd" clip-rule="evenodd" d="M25.1812 3.59155L1.21119 34.3412C0.267493 35.6106 0.267493 37.0212 1.21119 38.2906C2.15489 39.5601 3.85355 40.2654 5.83532 40.2654H323.862C325.844 40.2654 327.448 39.5601 328.486 38.2906C329.43 37.0212 329.43 35.6106 328.486 34.3412L304.516 3.59155C303.667 2.46312 302.534 1.6168 301.119 1.05259C299.798 0.488376 298.193 0.135742 296.495 0.135742H33.2026C31.5039 0.135742 29.8996 0.41785 28.5785 1.05259C27.1629 1.68733 26.0305 2.53365 25.1812 3.59155Z" fill="url(#paint0_linear_71_2883)"/>
<defs>
<linearGradient id="paint0_linear_71_2883" x1="164.798" y1="40.3232" x2="164.798" y2="0.185815" gradientUnits="userSpaceOnUse">
<stop stop-color="#87B5F5"/>
<stop offset="1" stop-color="#3A587D"/>
</linearGradient>
</defs>
</svg>
