<svg width="32" height="38" viewBox="0 0 32 38" fill="none" xmlns="http://www.w3.org/2000/svg">
<path fill-rule="evenodd" clip-rule="evenodd" d="M26.3673 9.28487L28.4527 6.71264L28.6423 6.43456L29.685 5.11368C30.0642 4.62705 30.5382 4.27945 31.1069 4.00137L28.4527 0.59491C27.1256 1.15107 25.8933 2.05482 25.0402 3.09761L0.962897 33.4082C0.0149718 34.6595 0.0149718 36.0499 0.962897 37.3013L5.60773 35.3547L7.69318 32.713L8.07234 32.2959L10.063 29.8627L10.4421 29.4456L12.4328 26.9429L12.7172 26.5257L14.7078 24.023L14.9922 23.6059L16.9828 21.1032L17.2672 20.7556L19.2579 18.2529L19.5422 17.9053L21.5329 15.3331L21.8173 14.9855L23.8079 12.4132L24.0923 12.0657L26.1777 9.49342L26.3673 9.28487Z" fill="url(#paint0_linear_71_2590)"/>
<defs>
<linearGradient id="paint0_linear_71_2590" x1="15.6624" y1="37.3486" x2="15.6624" y2="0.626888" gradientUnits="userSpaceOnUse">
<stop stop-color="#739CB0"/>
<stop offset="1" stop-color="#476B96"/>
</linearGradient>
</defs>
</svg>
