<svg width="65" height="27" viewBox="0 0 65 27" fill="none" xmlns="http://www.w3.org/2000/svg">
<path d="M21.6427 0.36499L64.2045 0.504026L21.4531 0.643069L21.6427 0.36499ZM19.3677 3.28482L64.2045 3.42386L19.0833 3.5629L19.3677 3.28482ZM17.0927 6.13512L64.2045 6.27417L16.8083 6.41321L17.0927 6.13512ZM14.7229 9.05495L64.1097 9.194L14.4385 9.33304L14.7229 9.05495ZM12.4479 11.9053L64.1097 12.1138L12.1635 12.3224L12.4479 11.9053ZM10.1728 14.7556L64.2045 14.9641L9.88846 15.1727L10.1728 14.7556ZM7.89783 17.6754L64.2045 17.884L7.61345 18.0925L7.89783 17.6754ZM5.6228 20.5257L64.2045 20.7343L5.33843 20.9428L5.6228 20.5257ZM3.34778 23.4456L64.2045 23.6541L3.06341 23.8627L3.34778 23.4456ZM1.07276 26.2959L64.2045 26.5044L0.693604 26.713L1.07276 26.2959Z" fill="url(#paint0_linear_71_2585)"/>
<defs>
<linearGradient id="paint0_linear_71_2585" x1="0.697395" y1="13.5585" x2="64.1789" y2="13.5585" gradientUnits="userSpaceOnUse">
<stop offset="1.1e-07" stop-color="#0098CF"/>
<stop offset="1"/>
</linearGradient>
</defs>
</svg>
