<svg width="31" height="38" viewBox="0 0 31 38" fill="none" xmlns="http://www.w3.org/2000/svg">
<path fill-rule="evenodd" clip-rule="evenodd" d="M25.7677 35.387L30.1087 37.6439C30.203 37.5734 29.8255 38.0671 30.2974 37.3618C30.8636 36.6565 31.2411 34.6818 30.2974 33.4123L6.32749 2.6624C5.47817 1.53396 4.34573 0.687631 2.93018 0.123413L0.287842 3.57925C0.85406 3.86136 1.32589 4.214 1.70337 4.70769L2.74144 6.0477L2.93018 6.32981L5.00632 8.93932L5.28942 9.22143L7.36557 11.8309L7.64866 12.1836L9.63042 14.7931L9.91355 15.1457L11.8953 17.7552L12.1784 18.1079L14.1602 20.6468L14.4433 20.9995L16.425 23.5384L16.7081 23.9616L18.6899 26.5006L18.973 26.9238L20.9548 29.4627L21.3323 29.8859L23.314 32.3544L23.6915 32.7775L25.7677 35.387Z" fill="url(#paint0_linear_71_2739)"/>
<defs>
<linearGradient id="paint0_linear_71_2739" x1="15.671" y1="37.6989" x2="15.671" y2="0.0853292" gradientUnits="userSpaceOnUse">
<stop stop-color="#739CB0"/>
<stop offset="1" stop-color="#476B96"/>
</linearGradient>
</defs>
</svg>
