<svg width="331" height="41" viewBox="0 0 331 41" fill="none" xmlns="http://www.w3.org/2000/svg">
<path fill-rule="evenodd" clip-rule="evenodd" d="M25.0402 4.0975L0.962897 34.4081C0.014972 35.6595 0.014972 37.0498 0.962897 38.3012C1.91082 39.5526 3.61708 40.2478 5.60772 40.2478H325.058C327.049 40.2478 328.66 39.5526 329.703 38.3012C330.651 37.0498 330.651 35.6595 329.703 34.4081L305.626 4.0975C304.773 2.98519 303.635 2.15095 302.213 1.5948C300.886 1.03864 299.275 0.69104 297.568 0.69104H33.0976C31.3913 0.69104 29.7798 0.96912 28.4527 1.5948C27.0308 2.22047 25.8933 3.05471 25.0402 4.0975Z" fill="url(#paint0_linear_71_2581)"/>
<defs>
<linearGradient id="paint0_linear_71_2581" x1="165.282" y1="40.3048" x2="165.282" y2="0.740398" gradientUnits="userSpaceOnUse">
<stop stop-color="#87B5F5"/>
<stop offset="1" stop-color="#3A587D"/>
</linearGradient>
</defs>
</svg>
