<svg width="52" height="54" viewBox="0 0 52 54" fill="none" xmlns="http://www.w3.org/2000/svg">
<path d="M46.4286 0H5.57143C2.49554 0 0 2.55952 0 5.71429V47.619C0 50.7738 2.49554 53.3333 5.57143 53.3333H46.4286C49.5045 53.3333 52 50.7738 52 47.619V5.71429C52 2.55952 49.5045 0 46.4286 0ZM40.7527 18.9048C40.7759 19.2381 40.7759 19.5833 40.7759 19.9167C40.7759 30.2381 33.1152 42.131 19.117 42.131C14.7991 42.131 10.7946 40.8452 7.42857 38.631C8.04375 38.7024 8.63571 38.7262 9.2625 38.7262C12.8259 38.7262 16.0991 37.4881 18.7107 35.3929C15.3679 35.3214 12.5589 33.0714 11.5955 29.9762C12.7679 30.1548 13.8241 30.1548 15.0313 29.8333C11.5491 29.1071 8.9375 25.9643 8.9375 22.1667V22.0714C9.94732 22.6548 11.1312 23.0119 12.3732 23.0595C11.3291 22.3472 10.4731 21.3808 9.88171 20.2466C9.29031 19.1124 8.98188 17.8457 8.98393 16.5595C8.98393 15.1071 9.35536 13.7738 10.017 12.619C13.7661 17.3571 19.3955 20.4524 25.7098 20.7857C24.6304 15.4881 28.4955 11.1905 33.1384 11.1905C35.3321 11.1905 37.3054 12.131 38.6982 13.6548C40.4161 13.3214 42.0643 12.6667 43.5268 11.7738C42.958 13.5833 41.7625 15.1071 40.1839 16.0714C41.7161 15.9048 43.2018 15.4643 44.5714 14.8571C43.5384 16.4167 42.2384 17.7976 40.7527 18.9048Z" fill="white"/>
</svg>
