<svg width="32" height="38" viewBox="0 0 32 38" fill="none" xmlns="http://www.w3.org/2000/svg">
<path fill-rule="evenodd" clip-rule="evenodd" d="M25.9934 35.4244L30.3539 37.649C30.4486 37.5795 30.0695 38.0661 30.5434 37.3709C31.1122 36.6757 31.4914 34.7292 30.5434 33.4778L6.46613 3.16726C5.613 2.05495 4.47548 1.22071 3.05359 0.664551L0.399414 4.07102C0.968169 4.3491 1.44211 4.69669 1.82128 5.18333L2.864 6.5042L3.05359 6.78228L5.13904 9.35451L5.42341 9.63259L7.50885 12.2048L7.79322 12.5524L9.78386 15.1246L10.0683 15.4722L12.0589 18.0445L12.3433 18.3921L14.3339 20.8948L14.6183 21.2424L16.6089 23.7451L16.8933 24.1622L18.884 26.6649L19.1683 27.082L21.159 29.5847L21.5381 30.0019L23.5288 32.435L23.908 32.8522L25.9934 35.4244Z" fill="url(#paint0_linear_71_2588)"/>
<defs>
<linearGradient id="paint0_linear_71_2588" x1="15.8515" y1="37.7032" x2="15.8515" y2="0.627011" gradientUnits="userSpaceOnUse">
<stop stop-color="#739CB0"/>
<stop offset="1" stop-color="#476B96"/>
</linearGradient>
</defs>
</svg>
