<svg width="64" height="27" viewBox="0 0 64 27" fill="none" xmlns="http://www.w3.org/2000/svg">
<path opacity="0.5" d="M42.9585 0.36499L0.396729 0.504026L43.1481 0.643069L42.9585 0.36499ZM45.2335 3.28482L0.396729 3.42386L45.5179 3.5629L45.2335 3.28482ZM47.5086 6.13512L0.396729 6.27417L47.7929 6.41321L47.5086 6.13512ZM49.8784 9.05495L0.491505 9.194L50.1627 9.33304L49.8784 9.05495ZM52.1534 11.9053L0.491505 12.1138L52.4378 12.3224L52.1534 11.9053ZM54.4284 14.7556L0.396729 14.9641L54.7128 15.1727L54.4284 14.7556ZM56.7034 17.6754L0.396729 17.884L56.9878 18.0925L56.7034 17.6754ZM58.9784 20.5257L0.396729 20.7343L59.2628 20.9428L58.9784 20.5257ZM61.2535 23.4456L0.396729 23.6541L61.5378 23.8627L61.2535 23.4456ZM63.5285 26.2959L0.396729 26.5044L63.9076 26.713L63.5285 26.2959Z" fill="url(#paint0_linear_71_2586)"/>
<defs>
<linearGradient id="paint0_linear_71_2586" x1="0.414739" y1="13.5585" x2="63.8963" y2="13.5585" gradientUnits="userSpaceOnUse">
<stop offset="1.2e-07"/>
<stop offset="1" stop-color="#0098CF"/>
</linearGradient>
</defs>
</svg>
