<svg width="31" height="38" viewBox="0 0 31 38" fill="none" xmlns="http://www.w3.org/2000/svg">
<path fill-rule="evenodd" clip-rule="evenodd" d="M25.7675 35.3865L30.1085 37.6434C30.2029 37.5729 29.8254 38.0666 30.2972 37.3613C30.8635 36.656 31.2409 34.6813 30.2972 33.4118L6.32727 2.66214C5.47794 1.53371 4.34549 0.687383 2.92994 0.123169L0.287598 3.57898C0.853817 3.86109 1.32565 4.21372 1.70313 4.70741L2.7412 6.04742L2.92994 6.32952L5.00609 8.93901L5.28919 9.22113L7.36534 11.8306L7.64844 12.1833L9.6302 14.7927L9.91334 15.1454L11.8951 17.7549L12.1782 18.1075L14.16 20.6465L14.4431 20.9991L16.4248 23.538L16.7079 23.9612L18.6897 26.5002L18.9728 26.9233L20.9546 29.4623L21.3321 29.8855L23.3138 32.3539L23.6913 32.7771L25.7675 35.3865Z" fill="url(#paint0_linear_71_2890)"/>
<defs>
<linearGradient id="paint0_linear_71_2890" x1="15.6708" y1="37.6984" x2="15.6708" y2="0.0850853" gradientUnits="userSpaceOnUse">
<stop stop-color="#739CB0"/>
<stop offset="1" stop-color="#476B96"/>
</linearGradient>
</defs>
</svg>
