<svg width="52" height="54" viewBox="0 0 52 54" fill="none" xmlns="http://www.w3.org/2000/svg">
<path d="M34.4983 26C34.4983 27.6267 33.1611 28.96 31.4674 28.96C29.8034 28.96 28.4366 27.6267 28.4366 26C28.4366 24.3734 29.7737 23.04 31.4674 23.04C33.1611 23.04 34.4983 24.3734 34.4983 26ZM20.6217 23.04C18.928 23.04 17.5909 24.3734 17.5909 26C17.5909 27.6267 18.9577 28.96 20.6217 28.96C22.3154 28.96 23.6526 27.6267 23.6526 26C23.6823 24.3734 22.3154 23.04 20.6217 23.04ZM52 6.16002V54C44.5141 48.0631 46.9082 50.0284 38.2126 42.7734L39.7874 47.7067H6.09143C2.73371 47.7067 0 45.2534 0 42.2134V6.16002C0 3.12002 2.73371 0.666687 6.09143 0.666687H45.9086C49.2663 0.666687 52 3.12002 52 6.16002ZM43.5314 31.44C43.5314 22.8534 39.2526 15.8934 39.2526 15.8934C34.9737 13.0134 30.9029 13.0934 30.9029 13.0934L30.4869 13.52C35.5383 14.9067 37.8857 16.9067 37.8857 16.9067C30.8273 13.4349 22.536 13.4343 15.6891 16.1334C14.5897 16.5867 13.936 16.9067 13.936 16.9067C13.936 16.9067 16.4023 14.8 21.7509 13.4134L21.4537 13.0934C21.4537 13.0934 17.3829 13.0134 13.104 15.8934C13.104 15.8934 8.82514 22.8534 8.82514 31.44C8.82514 31.44 11.3211 35.3067 17.888 35.4934C17.888 35.4934 18.9874 34.2934 19.8789 33.28C16.1051 32.2667 14.6789 30.1334 14.6789 30.1334C15.116 30.4079 15.8368 30.7639 15.8971 30.8C20.9126 33.3206 28.0368 34.1465 34.4389 31.7334C35.4789 31.3867 36.6377 30.88 37.856 30.16C37.856 30.16 36.3703 32.3467 32.4777 33.3334C33.3691 34.3467 34.4389 35.4934 34.4389 35.4934C41.0057 35.3067 43.5314 31.44 43.5314 31.44Z" fill="white"/>
</svg>
