<svg width="65" height="28" viewBox="0 0 65 28" fill="none" xmlns="http://www.w3.org/2000/svg">
<path d="M21.7669 0.906738L64.139 1.04779L21.5781 1.18885L21.7669 0.906738ZM19.502 3.86889L64.139 4.00994L19.2189 4.151L19.502 3.86889ZM17.2371 6.76051L64.139 6.90157L16.954 7.04263L17.2371 6.76051ZM14.8779 9.72266L64.0446 9.86372L14.5948 10.0048L14.8779 9.72266ZM12.613 12.6143L64.0446 12.8259L12.3299 13.0375L12.613 12.6143ZM10.3481 15.5059L64.139 15.7175L10.065 15.9291L10.3481 15.5059ZM8.08325 18.4681L64.139 18.6797L7.80013 18.8912L8.08325 18.4681ZM5.81835 21.3597L64.139 21.5713L5.53526 21.7829L5.81835 21.3597ZM3.55348 24.3219L64.139 24.5334L3.27038 24.745L3.55348 24.3219ZM1.2886 27.2135L64.139 27.4251L0.911133 27.6366L1.2886 27.2135Z" fill="url(#paint0_linear_71_2887)"/>
<defs>
<linearGradient id="paint0_linear_71_2887" x1="0.914908" y1="14.2914" x2="64.1135" y2="14.2914" gradientUnits="userSpaceOnUse">
<stop offset="1.1e-07" stop-color="#0098CF"/>
<stop offset="1"/>
</linearGradient>
</defs>
</svg>
